<?xml version="1.0" encoding="UTF-8" standalone="no"?>
<!-- Created with Inkscape (http://www.inkscape.org/) -->

<svg
   width="210.90721mm"
   height="192.29414mm"
   viewBox="0 0 210.90721 192.29414"
   version="1.1"
   id="svg1354"
   inkscape:version="1.1 (c68e22c387, 2021-05-23)"
   sodipodi:docname="DIAG.svg"
   xmlns:inkscape="http://www.inkscape.org/namespaces/inkscape"
   xmlns:sodipodi="http://sodipodi.sourceforge.net/DTD/sodipodi-0.dtd"
   xmlns="http://www.w3.org/2000/svg"
   xmlns:svg="http://www.w3.org/2000/svg">
  <sodipodi:namedview
     id="namedview1356"
     pagecolor="#ffffff"
     bordercolor="#666666"
     borderopacity="1.0"
     inkscape:pageshadow="2"
     inkscape:pageopacity="0.0"
     inkscape:pagecheckerboard="0"
     inkscape:document-units="mm"
     showgrid="false"
     inkscape:zoom="1"
     inkscape:cx="185"
     inkscape:cy="656"
     inkscape:window-width="2160"
     inkscape:window-height="1334"
     inkscape:window-x="-11"
     inkscape:window-y="-11"
     inkscape:window-maximized="1"
     inkscape:current-layer="layer1" />
  <defs
     id="defs1351">
    <inkscape:path-effect
       effect="bspline"
       id="path-effect15377"
       is_visible="true"
       lpeversion="1"
       weight="33.333333"
       steps="2"
       helper_size="0"
       apply_no_weight="true"
       apply_with_weight="true"
       only_selected="false" />
    <inkscape:path-effect
       effect="bspline"
       id="path-effect13496"
       is_visible="true"
       lpeversion="1"
       weight="33.333333"
       steps="2"
       helper_size="0"
       apply_no_weight="true"
       apply_with_weight="true"
       only_selected="false" />
    <inkscape:path-effect
       effect="bspline"
       id="path-effect13378"
       is_visible="true"
       lpeversion="1"
       weight="33.333333"
       steps="2"
       helper_size="0"
       apply_no_weight="true"
       apply_with_weight="true"
       only_selected="false" />
    <inkscape:path-effect
       effect="bspline"
       id="path-effect10682"
       is_visible="true"
       lpeversion="1"
       weight="33.333333"
       steps="2"
       helper_size="0"
       apply_no_weight="true"
       apply_with_weight="true"
       only_selected="false" />
    <inkscape:path-effect
       effect="bspline"
       id="path-effect7023"
       is_visible="true"
       lpeversion="1"
       weight="33.333333"
       steps="2"
       helper_size="0"
       apply_no_weight="true"
       apply_with_weight="true"
       only_selected="false" />
  </defs>
  <g
     inkscape:label="Calque 1"
     inkscape:groupmode="layer"
     id="layer1"
     transform="translate(-7.5486851,-75.048821)">
    <circle
       style="fill:#d3d3d3;fill-opacity:1;stroke:none;stroke-width:2;stroke-miterlimit:4;stroke-dasharray:none"
       id="path6693"
       cx="106.56003"
       cy="164.77028"
       r="69.914909" />
    <path
       style="fill:none;stroke:#666666;stroke-width:2;stroke-linecap:butt;stroke-linejoin:miter;stroke-miterlimit:4;stroke-dasharray:none;stroke-opacity:1"
       d="M 46.456174,76.048821 H 170.51382"
       id="path8633" />
    <path
       style="fill:none;stroke:#666666;stroke-width:2;stroke-linecap:butt;stroke-linejoin:miter;stroke-miterlimit:4;stroke-dasharray:none;stroke-opacity:1"
       d="M 17.232361,264.70249 H 50.502768"
       id="path8633-2" />
    <path
       style="fill:none;stroke:#666666;stroke-width:2;stroke-linecap:butt;stroke-linejoin:miter;stroke-miterlimit:4;stroke-dasharray:none;stroke-opacity:1"
       d="M 15.64486,264.70249 H 48.915267"
       id="path1488" />
    <path
       style="fill:none;stroke:#666666;stroke-width:2;stroke-linecap:butt;stroke-linejoin:miter;stroke-miterlimit:4;stroke-dasharray:none;stroke-opacity:1"
       d="M 66.444865,264.70249 H 85.105833"
       id="path1490" />
    <path
       style="fill:none;stroke:#666666;stroke-width:2;stroke-linecap:butt;stroke-linejoin:miter;stroke-miterlimit:4;stroke-dasharray:none;stroke-opacity:1"
       d="M 97.364735,264.70249 H 118.6083"
       id="path1603" />
    <path
       style="fill:none;stroke:#666666;stroke-width:2;stroke-linecap:butt;stroke-linejoin:miter;stroke-miterlimit:4;stroke-dasharray:none;stroke-opacity:1"
       d="m 136.85363,264.70249 h 40.57514"
       id="path1605" />
    <path
       style="fill:none;stroke:#666666;stroke-width:2;stroke-linecap:butt;stroke-linejoin:miter;stroke-miterlimit:4;stroke-dasharray:none;stroke-opacity:1"
       d="m 197.67823,264.70249 h 18.66098"
       id="path1607" />
    <rect
       style="fill:#ffd700;fill-opacity:1;stroke:none;stroke-width:2;stroke-miterlimit:4;stroke-dasharray:none"
       id="rect1746"
       width="5.0028925"
       height="5.2809587"
       x="7.5486851"
       y="262.06201" />
    <rect
       style="fill:#008000;fill-opacity:1;stroke:none;stroke-width:2;stroke-miterlimit:4;stroke-dasharray:none"
       id="rect2654"
       width="5.0028925"
       height="5.2809587"
       x="58.34869"
       y="262.06201" />
    <rect
       style="fill:#f5deb3;fill-opacity:1;stroke:none;stroke-width:2;stroke-miterlimit:4;stroke-dasharray:none"
       id="rect2656"
       width="5.0028925"
       height="5.2809587"
       x="89.040352"
       y="262.06201" />
    <rect
       style="fill:#ff4500;fill-opacity:1;stroke:none;stroke-width:2;stroke-miterlimit:4;stroke-dasharray:none"
       id="rect2658"
       width="5.0028925"
       height="5.2809587"
       x="128.72781"
       y="262.06201" />
    <rect
       style="fill:#d3d3d3;fill-opacity:1;stroke:none;stroke-width:2;stroke-miterlimit:4;stroke-dasharray:none"
       id="rect2660"
       width="5.0028925"
       height="5.2809587"
       x="189.58208"
       y="262.06201" />
    <circle
       style="fill:#ffffff;fill-opacity:1;stroke:none;stroke-width:2;stroke-miterlimit:4;stroke-dasharray:none"
       id="path6691"
       cx="106.56003"
       cy="164.77028"
       r="29.699999" />
    <path
       style="fill:#ffd700;fill-opacity:1;stroke:#ffd700;stroke-width:0.265;stroke-linecap:butt;stroke-linejoin:miter;stroke-miterlimit:4;stroke-dasharray:none;stroke-opacity:1"
       d="m 105.83862,135.10138 c 0,0 0,-40.175961 0,-40.175961 0.85331,-0.01631 1.70687,-0.03262 2.70423,-0.01631 0.99735,0.01631 2.13869,0.06523 3.66597,0.206554 1.52728,0.141325 3.44038,0.375028 5.15244,0.638643 1.71207,0.263615 3.22299,0.557103 4.74211,0.907681 1.51912,0.350578 3.04634,0.7582 4.03552,1.032679 0.98919,0.27448 1.44029,0.415789 2.79158,0.911952 1.35129,0.496163 3.60267,1.347121 5.73531,2.272247 2.13264,0.92513 4.14642,1.92433 6.31399,3.15418 2.16756,1.22984 4.4888,2.69022 6.63329,4.22752 2.14449,1.5373 4.11215,3.1514 5.71091,4.58878 1.59876,1.43737 2.82855,2.6979 4.27358,4.4043 1.44503,1.70641 3.10525,3.85854 4.87312,6.30283 1.76786,2.44428 3.64328,5.18055 4.88846,7.10215 1.24518,1.92161 1.86008,3.02842 2.76704,5.27286 0.90697,2.24445 2.10602,5.62637 3.08986,8.7778 0.98384,3.15142 1.75246,6.07217 2.22898,9.4388 0.47652,3.36664 0.66099,7.17898 0.75322,10.1613 0.0922,2.98231 0.0922,5.13444 -0.30749,8.25511 -0.39972,3.12066 -1.19908,7.20971 -1.90624,10.11513 -0.70715,2.90542 -1.32205,4.62714 -2.27517,6.9638 -0.95311,2.33666 -2.24439,5.28815 -2.91164,6.74928 -0.66726,1.46113 -0.71086,1.43174 -6.46407,-1.89201 -5.75321,-3.32376 -17.21555,-9.94154 -23.00822,-13.28595 -5.79268,-3.3444 -5.91548,-3.4153 -5.97624,-3.45292 -0.0608,-0.0376 -0.0592,-0.0418 -0.0368,-0.0895 0.0224,-0.0478 0.0655,-0.13872 0.28981,-0.65727 0.22435,-0.51856 0.62995,-1.46471 1.03935,-2.67834 0.40939,-1.21363 0.82254,-2.69472 1.0798,-4.00042 0.25726,-1.30571 0.3586,-2.43601 0.43266,-3.37145 0.0741,-0.93545 0.12083,-1.67601 0.10525,-2.59585 -0.0156,-0.91983 -0.0935,-2.01896 -0.17927,-2.91153 -0.0857,-0.89257 -0.17928,-1.57855 -0.31568,-2.27623 -0.1364,-0.69768 -0.31569,-1.40704 -0.48328,-2.01509 -0.16759,-0.60804 -0.3235,-1.11473 -0.55345,-1.79683 -0.22996,-0.68211 -0.53398,-1.53959 -0.9666,-2.49843 -0.43262,-0.95884 -0.99387,-2.01898 -1.4382,-2.81412 -0.44433,-0.79514 -0.77172,-1.3252 -1.09913,-1.83581 -0.3274,-0.5106 -0.6548,-1.0017 -1.05234,-1.51231 -0.39755,-0.51061 -0.86527,-1.0407 -1.65649,-1.85533 -0.79123,-0.81464 -1.90594,-1.91376 -2.75173,-2.66994 -0.84579,-0.75618 -1.42263,-1.16932 -1.99559,-1.56689 -0.57297,-0.39757 -1.14202,-0.77954 -2.08527,-1.32134 -0.94325,-0.54181 -2.26064,-1.24337 -3.27014,-1.73061 -1.00951,-0.48723 -1.71107,-0.76007 -2.75957,-1.0797 -1.04849,-0.31964 -2.44383,-0.68601 -3.51181,-0.91599 -1.06798,-0.22999 -1.80853,-0.32353 -2.56859,-0.3898 -0.76007,-0.0663 -1.53959,-0.10525 -2.16513,-0.11787 -0.62554,-0.0126 -1.09705,0.001 -1.33289,0.0125 -0.23584,0.0114 -0.23577,0.0195 -0.23573,0.0236 4e-5,0.004 2.4e-4,0.004 2.4e-4,0.004 z"
       id="path7021"
       inkscape:path-effect="#path-effect7023"
       inkscape:original-d="M 105.83862,135.10138 V 94.925419 c 0,0 1.70688,-0.03235 2.55992,-0.04892 1.14165,0.04918 2.28299,0.0981 3.42409,0.146747 1.91344,0.233976 3.82654,0.467679 5.73942,0.701122 1.51124,0.293764 3.02216,0.587251 4.53284,0.88048 1.52755,0.407902 3.05477,0.815523 4.58175,1.222888 0.45139,0.141579 0.90249,0.282888 1.35333,0.423935 2.25174,0.851254 4.50312,1.70221 6.75428,2.552929 2.01412,0.9995 4.0279,1.99871 6.04146,2.99767 2.32158,1.46069 4.64281,2.92107 6.96382,4.3812 1.968,1.61443 3.93566,3.22853 5.9031,4.8424 1.2301,1.26085 2.45989,2.52138 3.68944,3.78167 1.66055,2.15249 3.32077,4.30462 4.98075,6.45653 1.87577,2.73665 3.75119,5.47292 5.6264,8.209 0.61518,1.10712 1.23007,2.21393 1.84472,3.3205 1.19935,3.38232 2.3984,6.76424 3.5972,10.14596 0.76891,2.92113 1.53753,5.84188 2.3059,8.76242 0.18474,3.81277 0.36921,7.62511 0.55342,11.43727 2.6e-4,2.15248 2.6e-4,4.30461 0,6.45652 -0.79913,4.08948 -1.5985,8.17853 -2.39814,12.26739 -0.61465,1.72204 -1.22955,3.44375 -1.84472,5.16522 -1.29106,2.95188 -2.58234,5.90337 -3.87391,8.85466 -0.0433,-0.0291 -0.0869,-0.0585 -0.13081,-0.0882 -11.46252,-6.61778 -22.92486,-13.23557 -34.38768,-19.85375 -0.12254,-0.0706 -0.24533,-0.14152 -0.3684,-0.21269 0.002,-0.004 0.004,-0.008 0.005,-0.013 0.0433,-0.0907 0.0864,-0.18163 0.12919,-0.27285 0.40589,-0.94591 0.8115,-1.89206 1.21684,-2.83848 0.41343,-1.48089 0.82658,-2.96198 1.23947,-4.44336 0.1016,-1.13009 0.20294,-2.26039 0.30402,-3.39098 0.047,-0.74031 0.0938,-1.48087 0.14031,-2.22168 -0.0777,-1.0989 -0.15564,-2.19803 -0.23386,-3.29744 -0.0933,-0.68574 -0.18682,-1.37172 -0.28063,-2.05797 -0.17903,-0.70913 -0.35832,-1.41849 -0.53788,-2.12813 -0.15565,-0.50645 -0.31155,-1.01314 -0.46772,-1.52011 -0.30376,-0.85724 -0.60778,-1.71472 -0.91206,-2.57247 -0.56101,-1.05993 -1.12227,-2.12007 -1.6838,-3.18051 -0.32715,-0.52983 -0.65454,-1.0599 -0.98221,-1.59025 -0.32715,-0.49085 -0.65455,-0.98195 -0.98222,-1.47332 -0.46746,-0.52983 -0.93518,-1.05991 -1.40316,-1.59026 -1.1145,-1.0989 -2.22921,-2.19802 -3.34421,-3.29744 -0.57661,-0.41289 -1.15345,-0.82604 -1.73057,-1.23946 -0.56881,-0.38171 -1.13786,-0.76368 -1.70719,-1.14592 -1.31718,-0.70133 -2.63457,-1.40289 -3.95225,-2.10474 -0.70133,-0.27258 -1.4029,-0.54541 -2.10474,-0.81852 -1.39514,-0.36612 -2.79048,-0.73249 -4.18611,-1.09914 -0.74031,-0.0933 -1.48086,-0.18683 -2.22168,-0.28063 -0.77929,-0.0387 -1.55881,-0.0777 -2.33861,-0.11693 -0.47126,0.014 -0.94277,0.0278 -1.41455,0.0413 2.6e-4,0.009 5.3e-4,0.0171 2.4e-4,0.0253 z" />
    <path
       style="fill:#ff4500;fill-opacity:1;stroke:#ff4500;stroke-width:0.265;stroke-linecap:square;stroke-linejoin:miter;stroke-miterlimit:4;stroke-dasharray:none;stroke-opacity:1"
       d="m 107.0703,194.48271 c 0,0 0,40.17596 0,40.17596 -0.85331,0.0163 -1.70687,0.0326 -2.70423,0.0163 -0.99735,-0.0163 -2.13869,-0.0652 -3.66597,-0.20655 -1.527278,-0.14133 -3.440377,-0.37504 -5.152443,-0.63865 -1.712066,-0.26362 -3.222987,-0.55711 -4.742106,-0.90768 -1.519119,-0.35058 -3.046339,-0.7582 -4.035526,-1.03268 -0.989186,-0.27448 -1.440286,-0.41579 -2.791576,-0.91195 -1.35129,-0.49616 -3.602671,-1.34712 -5.73531,-2.27225 -2.13264,-0.92513 -4.146422,-1.92433 -6.313988,-3.15418 -2.167565,-1.22984 -4.488798,-2.69022 -6.633292,-4.22752 -2.144494,-1.5373 -4.112154,-3.1514 -5.710911,-4.58878 -1.598758,-1.43737 -2.828546,-2.6979 -4.273579,-4.4043 -1.445032,-1.70641 -3.105249,-3.85854 -4.873114,-6.30283 -1.767866,-2.44428 -3.643289,-5.18055 -4.888468,-7.10215 -1.24518,-1.92161 -1.860073,-3.02842 -2.767041,-5.27286 -0.906969,-2.24445 -2.106013,-5.62637 -3.089855,-8.7778 -0.983842,-3.15142 -1.752461,-6.07217 -2.228982,-9.4388 -0.476521,-3.36664 -0.66099,-7.17898 -0.75322,-10.1613 -0.09223,-2.98231 -0.09223,-5.13444 0.307489,-8.2551 0.399718,-3.12067 1.199083,-7.20972 1.906239,-10.11514 0.707156,-2.90542 1.322052,-4.62714 2.27517,-6.9638 0.953117,-2.33666 2.244394,-5.28815 2.911646,-6.74928 0.667253,-1.46113 0.710854,-1.43174 6.464066,1.89201 5.753212,3.32376 17.215552,9.94154 23.008225,13.28595 5.792673,3.3444 5.915475,3.4153 5.976237,3.45292 0.06076,0.0376 0.05916,0.0418 0.03676,0.0895 -0.02241,0.0478 -0.06547,0.13872 -0.289811,0.65727 -0.224342,0.51856 -0.629951,1.46471 -1.039342,2.67834 -0.409391,1.21363 -0.822539,2.69472 -1.079802,4.00042 -0.257263,1.30571 -0.358601,2.43601 -0.432659,3.37145 -0.07406,0.93545 -0.120828,1.67601 -0.105253,2.59585 0.01558,0.91983 0.09353,2.01896 0.179266,2.91153 0.08574,0.89257 0.179281,1.57855 0.315682,2.27623 0.136401,0.69768 0.31569,1.40704 0.483283,2.01509 0.167592,0.60804 0.323495,1.11473 0.553453,1.79683 0.229958,0.68211 0.533975,1.53959 0.966596,2.49843 0.432621,0.95884 0.993874,2.01898 1.438202,2.81412 0.444328,0.79514 0.771722,1.3252 1.099125,1.83581 0.327402,0.5106 0.654804,1.0017 1.052348,1.51231 0.397544,0.51061 0.865261,1.0407 1.656489,1.85533 0.791229,0.81464 1.905939,1.91376 2.751727,2.66994 0.845788,0.75618 1.422632,1.16932 1.995594,1.56689 0.572962,0.39757 1.142014,0.77954 2.085264,1.32134 0.94325,0.54181 2.260637,1.24337 3.270142,1.73061 1.009504,0.48723 1.711072,0.76007 2.759566,1.0797 1.048494,0.31964 2.443833,0.68601 3.511813,0.91599 1.06798,0.22999 1.80853,0.32353 2.56859,0.3898 0.76007,0.0663 1.53959,0.10525 2.16513,0.11787 0.62554,0.0126 1.09705,-0.001 1.33289,-0.0125 0.23584,-0.0114 0.23577,-0.0195 0.23573,-0.0236 -4e-5,-0.004 -2.4e-4,-0.004 -2.4e-4,-0.004 z"
       id="path10678"
       inkscape:path-effect="#path-effect10682"
       inkscape:original-d="m 107.0703,194.48271 v 40.17596 c 0,0 -1.70688,0.0323 -2.55992,0.0489 -1.14165,-0.0492 -2.28299,-0.0981 -3.42409,-0.14674 -1.91344,-0.23398 -3.82654,-0.46768 -5.73942,-0.70113 -1.51124,-0.29376 -3.02216,-0.58725 -4.53284,-0.88048 -1.52755,-0.4079 -3.05477,-0.81552 -4.58175,-1.22288 -0.45139,-0.14158 -0.90249,-0.28289 -1.35333,-0.42394 -2.25174,-0.85125 -4.50312,-1.70221 -6.75428,-2.55293 -2.01412,-0.9995 -4.0279,-1.99871 -6.04146,-2.99767 -2.32158,-1.46069 -4.64281,-2.92107 -6.96382,-4.3812 -1.968,-1.61443 -3.93566,-3.22853 -5.9031,-4.8424 -1.2301,-1.26085 -2.45989,-2.52138 -3.68944,-3.78167 -1.66055,-2.15249 -3.32077,-4.30462 -4.98075,-6.45653 -1.87577,-2.73665 -3.75119,-5.47292 -5.6264,-8.209 -0.61518,-1.10712 -1.23007,-2.21393 -1.84472,-3.3205 -1.19935,-3.38232 -2.3984,-6.76424 -3.5972,-10.14596 -0.76891,-2.92113 -1.53753,-5.84188 -2.305901,-8.76242 -0.18474,-3.81277 -0.36921,-7.62511 -0.55342,-11.43727 -2.6e-4,-2.15248 -2.6e-4,-4.30461 0,-6.45652 0.79913,-4.08948 1.598501,-8.17853 2.398141,-12.26739 0.61465,-1.72204 1.22955,-3.44375 1.84472,-5.16522 1.29106,-2.95188 2.58234,-5.90337 3.87391,-8.85466 0.0433,0.0291 0.0869,0.0585 0.13081,0.0882 11.46252,6.61778 22.92486,13.23557 34.38768,19.85375 0.12254,0.0706 0.24533,0.14152 0.3684,0.21269 -0.002,0.004 -0.004,0.008 -0.005,0.013 -0.0433,0.0907 -0.0864,0.18163 -0.12919,0.27285 -0.40589,0.94591 -0.8115,1.89206 -1.21684,2.83848 -0.41343,1.48089 -0.82658,2.96198 -1.23947,4.44336 -0.1016,1.13009 -0.20294,2.26039 -0.30402,3.39098 -0.047,0.74031 -0.0938,1.48087 -0.14031,2.22168 0.0777,1.0989 0.15564,2.19803 0.23386,3.29744 0.0933,0.68574 0.18682,1.37172 0.28063,2.05797 0.17903,0.70913 0.35832,1.41849 0.53788,2.12813 0.15565,0.50645 0.31155,1.01314 0.46772,1.52011 0.30376,0.85724 0.60778,1.71472 0.91206,2.57247 0.56101,1.05993 1.12227,2.12007 1.6838,3.18051 0.32715,0.52983 0.65454,1.0599 0.98221,1.59025 0.32715,0.49085 0.65455,0.98195 0.98222,1.47332 0.46746,0.52983 0.93518,1.05991 1.40316,1.59026 1.1145,1.0989 2.22921,2.19802 3.34421,3.29744 0.57661,0.41289 1.15345,0.82604 1.73057,1.23946 0.56881,0.38171 1.13786,0.76368 1.70719,1.14592 1.31718,0.70133 2.63457,1.40289 3.95225,2.10474 0.70133,0.27258 1.4029,0.54541 2.10474,0.81852 1.39514,0.36612 2.79048,0.73249 4.18611,1.09914 0.74031,0.0933 1.48086,0.18683 2.22168,0.28063 0.77929,0.0387 1.55881,0.0777 2.33861,0.11693 0.47126,-0.014 0.94277,-0.0278 1.41455,-0.0413 -2.6e-4,-0.009 -5.3e-4,-0.0171 -2.4e-4,-0.0253 z" />
    <path
       style="fill:#008000;fill-opacity:1;stroke:#d3d3d3;stroke-width:0.264583px;stroke-linecap:butt;stroke-linejoin:miter;stroke-opacity:1"
       d="M 79.809366,151.85523 C 68.195437,145.14375 56.581202,138.43209 50.77666,135.06797 c -5.804542,-3.36413 -5.79904,-3.38063 -5.75632,-3.46472 0.04272,-0.0841 0.122646,-0.23567 0.417554,-0.75658 0.294907,-0.52092 0.804769,-1.41111 1.278076,-2.20509 0.473306,-0.79398 0.91002,-1.49169 1.440208,-2.27905 0.530189,-0.78737 1.153805,-1.66433 1.699485,-2.42828 0.54568,-0.76396 1.013392,-1.41486 1.818282,-2.41269 0.80489,-0.99783 1.946886,-2.3425 2.778629,-3.29815 0.831742,-0.95564 1.353168,-1.52219 1.928093,-2.11967 0.574925,-0.59749 1.203301,-1.22586 2.203777,-2.14641 1.000477,-0.92055 2.372977,-2.1332 3.480936,-3.07028 1.107959,-0.93708 1.951305,-1.59852 2.808464,-2.23243 0.857159,-0.63391 1.728059,-1.24023 2.598992,-1.83004 0.870933,-0.58981 1.741835,-1.16306 2.670657,-1.72531 0.928823,-0.56225 1.915476,-1.11345 2.954532,-1.67019 1.039056,-0.55673 2.130442,-1.11896 2.677989,-1.39503 0.547548,-0.27608 0.551166,-0.26648 0.554602,-0.25882 0.0034,0.008 0.0068,0.0137 3.047719,5.95657 3.040951,5.94291 9.119354,17.82239 12.168259,23.78432 3.048906,5.96193 3.068202,6.00603 3.074043,6.03028 0.0058,0.0242 -0.0018,0.0291 -0.03278,0.0433 -0.03096,0.0141 -0.08538,0.0375 -0.773083,0.38894 -0.687707,0.35139 -2.008596,1.0307 -2.934132,1.57306 -0.925536,0.54236 -1.455614,0.94771 -1.974015,1.35698 -0.518402,0.40926 -1.025087,0.8224 -1.625342,1.32521 -0.600255,0.50281 -1.294025,1.09524 -1.905983,1.68382 -0.611958,0.58857 -1.142032,1.17321 -1.718908,1.906 -0.576875,0.7328 -1.200492,1.61366 -1.696479,2.35033 -0.495987,0.73668 -0.864312,1.32912 -1.098179,1.71987 -0.233866,0.39076 -0.333253,0.57979 -0.396028,0.69603 -0.06278,0.11623 -0.08897,0.15972 -0.133422,0.24282 -0.04446,0.0831 -0.107153,0.20573 -0.151251,0.29393 -0.0441,0.0882 -0.06959,0.14194 -0.101627,0.20497 -0.03204,0.063 -0.07062,0.13539 -0.113003,0.21808 -0.04238,0.0827 -0.08853,0.1757 -0.115339,0.22837 -0.0268,0.0527 -0.03423,0.065 -0.04164,0.0772 0,0 0,0 0,0"
       id="path13494"
       inkscape:path-effect="#path-effect13496"
       inkscape:original-d="m 79.809366,151.85523 c -11.613975,-6.7114 -23.228215,-13.42305 -34.84272,-20.13498 0.0058,-0.0163 0.0113,-0.0328 0.01654,-0.0496 0.08019,-0.15132 0.160118,-0.3029 0.239778,-0.45475 0.510149,-0.88997 1.020014,-1.78016 1.529623,-2.67064 0.436999,-0.69747 0.873715,-1.39517 1.310174,-2.09316 0.623906,-0.87673 1.247521,-1.75369 1.870887,-2.63093 0.467995,-0.65066 0.935707,-1.30156 1.403165,-1.95274 1.142307,-1.34446 2.284304,-2.68913 3.426061,-4.0341 0.521716,-0.56631 1.043146,-1.13285 1.564322,-1.69968 0.628663,-0.62813 1.257036,-1.25651 1.885156,-1.88516 1.372817,-1.21243 2.745317,-2.42508 4.117578,-3.63802 0.84364,-0.6612 1.686984,-1.32265 2.530079,-1.98437 0.871201,-0.60609 1.742103,-1.21241 2.61276,-1.81901 0.871201,-0.57301 1.742104,-1.14626 2.61276,-1.71979 0.98696,-0.55097 1.973615,-1.10217 2.960026,-1.65365 1.091692,-0.56198 2.183077,-1.12421 3.274219,-1.68672 0.0039,0.01 0.0075,0.0196 0.0109,0.0289 0.0035,0.006 0.0068,0.012 0.0098,0.0176 6.078913,11.88023 12.157318,23.75971 18.23558,35.63917 0.01955,0.0444 0.03885,0.0885 0.05788,0.13229 -0.0073,0.005 -0.0149,0.01 -0.02273,0.0145 -0.05417,0.0237 -0.108601,0.0471 -0.163298,0.0703 -1.320678,0.67961 -2.641568,1.35892 -3.962749,2.03798 -0.529831,0.40563 -1.059905,0.81099 -1.590254,1.21608 -0.506445,0.41343 -1.013132,0.82657 -1.520095,1.23946 -0.693536,0.59273 -1.387308,1.18516 -2.081361,1.77734 -0.52983,0.58493 -1.059905,1.16957 -1.590254,1.75396 -0.623377,0.88116 -1.246992,1.76202 -1.870887,2.64263 -0.368073,0.59272 -0.736396,1.18516 -1.104993,1.77734 -0.09913,0.18931 -0.198517,0.37834 -0.298172,0.56711 -0.02593,0.0437 -0.05211,0.0872 -0.07856,0.13046 -0.06244,0.12291 -0.125135,0.24555 -0.188101,0.36793 -0.02524,0.054 -0.05072,0.10775 -0.07648,0.16123 -0.03832,0.0726 -0.0769,0.14496 -0.115755,0.21704 -0.0459,0.0933 -0.09206,0.1863 -0.138491,0.27906 -0.0072,0.0126 -0.01463,0.0249 -0.02233,0.037 0,0 2.65e-4,2.7e-4 0,0" />
    <path
       style="fill:#f5deb3;fill-opacity:1;stroke:#f5deb3;stroke-width:0.264583px;stroke-linecap:butt;stroke-linejoin:miter;stroke-opacity:1"
       d="m 107.30939,194.46704 c 0.23908,-0.0157 0.71701,-0.047 1.26195,-0.09 0.54493,-0.0429 1.15686,-0.0975 1.96173,-0.21446 0.80487,-0.11694 1.80265,-0.29623 2.77706,-0.51451 0.97441,-0.21828 1.92543,-0.47552 2.87646,-0.79514 0.95102,-0.31961 1.90203,-0.70157 2.93491,-1.20438 1.03287,-0.50281 2.14759,-1.12642 3.17656,-1.76954 1.02898,-0.64312 1.9722,-1.30571 2.88814,-2.03847 0.91595,-0.73276 1.8046,-1.53567 2.56464,-2.28012 0.76005,-0.74445 1.39145,-1.43043 2.00728,-2.20605 0.61583,-0.77563 1.21606,-1.6409 1.80851,-2.58803 0.59244,-0.94713 1.17709,-1.9761 1.49294,-2.46713 0.31585,-0.49104 0.36265,-0.44424 6.14695,2.92339 5.7843,3.36763 17.30561,10.05591 23.07268,13.40623 5.76706,3.35032 5.77977,3.36251 5.78385,3.3719 0.004,0.009 3.5e-4,0.0154 -0.11701,0.22852 -0.11737,0.21307 -0.3483,0.63304 -0.70056,1.23961 -0.35225,0.60658 -0.82581,1.39974 -1.22533,2.04773 -0.39951,0.64799 -0.72496,1.15078 -1.10888,1.72959 -0.38393,0.57882 -0.8263,1.23361 -1.38547,2.02116 -0.55916,0.78755 -1.23509,1.70783 -1.84591,2.49043 -0.61081,0.7826 -1.15651,1.42751 -1.77938,2.14685 -0.62288,0.71934 -1.32291,1.51307 -2.15249,2.40054 -0.82959,0.88746 -1.78868,1.8686 -2.56314,2.64582 -0.77446,0.77721 -1.36425,1.35046 -2.12217,2.02019 -0.75792,0.66972 -1.68394,1.43589 -2.88284,2.36746 -1.1989,0.93156 -2.67061,2.02845 -4.24709,3.11711 -1.57649,1.08865 -3.25766,2.16901 -4.94989,3.12813 -1.69223,0.95912 -3.39545,1.79695 -5.08217,2.57968 -1.68673,0.78273 -3.35688,1.51032 -4.98847,2.13596 -1.63159,0.62563 -3.22458,1.14928 -4.86169,1.61231 -1.63711,0.46303 -3.31828,0.86541 -4.37111,1.10795 -1.05282,0.24254 -1.47724,0.32522 -2.62102,0.51264 -1.14379,0.18742 -3.00686,0.47955 -4.54199,0.66697 -1.53513,0.18742 -2.74227,0.2701 -3.9286,0.32919 -1.18634,0.0591 -2.35181,0.0946 -2.93418,0.0747 -0.58237,-0.0198 -0.58137,-0.0953 -0.58137,-6.7914 0,-6.69613 -10e-4,-20.0124 -6.6e-4,-26.65659 3.4e-4,-6.64419 0.002,-6.61607 0.002,-6.6161 0,-3e-5 -0.002,-0.0281 -0.003,-0.0423 -8.4e-4,-0.0142 -8.3e-4,-0.0142 0.23826,-0.0299 z"
       id="path15375"
       inkscape:path-effect="#path-effect15377"
       inkscape:original-d="m 107.0703,194.48271 c 0.47819,-0.0311 0.95612,-0.0624 1.43379,-0.094 0.61221,-0.0543 1.22414,-0.10887 1.83581,-0.16371 0.99809,-0.17903 1.99587,-0.35832 2.99342,-0.53788 0.95131,-0.25698 1.90233,-0.51422 2.8531,-0.77174 0.95132,-0.38171 1.90233,-0.76368 2.8531,-1.14591 1.11503,-0.62338 2.22974,-1.247 3.34421,-1.87089 0.94352,-0.66236 1.88674,-1.32495 2.82972,-1.98782 0.88895,-0.80267 1.7776,-1.60558 2.66601,-2.40877 0.6317,-0.68574 1.26311,-1.37171 1.89427,-2.05797 0.60052,-0.86504 1.20075,-1.73031 1.80073,-2.59586 0.58493,-1.02874 1.16957,-2.05771 1.75396,-3.08696 0.047,0.047 0.0938,0.0938 0.14031,0.14032 11.52204,6.68882 23.04336,13.3771 34.56463,20.06526 0.0129,0.0124 0.0256,0.0246 0.038,0.0365 -0.004,0.007 -0.008,0.0129 -0.0117,0.019 -0.23067,0.42024 -0.46161,0.84021 -0.69281,1.25992 -0.47331,0.79346 -0.94687,1.58662 -1.42071,2.37954 -0.32519,0.50307 -0.65064,1.00586 -0.97636,1.5084 -0.44214,0.65509 -0.88451,1.30988 -1.32716,1.96443 -0.67569,0.92057 -1.35161,1.84085 -2.02781,2.76087 -0.54545,0.6452 -1.09114,1.29011 -1.63711,1.93477 -0.69979,0.79403 -1.39982,1.58776 -2.10013,2.38125 -0.95887,0.98145 -1.91796,1.96259 -2.87734,2.94349 -0.58955,0.57354 -1.17934,1.14679 -1.7694,1.71979 -0.9258,0.76647 -1.85182,1.53264 -2.77813,2.29857 -1.47151,1.0972 -2.94322,2.1941 -4.41523,3.29075 -1.68098,1.08067 -3.36215,2.16103 -5.04362,3.24115 -1.70303,0.83813 -3.40625,1.67596 -5.10977,2.51354 -1.66995,0.72788 -3.3401,1.45547 -5.01055,2.18281 -1.59277,0.52393 -3.18576,1.04758 -4.77903,1.57097 -1.68098,0.40266 -3.36215,0.80504 -5.04362,1.20716 -0.42418,0.083 -0.84861,0.16563 -1.27331,0.24805 -1.86288,0.29241 -3.72595,0.58455 -5.58932,0.87643 -1.20692,0.0829 -2.41406,0.16563 -3.62149,0.24804 -1.16525,0.0358 -2.33072,0.0712 -3.49647,0.10645 0.001,-0.0752 0.002,-0.15062 0.003,-0.22634 -8e-4,-13.31654 -0.002,-26.63281 -0.003,-39.94961 0.002,0.0284 0.004,0.0565 0.005,0.0844 -0.002,-0.0279 -0.003,-0.056 -0.005,-0.0844 z" />
    <path
       style="fill:none;stroke:#666666;stroke-width:2;stroke-linecap:butt;stroke-linejoin:miter;stroke-miterlimit:4;stroke-dasharray:none;stroke-opacity:1"
       d="m 91.222313,116.16635 h 8.895727"
       id="path1603-7-0" />
    <path
       style="fill:none;stroke:#666666;stroke-width:2;stroke-linecap:butt;stroke-linejoin:miter;stroke-miterlimit:4;stroke-dasharray:none;stroke-opacity:1"
       d="m 141.27518,140.62406 h 8.89573"
       id="path1603-7-0-3" />
    <path
       style="fill:none;stroke:#666666;stroke-width:2;stroke-linecap:butt;stroke-linejoin:miter;stroke-miterlimit:4;stroke-dasharray:none;stroke-opacity:1"
       d="m 127.24353,208.16307 h 8.89573"
       id="path1603-7-0-8" />
    <path
       style="fill:none;stroke:#ffffff;stroke-width:2;stroke-linecap:butt;stroke-linejoin:miter;stroke-miterlimit:4;stroke-dasharray:none;stroke-opacity:1"
       d="m 60.598462,189.98888 h 8.895729"
       id="path1603-7-0-7" />
    <path
       style="fill:none;stroke:#ffffff;stroke-width:2;stroke-linecap:butt;stroke-linejoin:miter;stroke-miterlimit:4;stroke-dasharray:none;stroke-opacity:1"
       d="M 67.953611,129.39874 H 76.84934"
       id="path1603-7-0-6" />
  </g>
</svg>
