<?xml version="1.0" encoding="UTF-8" standalone="no"?>
<svg
   id="svg"
   version="1.1"
   width="525.96747"
   height="439.69763"
   viewBox="0 0 525.96747 439.69763"
   sodipodi:docname="image2vector.svg"
   inkscape:version="1.1 (c68e22c387, 2021-05-23)"
   xmlns:inkscape="http://www.inkscape.org/namespaces/inkscape"
   xmlns:sodipodi="http://sodipodi.sourceforge.net/DTD/sodipodi-0.dtd"
   xmlns="http://www.w3.org/2000/svg"
   xmlns:svg="http://www.w3.org/2000/svg">
  <defs
     id="defs931" />
  <sodipodi:namedview
     id="namedview929"
     pagecolor="#ffffff"
     bordercolor="#666666"
     borderopacity="1.0"
     inkscape:pageshadow="2"
     inkscape:pageopacity="0.0"
     inkscape:pagecheckerboard="0"
     showgrid="false"
     inkscape:zoom="128"
     inkscape:cx="199.79687"
     inkscape:cy="250.60156"
     inkscape:window-width="2160"
     inkscape:window-height="1334"
     inkscape:window-x="-11"
     inkscape:window-y="-11"
     inkscape:window-maximized="1"
     inkscape:current-layer="svg" />
  <path
     id="path0"
     d="m 0,270.10106 v 129.8 h 200 200 v -129.8 -129.8 h -35.934 -35.933 l -1.567,2.291 c -3.122,4.568 -7.725,10.022 -13.072,15.494 -7.66544,9.72561 -11.41436,5.66572 11.106,6.415 v 0 0 l -0.025,46.997 0.228,47.203 c 8.08891,-0.20749 16.15474,0.0443 24.24262,0.0629 9.11035,0.0209 18.24275,-0.17113 27.35438,-0.0629 l 0.0283,10.8 c 0.064,6.05 0.2987,11.585 0.1697,12.3 l -0.198,0.1 -25.9996,-0.0467 -25.6004,0.0467 -0.073,47.9 0.073,46.5 -11.1779,0.003 c -6.27,0.062 -11.5271,0.11736 -12.0221,-0.003 -0.3,-0.0733 3.30072,0.0102 0,0 l -0.216,-17.8 -0.234,-17.8 h -44.946 -44.196 l -0.104,17.9 -0.104,17.9 H 117.6 23.4 v -106.2 -106.2 l 85.049,-0.2 85.05,-0.2 -6.25,-6.439 c -5.763,-5.938 -7.849,-8.404 -12.401,-14.661 l -1.673,-2.3 H 86.587 0 v 129.8 m 200.4,-60.879 -0.3867,39.50245 c -0.23193,0.0728 -0.008,0.0697 -0.0857,0.0674 -0.30565,-0.009 -2.71238,0.0371 -2.65369,0.18803 0.20843,0.53605 0.7986,1.86452 0.8479,2.14449 0.13236,0.75178 2.89215,0.62621 6.09607,4.63195 0.728,1.043 2.08107,2.5627 2.22507,2.9477 0.248,0.661 2.92804,-0.403 47.14404,-0.403 l 47.81296,0.2 0.18754,-43.74275 0.2125,-44.88725 -26.101,25.731 c -13.586,13.585 -24.88,24.699 -25.099,24.699 -0.219,0 -11.603,-11.204 -25.299,-24.899 l -24.901,-24.899 v 38.719 m 11.6,90.479 -0.4,17.403 44.51161,0.0809 45.28839,-0.28388 0.0607,-17.11161 -0.27566,-17.88839 H 255.8 211.6 l 0.4,17.8"
     stroke="none"
     fill="#04b87e"
     fill-rule="evenodd"
     sodipodi:nodetypes="cccccccccccccccscccccccccccccccccccccccccccccccsssccsccccscccccccccccc" />
  <path
     id="path1"
     d="m 244.4,52.749061 c -26.627,5.902 -40.002,31.088 -29.206,54.993999 6.76,14.967 26.674,25.807 40.76,22.186 0.795,-0.204 2.526,-0.593 3.846,-0.864 1.32,-0.271 2.571,-0.644 2.78,-0.828 0.209,-0.185 0.783,-0.336 1.276,-0.336 0.493,0 1.008,-0.18 1.144,-0.4 0.136,-0.22 0.597,-0.4 1.024,-0.4 0.427,0 0.776,-0.18 0.776,-0.4 0,-0.22 0.283,-0.4 0.628,-0.4 0.345,0 1.413,-0.54 2.372,-1.2 0.959,-0.66 1.937,-1.2 2.172,-1.2 0.235,0 0.428,-0.141 0.428,-0.314 0,-0.172 0.543,-0.634 1.207,-1.026 4.093,-2.419 10.469,-10.369 12.397,-15.46 0.292,-0.77 0.647,-1.58 0.791,-1.8 0.143,-0.22 0.473,-1.165 0.733,-2.1 2.187,-7.876999 2.429,-11.259999 1.293,-18.099999 -1.65,-9.934 -7.009,-18.955 -14.621,-24.607 -0.88,-0.654 -1.69,-1.279 -1.8,-1.391 -0.558,-0.565 -5.455,-3.071 -7.9,-4.044 -0.495,-0.197 -1.305,-0.524 -1.8,-0.728 -0.922,-0.379 -1.806,-0.59 -5.3,-1.267 -2.983,-0.577 -10.945,-0.77 -13,-0.315 m -157,111.510999 11.2,0.241 0.104,17.379 c 0.08,13.293 0.221,17.453 0.6,17.694 0.867,0.55 50.462,0.401 51.016,-0.153 0.359,-0.359 0.48,-4.862 0.48,-17.8 v -17.32 h -20.534 c -11.294,0 -28.079,-0.063 -37.3,-0.141 -12.059,-0.101 -13.622,-0.073 -5.566,0.1 m 69.3,-0.06 c 3.135,0.068 8.265,0.068 11.4,0 3.135,-0.067 0.57,-0.123 -5.7,-0.123 -6.27,0 -8.835,0.056 -5.7,0.123 m 27.19,0.008 -9.91,0.107 0.11,21.898 0.11,21.897 2.165,3.396 c 1.191,1.867 3.783,5.915 5.76,8.995 1.976,3.08 4.807,7.49 6.289,9.8 1.482,2.31 4.696,7.335 7.141,11.167 l 4.445,6.967 v -38.867 c 0,-21.377 0.123,-38.867 0.274,-38.867 0.151,0 0.736,0.405 1.3,0.899 0.564,0.494 -0.684,-0.861 -2.774,-3.011 -4.786,-4.925 -3.36,-4.506 -14.91,-4.381 m 117.71,49.944 0.2,-44.281 2.895,-2.777 2.894,-2.777 M 23.6,182.10406 v 17.803 l 25.7,-0.103 25.7,-0.103 0.2,-17.7 0.2,-17.7 H 49.5 23.6 v 17.803 m 0,117.594 v 76.603 h 25.801 25.801 l -0.101,-76.5 -0.101,-76.5 -25.7,-0.103 -25.7,-0.103 v 76.603 m 75.698,-76.266 c -0.398,0.253 -0.48,9.898 -0.4,46.894 l 0.102,46.575 h 44.6 44.6 l 0.103,-21.498 0.104,-21.498 -2.545,-3.902 c -2.857,-4.381 -7.728,-11.994 -14.27,-22.302 -1.396,-2.2 -3.527,-5.53 -4.735,-7.4 -1.209,-1.87 -4.076,-6.37 -6.372,-10 -2.296,-3.63 -4.38,-6.732 -4.63,-6.894 -0.619,-0.4 -55.926,-0.376 -56.557,0.025 m 101.062,25.869 c 1.39772,2.41922 1.34363,1.48765 0,0 m 4.317,7.031 c 3.62493,5.16615 -3.59808,-6.29871 0,0 M 98.8,358.50106 v 17.8 h 44.8 44.8 v -17.8 -17.8 H 143.6 98.8 v 17.8 m 202.584,0 c 0,9.9 0.052,13.893 0.116,8.873 0.063,-5.02 0.063,-13.12 0,-18 -0.064,-4.88 -0.116,-0.773 -0.116,9.127"
     stroke="none"
     fill="#bfe6a7"
     fill-rule="evenodd"
     sodipodi:nodetypes="cccscsssssssscccccccscccccccsscsccccscccccccsccsssccccccccccccccccccccccccccccccccccsccccccccccccccccccc" />
  <path
     id="path2"
     d="m 235.7,0.17406055 c -1.375,0.091 -2.5,0.337 -2.5,0.546 0,0.21 -0.9,0.38100005 -2,0.38100005 -1.1,0 -2,0.1799999 -2,0.3999999 0,0.22 -0.619,0.4 -1.376,0.4 -0.757,0 -1.488,0.1800001 -1.624,0.4000001 -0.136,0.22 -0.766,0.3999999 -1.4,0.3999999 -0.634,0 -1.264,0.18 -1.4,0.4 -0.136,0.2200001 -0.777,0.4 -1.424,0.4 -0.647,0 -1.176,0.18 -1.176,0.4 0,0.22 -0.439,0.4 -0.976,0.4 -0.537,0 -1.088,0.18 -1.224,0.4 -0.136,0.22 -0.597,0.4000001 -1.024,0.4000001 -0.427,0 -0.776,0.1799999 -0.776,0.4 0,0.22 -0.54,0.4 -1.2,0.4 -0.66,0 -1.2,0.18 -1.2,0.4 0,0.22 -0.36,0.4 -0.8,0.4 -0.44,0 -0.8,0.18 -0.8,0.4 0,0.22 -0.36,0.4 -0.8,0.4 -0.44,0 -0.8,0.16 -0.8,0.355 0,0.196 -0.63,0.474 -1.4,0.619 -0.77,0.144 -1.4,0.434 -1.4,0.644 0,0.21 -0.36,0.382 -0.8,0.382 -0.44,0 -0.8,0.18 -0.8,0.4 0,0.2200004 -0.36,0.4000004 -0.8,0.4000004 -0.44,0 -0.8,0.159 -0.8,0.353 0,0.195 -0.315,0.454 -0.7,0.576 -0.834,0.264 -2.867,1.479 -3.59,2.145 -0.283,0.26 -0.874,0.588 -1.312,0.727 -0.439,0.139 -0.798,0.421 -0.798,0.626 0,0.205 -0.27,0.373 -0.6,0.373 -0.33,0 -0.6,0.18 -0.6,0.4 0,0.22 -0.23,0.4 -0.512,0.4 -0.281,0 -0.771,0.36 -1.088,0.8 -0.317,0.44 -0.785,0.8 -1.04,0.8 -0.255,0 -1.205,0.72 -2.112,1.6 -0.907,0.88 -1.732,1.6 -1.834,1.6 -0.175,0 -2.541,2.199 -7.744,7.2 -1.259,1.21 -2.726,2.83 -3.261,3.6 -0.534,0.77 -1.255,1.67 -1.602,2 -1.047,0.994 -3.607,4.766 -3.607,5.313 0,0.281 -0.36,0.77 -0.8,1.087 -0.44,0.317 -0.8,0.857 -0.8,1.2 0,0.343 -0.36,0.883 -0.8,1.2 -0.44,0.317 -0.8,0.807 -0.8,1.088 0,0.282 -0.18,0.512 -0.4,0.512 -0.22,0 -0.4,0.36 -0.4,0.8 0,0.44 -0.18,0.8 -0.4,0.8 -0.22,0 -0.4,0.27 -0.4,0.6 0,0.33 -0.146,0.6 -0.325,0.6 -0.179,0 -0.573,0.63 -0.875,1.4 -0.302,0.77 -0.696,1.4 -0.875,1.4 -0.179,0 -0.325,0.36 -0.325,0.8 0,0.44 -0.18,0.8 -0.4,0.8 -0.22,0 -0.4,0.439 -0.4,0.976 0,0.537 -0.18,1.088 -0.4,1.224 -0.22,0.136 -0.4,0.597 -0.4,1.024 0,0.427 -0.18,0.776 -0.4,0.776 -0.22,0 -0.4,0.36 -0.4,0.8 0,0.44 -0.18,0.8 -0.4,0.8 -0.22,0 -0.4,0.439 -0.4,0.976 0,0.537 -0.18,1.088 -0.4,1.224 -0.22,0.136 -0.4,0.687 -0.4,1.224 0,0.537 -0.18,0.976 -0.4,0.976 -0.22,0 -0.4,0.54 -0.4,1.2 0,0.66 -0.18,1.2 -0.4,1.2 -0.22,0 -0.4,0.529 -0.4,1.176 0,0.647 -0.18,1.288 -0.4,1.424 -0.22,0.136 -0.4,0.867 -0.4,1.624 0,0.757 -0.162,1.376 -0.36,1.376 -0.198,0 -0.461,0.765 -0.585,1.7 -0.124,0.935 -0.419,2.87 -0.656,4.3 -1.535,9.26 -1.53,23.806 0.012,32.599999 0.231,1.32 0.522,3.076 0.647,3.903 0.125,0.826 0.387,1.602 0.584,1.723 0.197,0.122 0.358,0.83 0.358,1.574 0,0.744 0.18,1.464 0.4,1.6 0.22,0.136 0.4,0.777 0.4,1.424 0,0.647 0.18,1.176 0.4,1.176 0.22,0 0.4,0.54 0.4,1.2 0,0.66 0.18,1.2 0.4,1.2 0.22,0 0.4,0.439 0.4,0.976 0,0.537 0.18,1.088 0.4,1.224 0.22,0.136 0.4,0.687 0.4,1.224 0,0.537 0.18,0.976 0.4,0.976 0.22,0 0.4,0.36 0.4,0.8 0,0.44 0.18,0.8 0.4,0.8 0.22,0 0.4,0.36 0.4,0.8 0,0.44 0.18,0.8 0.4,0.8 0.22,0 0.4,0.342 0.4,0.759 0,0.418 0.566,1.813 1.259,3.1 0.692,1.288 1.457,2.745 1.7,3.238 0.242,0.493 0.576,0.898 0.741,0.9 0.165,0.002 0.3,0.363 0.3,0.803 0,0.44 0.18,0.8 0.4,0.8 0.22,0 0.4,0.241 0.4,0.536 0,0.294 0.423,0.728 0.939,0.963 0.516,0.236 1.811,1.66 2.878,3.165 1.066,1.505 2.934,3.996 4.152,5.536 2.389,3.023 70.831,71.473 71.294,71.303 0.154,-0.057 15.528,-15.302 34.165,-33.878 32.051,-31.947 37.149,-37.314 41.538,-43.734 0.862,-1.26 1.792,-2.291 2.067,-2.291 0.275,0 0.739,-0.54 1.031,-1.2 0.292,-0.66 0.667,-1.2 0.834,-1.2 0.166,0 0.302,-0.36 0.302,-0.8 0,-0.44 0.18,-0.8 0.4,-0.8 0.22,0 0.4,-0.345 0.4,-0.767 0,-0.421 0.135,-0.826 0.3,-0.9 0.432,-0.192 2.1,-3.505 2.1,-4.171 0,-0.309 0.18,-0.562 0.4,-0.562 0.22,0 0.4,-0.36 0.4,-0.8 0,-0.44 0.18,-0.8 0.4,-0.8 0.22,0 0.4,-0.36 0.4,-0.8 0,-0.44 0.18,-0.8 0.4,-0.8 0.22,0 0.4,-0.362 0.4,-0.805 0,-0.443 0.18,-1.163 0.4,-1.6 0.22,-0.437 0.58,-1.153 0.8,-1.59 0.22,-0.437 0.4,-1.146 0.4,-1.576 0,-0.43 0.18,-0.893 0.4,-1.029 0.22,-0.136 0.4,-0.777 0.4,-1.424 0,-0.647 0.16,-1.176 0.356,-1.176 0.34,0 0.587,-1.027 1.108,-4.6 0.128,-0.88 0.386,-1.697 0.572,-1.816 0.187,-0.119 0.462,-2.234 0.612,-4.7 0.15,-2.466 0.425,-4.484 0.612,-4.484 0.187,0 0.34,-4.769999 0.34,-10.599999 0,-5.83 -0.154,-10.6 -0.343,-10.6 -0.189,0 -0.471,-2.014 -0.626,-4.475 -0.156,-2.462 -0.452,-4.79 -0.657,-5.174 -0.206,-0.384 -0.374,-1.24 -0.374,-1.901 0,-0.662 -0.18,-1.314 -0.4,-1.45 -0.22,-0.136 -0.4,-0.777 -0.4,-1.424 0,-0.647 -0.18,-1.176 -0.4,-1.176 -0.22,0 -0.4,-0.529 -0.4,-1.176 0,-0.647 -0.18,-1.288 -0.4,-1.424 -0.22,-0.136 -0.4,-0.676 -0.4,-1.2 0,-0.524 -0.18,-1.064 -0.4,-1.2 -0.22,-0.136 -0.4,-0.597 -0.4,-1.024 0,-0.427 -0.18,-0.776 -0.4,-0.776 -0.22,0 -0.4,-0.54 -0.4,-1.2 0,-0.66 -0.18,-1.2 -0.4,-1.2 -0.22,0 -0.4,-0.36 -0.4,-0.8 0,-0.44 -0.18,-0.8 -0.4,-0.8 -0.22,0 -0.4,-0.36 -0.4,-0.8 0,-0.44 -0.18,-0.8 -0.4,-0.8 -0.22,0 -0.404,-0.405 -0.409,-0.9 -0.005,-0.495 -0.361,-1.35 -0.791,-1.9 -0.43,-0.55 -0.786,-1.225 -0.791,-1.5 -0.005,-0.275 -0.189,-0.5 -0.409,-0.5 -0.22,0 -0.4,-0.36 -0.4,-0.8 0,-0.44 -0.18,-0.8 -0.4,-0.8 -0.22,0 -0.4,-0.36 -0.4,-0.8 0,-0.44 -0.18,-0.8 -0.4,-0.8 -0.22,0 -0.4,-0.236 -0.4,-0.525 0,-0.288 -0.36,-0.911 -0.8,-1.383 -0.44,-0.472 -0.8,-1.006 -0.8,-1.187 0,-0.181 -0.36,-0.588 -0.8,-0.905 -0.44,-0.317 -0.8,-0.857 -0.8,-1.2 0,-0.343 -0.36,-0.883 -0.8,-1.2 -0.44,-0.317 -0.8,-0.878 -0.8,-1.246 0,-0.368 -0.54,-1.247 -1.2,-1.954 -0.66,-0.707 -1.2,-1.435 -1.2,-1.62 0,-0.184 -1.035,-1.415 -2.3,-2.735 -1.265,-1.32 -3.2,-3.392 -4.3,-4.604 -1.1,-1.213 -2.235,-2.213 -2.522,-2.223 -0.287,-0.01 -1.582,-1.098 -2.878,-2.418 -1.296,-1.32 -2.473,-2.4 -2.617,-2.4 -0.144,0 -0.766,-0.54 -1.383,-1.2 -0.617,-0.66 -1.32,-1.2 -1.564,-1.2 -0.244,0 -1.008,-0.54 -1.699,-1.2 -0.691,-0.66 -1.499,-1.2 -1.796,-1.2 -0.298,0 -0.541,-0.18 -0.541,-0.4 0,-0.22 -0.236,-0.4 -0.525,-0.4 -0.288,0 -0.911,-0.36 -1.383,-0.8 -0.472,-0.44 -1.136,-0.8 -1.475,-0.8 -0.339,0 -0.617,-0.18 -0.617,-0.4 0,-0.22 -0.36,-0.4 -0.8,-0.4 -0.44,0 -0.8,-0.159 -0.8,-0.353 0,-0.417 -4.157,-2.4470004 -5.011,-2.4470004 -0.324,0 -0.589,-0.18 -0.589,-0.4 0,-0.22 -0.45,-0.4000001 -1,-0.4000001 -0.55,0 -1,-0.1799999 -1,-0.4 0,-0.22 -0.36,-0.4 -0.8,-0.4 -0.44,0 -0.8,-0.18 -0.8,-0.4 0,-0.22 -0.36,-0.4 -0.8,-0.4 -0.44,0 -0.8,-0.18 -0.8,-0.4 0,-0.22 -0.54,-0.4 -1.2,-0.4 -0.66,0 -1.2,-0.18 -1.2,-0.4 0,-0.22 -0.54,-0.4 -1.2,-0.4 -0.66,0 -1.2,-0.18 -1.2,-0.4 0,-0.22 -0.54,-0.4 -1.2,-0.4 -0.66,0 -1.2,-0.18 -1.2,-0.4 0,-0.22 -0.63,-0.4 -1.4,-0.4 -0.77,0 -1.4,-0.18 -1.4,-0.4 0,-0.22 -0.72,-0.4 -1.6,-0.4 -0.88,0 -1.6,-0.18 -1.6,-0.4 0,-0.22 -0.774,-0.4 -1.72,-0.4 -0.946,0 -1.941,-0.22099995 -2.211,-0.49099995 -0.488,-0.488 -25.918,-0.835 -31.969,-0.436 M 257.4,53.064061 c 3.494,0.677 4.378,0.888 5.3,1.267 0.495,0.204 1.305,0.531 1.8,0.728 2.445,0.973 7.342,3.479 7.9,4.044 0.11,0.112 0.92,0.737 1.8,1.391 7.612,5.652 12.971,14.673 14.621,24.607 1.136,6.84 0.894,10.223 -1.293,18.099999 -0.26,0.935 -0.59,1.88 -0.733,2.1 -0.144,0.22 -0.499,1.03 -0.791,1.8 -1.928,5.091 -8.304,13.041 -12.397,15.46 -0.664,0.392 -1.207,0.854 -1.207,1.026 0,0.173 -0.193,0.314 -0.428,0.314 -0.235,0 -1.213,0.54 -2.172,1.2 -0.959,0.66 -2.027,1.2 -2.372,1.2 -0.345,0 -0.628,0.18 -0.628,0.4 0,0.22 -0.349,0.4 -0.776,0.4 -0.427,0 -0.888,0.18 -1.024,0.4 -0.136,0.22 -0.651,0.4 -1.144,0.4 -0.493,0 -1.067,0.151 -1.276,0.336 -0.209,0.184 -1.46,0.557 -2.78,0.828 -1.32,0.271 -3.051,0.66 -3.846,0.864 -14.086,3.621 -34,-7.219 -40.76,-22.186 -10.796,-23.905999 2.579,-49.091999 29.206,-54.993999 2.055,-0.455 10.017,-0.262 13,0.315"
     stroke="none"
     fill="#fb2834"
     fill-rule="evenodd" />
  <path
     id="path3"
     d="m 75.39,164.79506 c -0.104,0.278 -0.235,8.246 -0.29,17.706 l -0.1,17.2 -25.7,0.103 -25.7,0.103 v 11.594 11.594 l 25.7,0.103 25.7,0.103 0.101,76.5 0.101,76.5 H 87.001 98.8 v -17.8 -17.8 h 44.8 44.8 v 17.8 17.8 h 11.6 11.6 v -18 -18 h 44.367 c 24.402,0 44.652,0.109 45,0.243 0.564,0.216 0.633,2.177 0.633,18 v 17.757 h 11.6 11.6 v -47.2 -47.2 h 25.8 25.8 v -11.6 -11.6 h -25.798 -25.799 l -0.101,-47.1 -0.102,-47.1 -8.489,-0.108 -8.488,-0.108 -2.912,2.793 -2.911,2.793 -0.2,44.315 -0.11904,26.37635 -0.081,17.93865 -47.478,0.102 -47.479,0.101 -0.957,-1.301 c -0.526,-0.716 -1.301,-1.88 -1.721,-2.586 -3.822,-6.418 -9.712,-15.759 -21.636,-34.316 -1.98,-3.08 -4.573,-7.128 -5.764,-8.995 l -2.165,-3.396 -0.11,-21.904 -0.11,-21.905 H 162.39 150.8 v 17.32 c 0,12.938 -0.121,17.441 -0.48,17.8 -0.554,0.554 -50.149,0.703 -51.016,0.153 -0.379,-0.241 -0.52,-4.401 -0.6,-17.694 l -0.104,-17.379 -11.51,-0.106 c -8.994,-0.083 -11.552,0.004 -11.7,0.4 m 80.465,58.612 c 0.25,0.162 2.334,3.264 4.63,6.894 2.296,3.63 5.163,8.13 6.372,10 1.208,1.87 3.339,5.2 4.735,7.4 6.542,10.308 11.413,17.921 14.27,22.302 l 2.545,3.902 -0.104,21.498 -0.103,21.498 H 143.6 99 l -0.102,-46.575 c -0.08,-36.996 0.002,-46.641 0.4,-46.894 0.631,-0.401 55.938,-0.425 56.557,-0.025 m 145.549,59.394 c 0.12,0.495 0.168,8.37 0.107,17.5 l -0.111,16.6 -44.9,0.102 -44.9,0.101 v -17.601 -17.602 h 44.792 44.793 l 0.219,0.9"
     stroke="none"
     fill="#dcf0fb"
     fill-rule="evenodd"
     sodipodi:nodetypes="cscccccccccccccccccccccscscccccccccccccccccccccccccccccccssccccccsccccccccccccccccccccc" />
  <circle
     style="fill:#ffffff;fill-opacity:1;stroke-width:4.92418;stroke-linecap:square"
     id="path1035"
     cx="250.81374"
     cy="92.667786"
     r="41.229656"
     clip-path="none" />
  <path
     style="fill:none;stroke:#3c3c3c;stroke-width:3;stroke-linecap:butt;stroke-linejoin:miter;stroke-miterlimit:4;stroke-dasharray:none;stroke-opacity:1"
     d="M 54.972873,438.19762 H 345.02713"
     id="path973" />
  <g
     id="g4457"
     transform="translate(0,-20)">
    <path
       style="fill:none;stroke:#3c3c3c;stroke-width:3;stroke-linecap:butt;stroke-linejoin:miter;stroke-miterlimit:4;stroke-dasharray:none;stroke-opacity:1"
       d="m 437.72151,180.1085 h 88.24594"
       id="path973-5" />
    <rect
       style="fill:#ff0000;fill-opacity:1;stroke:none;stroke-width:3;stroke-linecap:square;stroke-miterlimit:4;stroke-dasharray:none;stroke-opacity:1"
       id="rect1340"
       width="11.754068"
       height="10.216998"
       x="420.88608"
       y="175" />
  </g>
  <g
     id="g4461"
     transform="translate(0,-15)">
    <path
       style="fill:none;stroke:#3c3c3c;stroke-width:3;stroke-linecap:butt;stroke-linejoin:miter;stroke-miterlimit:4;stroke-dasharray:none;stroke-opacity:1"
       d="m 437.72151,200.1085 h 88.24594"
       id="path1596" />
    <rect
       style="fill:#126cff;fill-opacity:1;stroke:none;stroke-width:3;stroke-linecap:square;stroke-miterlimit:4;stroke-dasharray:none;stroke-opacity:1"
       id="rect1602"
       width="11.754068"
       height="10.216998"
       x="420.88608"
       y="195" />
  </g>
  <g
     id="g4465"
     transform="translate(0,-10.000015)">
    <path
       style="fill:none;stroke:#3c3c3c;stroke-width:3;stroke-linecap:butt;stroke-linejoin:miter;stroke-miterlimit:4;stroke-dasharray:none;stroke-opacity:1"
       d="m 437.72151,220.1085 h 88.24594"
       id="path1604" />
    <rect
       style="fill:#35cd78;fill-opacity:1;stroke:none;stroke-width:3;stroke-linecap:square;stroke-miterlimit:4;stroke-dasharray:none;stroke-opacity:1"
       id="rect1610"
       width="11.754068"
       height="10.216998"
       x="420.88608"
       y="215" />
  </g>
  <g
     id="g4469"
     transform="translate(0,-5.000015)">
    <path
       style="fill:none;stroke:#3c3c3c;stroke-width:3;stroke-linecap:butt;stroke-linejoin:miter;stroke-miterlimit:4;stroke-dasharray:none;stroke-opacity:1"
       d="m 437.72151,240.1085 h 88.24594"
       id="path1612" />
    <rect
       style="fill:#ffe600;fill-opacity:1;stroke:none;stroke-width:3;stroke-linecap:square;stroke-miterlimit:4;stroke-dasharray:none;stroke-opacity:1"
       id="rect1618"
       width="11.754068"
       height="10.216998"
       x="420.88608"
       y="235" />
  </g>
  <g
     id="g4473"
     transform="translate(0,-100)">
    <path
       style="fill:none;stroke:#3c3c3c;stroke-width:3;stroke-linecap:butt;stroke-linejoin:miter;stroke-miterlimit:4;stroke-dasharray:none;stroke-opacity:1"
       d="m 437.72151,360.1085 h 88.24594"
       id="path1620" />
    <rect
       style="fill:#656565;fill-opacity:1;stroke:none;stroke-width:3;stroke-linecap:square;stroke-miterlimit:4;stroke-dasharray:none;stroke-opacity:1"
       id="rect1626"
       width="11.754068"
       height="10.216998"
       x="420.88608"
       y="355" />
  </g>
</svg>
