<?xml version="1.0" encoding="UTF-8" standalone="no"?>
<svg
   id="svg"
   version="1.1"
   width="400"
   height="400"
   viewBox="0, 0, 400,400"
   sodipodi:docname="image2vector.svg"
   inkscape:version="1.1 (c68e22c387, 2021-05-23)"
   xmlns:inkscape="http://www.inkscape.org/namespaces/inkscape"
   xmlns:sodipodi="http://sodipodi.sourceforge.net/DTD/sodipodi-0.dtd"
   xmlns="http://www.w3.org/2000/svg"
   xmlns:svg="http://www.w3.org/2000/svg">
  <defs
     id="defs931" />
  <sodipodi:namedview
     id="namedview929"
     pagecolor="#ffffff"
     bordercolor="#666666"
     borderopacity="1.0"
     inkscape:pageshadow="2"
     inkscape:pageopacity="0.0"
     inkscape:pagecheckerboard="0"
     showgrid="false"
     inkscape:zoom="2.765"
     inkscape:cx="161.30199"
     inkscape:cy="241.95298"
     inkscape:window-width="2160"
     inkscape:window-height="1334"
     inkscape:window-x="-11"
     inkscape:window-y="-11"
     inkscape:window-maximized="1"
     inkscape:current-layer="svg" />
  <g
     id="svgg"
     clip-path="none"
     mask="none">
    <path
       id="path0"
       d="M0.000 270.200 L 0.000 400.000 200.000 400.000 L 400.000 400.000 400.000 270.200 L 400.000 140.400 364.066 140.400 L 328.133 140.400 326.566 142.691 C 323.444 147.259,318.841 152.713,313.494 158.185 C 310.493 161.257,308.105 163.838,308.189 163.922 C 308.273 164.006,323.699 164.207,342.471 164.370 L 376.600 164.665 350.900 164.733 L 325.200 164.800 325.200 211.597 L 325.200 258.394 350.900 258.497 L 376.600 258.600 376.716 269.600 C 376.780 275.650,376.727 281.185,376.598 281.900 L 376.364 283.200 350.784 283.200 L 325.203 283.200 325.102 329.900 L 325.000 376.600 313.600 376.712 C 307.330 376.774,301.795 376.725,301.300 376.605 L 300.400 376.385 300.400 358.592 L 300.400 340.800 256.204 340.800 L 212.008 340.800 211.904 358.700 L 211.800 376.600 117.600 376.600 L 23.400 376.600 23.400 270.400 L 23.400 164.200 108.449 164.000 L 193.499 163.800 187.249 157.361 C 181.486 151.423,179.400 148.957,174.848 142.700 L 173.175 140.400 86.587 140.400 L 0.000 140.400 0.000 270.200 M200.400 209.321 L 200.400 248.039 202.000 250.448 C 202.880 251.773,203.600 252.936,203.600 253.032 C 203.600 253.129,204.196 254.061,204.925 255.104 C 205.653 256.147,206.368 257.315,206.512 257.700 C 206.760 258.361,209.371 258.400,253.587 258.400 L 300.400 258.400 300.400 214.701 L 300.400 171.002 275.699 195.701 C 262.113 209.286,250.819 220.400,250.600 220.400 C 250.381 220.400,238.997 209.196,225.301 195.501 L 200.400 170.602 200.400 209.321 M212.000 299.800 L 212.000 316.400 256.200 316.400 L 300.400 316.400 300.400 299.800 L 300.400 283.200 256.200 283.200 L 212.000 283.200 212.000 299.800 "
       stroke="none"
       fill="#04b87e"
       fill-rule="evenodd" />
    <path
       id="path1"
       d="M244.400 52.848 C 217.773 58.750,204.398 83.936,215.194 107.842 C 221.954 122.809,241.868 133.649,255.954 130.028 C 256.749 129.824,258.480 129.435,259.800 129.164 C 261.120 128.893,262.371 128.520,262.580 128.336 C 262.789 128.151,263.363 128.000,263.856 128.000 C 264.349 128.000,264.864 127.820,265.000 127.600 C 265.136 127.380,265.597 127.200,266.024 127.200 C 266.451 127.200,266.800 127.020,266.800 126.800 C 266.800 126.580,267.083 126.400,267.428 126.400 C 267.773 126.400,268.841 125.860,269.800 125.200 C 270.759 124.540,271.737 124.000,271.972 124.000 C 272.207 124.000,272.400 123.859,272.400 123.686 C 272.400 123.514,272.943 123.052,273.607 122.660 C 277.700 120.241,284.076 112.291,286.004 107.200 C 286.296 106.430,286.651 105.620,286.795 105.400 C 286.938 105.180,287.268 104.235,287.528 103.300 C 289.715 95.423,289.957 92.040,288.821 85.200 C 287.171 75.266,281.812 66.245,274.200 60.593 C 273.320 59.939,272.510 59.314,272.400 59.202 C 271.842 58.637,266.945 56.131,264.500 55.158 C 264.005 54.961,263.195 54.634,262.700 54.430 C 261.778 54.051,260.894 53.840,257.400 53.163 C 254.417 52.586,246.455 52.393,244.400 52.848 M87.400 164.359 L 98.600 164.600 98.704 181.979 C 98.784 195.272,98.925 199.432,99.304 199.673 C 100.171 200.223,149.766 200.074,150.320 199.520 C 150.679 199.161,150.800 194.658,150.800 181.720 L 150.800 164.400 130.266 164.400 C 118.972 164.400,102.187 164.337,92.966 164.259 C 80.907 164.158,79.344 164.186,87.400 164.359 M156.700 164.299 C 159.835 164.367,164.965 164.367,168.100 164.299 C 171.235 164.232,168.670 164.176,162.400 164.176 C 156.130 164.176,153.565 164.232,156.700 164.299 M183.890 164.307 L 173.980 164.414 174.090 186.312 L 174.200 208.209 176.365 211.605 C 177.556 213.472,180.148 217.520,182.125 220.600 C 184.101 223.680,186.932 228.090,188.414 230.400 C 189.896 232.710,193.110 237.735,195.555 241.567 L 200.000 248.534 200.000 209.667 C 200.000 188.290,200.123 170.800,200.274 170.800 C 200.425 170.800,201.010 171.205,201.574 171.699 C 202.138 172.193,200.890 170.838,198.800 168.688 C 194.014 163.763,195.440 164.182,183.890 164.307 M303.800 167.600 C 301.829 169.580,300.438 171.200,300.708 171.200 C 301.354 171.200,301.435 258.217,300.790 258.537 C 300.565 258.649,300.610 258.694,300.890 258.637 C 301.298 258.554,301.440 249.693,301.600 214.251 L 301.800 169.970 304.695 167.193 L 307.589 164.416 315.895 164.300 L 324.200 164.183 315.792 164.091 L 307.383 164.000 303.800 167.600 M23.600 182.203 L 23.600 200.006 49.300 199.903 L 75.000 199.800 75.200 182.100 L 75.400 164.400 49.500 164.400 L 23.600 164.400 23.600 182.203 M23.600 299.797 L 23.600 376.400 49.401 376.400 L 75.202 376.400 75.101 299.900 L 75.000 223.400 49.300 223.297 L 23.600 223.194 23.600 299.797 M99.298 223.531 C 98.900 223.784,98.818 233.429,98.898 270.425 L 99.000 317.000 143.600 317.000 L 188.200 317.000 188.303 295.502 L 188.407 274.004 185.862 270.102 C 183.005 265.721,178.134 258.108,171.592 247.800 C 170.196 245.600,168.065 242.270,166.857 240.400 C 165.648 238.530,162.781 234.030,160.485 230.400 C 158.189 226.770,156.105 223.668,155.855 223.506 C 155.236 223.106,99.929 223.130,99.298 223.531 M200.360 249.400 C 201.034 250.705,201.588 251.428,201.585 251.000 C 201.583 250.780,201.214 250.150,200.764 249.600 C 200.221 248.936,200.085 248.869,200.360 249.400 M204.677 256.431 C 205.075 257.108,205.656 257.873,205.968 258.131 C 206.280 258.389,206.032 257.835,205.415 256.900 C 204.120 254.937,203.609 254.612,204.677 256.431 M300.760 282.551 C 301.091 282.951,301.187 287.792,301.109 300.113 C 301.049 309.469,301.135 317.040,301.300 316.938 C 301.655 316.718,301.711 283.554,301.357 282.633 C 301.224 282.285,300.932 282.000,300.708 282.000 C 300.458 282.000,300.478 282.212,300.760 282.551 M98.800 358.600 L 98.800 376.400 143.600 376.400 L 188.400 376.400 188.400 358.600 L 188.400 340.800 143.600 340.800 L 98.800 340.800 98.800 358.600 M301.384 358.600 C 301.384 368.500,301.436 372.493,301.500 367.473 C 301.563 362.453,301.563 354.353,301.500 349.473 C 301.436 344.593,301.384 348.700,301.384 358.600 "
       stroke="none"
       fill="#bfe6a7"
       fill-rule="evenodd" />
    <path
       id="path2"
       d="M235.700 0.273 C 234.325 0.364,233.200 0.610,233.200 0.819 C 233.200 1.029,232.300 1.200,231.200 1.200 C 230.100 1.200,229.200 1.380,229.200 1.600 C 229.200 1.820,228.581 2.000,227.824 2.000 C 227.067 2.000,226.336 2.180,226.200 2.400 C 226.064 2.620,225.434 2.800,224.800 2.800 C 224.166 2.800,223.536 2.980,223.400 3.200 C 223.264 3.420,222.623 3.600,221.976 3.600 C 221.329 3.600,220.800 3.780,220.800 4.000 C 220.800 4.220,220.361 4.400,219.824 4.400 C 219.287 4.400,218.736 4.580,218.600 4.800 C 218.464 5.020,218.003 5.200,217.576 5.200 C 217.149 5.200,216.800 5.380,216.800 5.600 C 216.800 5.820,216.260 6.000,215.600 6.000 C 214.940 6.000,214.400 6.180,214.400 6.400 C 214.400 6.620,214.040 6.800,213.600 6.800 C 213.160 6.800,212.800 6.980,212.800 7.200 C 212.800 7.420,212.440 7.600,212.000 7.600 C 211.560 7.600,211.200 7.760,211.200 7.955 C 211.200 8.151,210.570 8.429,209.800 8.574 C 209.030 8.718,208.400 9.008,208.400 9.218 C 208.400 9.428,208.040 9.600,207.600 9.600 C 207.160 9.600,206.800 9.780,206.800 10.000 C 206.800 10.220,206.440 10.400,206.000 10.400 C 205.560 10.400,205.200 10.559,205.200 10.753 C 205.200 10.948,204.885 11.207,204.500 11.329 C 203.666 11.593,201.633 12.808,200.910 13.474 C 200.627 13.734,200.036 14.062,199.598 14.201 C 199.159 14.340,198.800 14.622,198.800 14.827 C 198.800 15.032,198.530 15.200,198.200 15.200 C 197.870 15.200,197.600 15.380,197.600 15.600 C 197.600 15.820,197.370 16.000,197.088 16.000 C 196.807 16.000,196.317 16.360,196.000 16.800 C 195.683 17.240,195.215 17.600,194.960 17.600 C 194.705 17.600,193.755 18.320,192.848 19.200 C 191.941 20.080,191.116 20.800,191.014 20.800 C 190.839 20.800,188.473 22.999,183.270 28.000 C 182.011 29.210,180.544 30.830,180.009 31.600 C 179.475 32.370,178.754 33.270,178.407 33.600 C 177.360 34.594,174.800 38.366,174.800 38.913 C 174.800 39.194,174.440 39.683,174.000 40.000 C 173.560 40.317,173.200 40.857,173.200 41.200 C 173.200 41.543,172.840 42.083,172.400 42.400 C 171.960 42.717,171.600 43.207,171.600 43.488 C 171.600 43.770,171.420 44.000,171.200 44.000 C 170.980 44.000,170.800 44.360,170.800 44.800 C 170.800 45.240,170.620 45.600,170.400 45.600 C 170.180 45.600,170.000 45.870,170.000 46.200 C 170.000 46.530,169.854 46.800,169.675 46.800 C 169.496 46.800,169.102 47.430,168.800 48.200 C 168.498 48.970,168.104 49.600,167.925 49.600 C 167.746 49.600,167.600 49.960,167.600 50.400 C 167.600 50.840,167.420 51.200,167.200 51.200 C 166.980 51.200,166.800 51.639,166.800 52.176 C 166.800 52.713,166.620 53.264,166.400 53.400 C 166.180 53.536,166.000 53.997,166.000 54.424 C 166.000 54.851,165.820 55.200,165.600 55.200 C 165.380 55.200,165.200 55.560,165.200 56.000 C 165.200 56.440,165.020 56.800,164.800 56.800 C 164.580 56.800,164.400 57.239,164.400 57.776 C 164.400 58.313,164.220 58.864,164.000 59.000 C 163.780 59.136,163.600 59.687,163.600 60.224 C 163.600 60.761,163.420 61.200,163.200 61.200 C 162.980 61.200,162.800 61.740,162.800 62.400 C 162.800 63.060,162.620 63.600,162.400 63.600 C 162.180 63.600,162.000 64.129,162.000 64.776 C 162.000 65.423,161.820 66.064,161.600 66.200 C 161.380 66.336,161.200 67.067,161.200 67.824 C 161.200 68.581,161.038 69.200,160.840 69.200 C 160.642 69.200,160.379 69.965,160.255 70.900 C 160.131 71.835,159.836 73.770,159.599 75.200 C 158.064 84.460,158.069 99.006,159.611 107.800 C 159.842 109.120,160.133 110.876,160.258 111.703 C 160.383 112.529,160.645 113.305,160.842 113.426 C 161.039 113.548,161.200 114.256,161.200 115.000 C 161.200 115.744,161.380 116.464,161.600 116.600 C 161.820 116.736,162.000 117.377,162.000 118.024 C 162.000 118.671,162.180 119.200,162.400 119.200 C 162.620 119.200,162.800 119.740,162.800 120.400 C 162.800 121.060,162.980 121.600,163.200 121.600 C 163.420 121.600,163.600 122.039,163.600 122.576 C 163.600 123.113,163.780 123.664,164.000 123.800 C 164.220 123.936,164.400 124.487,164.400 125.024 C 164.400 125.561,164.580 126.000,164.800 126.000 C 165.020 126.000,165.200 126.360,165.200 126.800 C 165.200 127.240,165.380 127.600,165.600 127.600 C 165.820 127.600,166.000 127.960,166.000 128.400 C 166.000 128.840,166.180 129.200,166.400 129.200 C 166.620 129.200,166.800 129.542,166.800 129.959 C 166.800 130.377,167.366 131.772,168.059 133.059 C 168.751 134.347,169.516 135.804,169.759 136.297 C 170.001 136.790,170.335 137.195,170.500 137.197 C 170.665 137.199,170.800 137.560,170.800 138.000 C 170.800 138.440,170.980 138.800,171.200 138.800 C 171.420 138.800,171.600 139.041,171.600 139.336 C 171.600 139.630,172.023 140.064,172.539 140.299 C 173.055 140.535,174.350 141.959,175.417 143.464 C 176.483 144.969,178.351 147.460,179.569 149.000 C 181.958 152.023,250.400 220.473,250.863 220.303 C 251.017 220.246,266.391 205.001,285.028 186.425 C 317.079 154.478,322.177 149.111,326.566 142.691 C 327.428 141.431,328.358 140.400,328.633 140.400 C 328.908 140.400,329.372 139.860,329.664 139.200 C 329.956 138.540,330.331 138.000,330.498 138.000 C 330.664 138.000,330.800 137.640,330.800 137.200 C 330.800 136.760,330.980 136.400,331.200 136.400 C 331.420 136.400,331.600 136.055,331.600 135.633 C 331.600 135.212,331.735 134.807,331.900 134.733 C 332.332 134.541,334.000 131.228,334.000 130.562 C 334.000 130.253,334.180 130.000,334.400 130.000 C 334.620 130.000,334.800 129.640,334.800 129.200 C 334.800 128.760,334.980 128.400,335.200 128.400 C 335.420 128.400,335.600 128.040,335.600 127.600 C 335.600 127.160,335.780 126.800,336.000 126.800 C 336.220 126.800,336.400 126.438,336.400 125.995 C 336.400 125.552,336.580 124.832,336.800 124.395 C 337.020 123.958,337.380 123.242,337.600 122.805 C 337.820 122.368,338.000 121.659,338.000 121.229 C 338.000 120.799,338.180 120.336,338.400 120.200 C 338.620 120.064,338.800 119.423,338.800 118.776 C 338.800 118.129,338.960 117.600,339.156 117.600 C 339.496 117.600,339.743 116.573,340.264 113.000 C 340.392 112.120,340.650 111.303,340.836 111.184 C 341.023 111.065,341.298 108.950,341.448 106.484 C 341.598 104.018,341.873 102.000,342.060 102.000 C 342.247 102.000,342.400 97.230,342.400 91.400 C 342.400 85.570,342.246 80.800,342.057 80.800 C 341.868 80.800,341.586 78.786,341.431 76.325 C 341.275 73.863,340.979 71.535,340.774 71.151 C 340.568 70.767,340.400 69.911,340.400 69.250 C 340.400 68.588,340.220 67.936,340.000 67.800 C 339.780 67.664,339.600 67.023,339.600 66.376 C 339.600 65.729,339.420 65.200,339.200 65.200 C 338.980 65.200,338.800 64.671,338.800 64.024 C 338.800 63.377,338.620 62.736,338.400 62.600 C 338.180 62.464,338.000 61.924,338.000 61.400 C 338.000 60.876,337.820 60.336,337.600 60.200 C 337.380 60.064,337.200 59.603,337.200 59.176 C 337.200 58.749,337.020 58.400,336.800 58.400 C 336.580 58.400,336.400 57.860,336.400 57.200 C 336.400 56.540,336.220 56.000,336.000 56.000 C 335.780 56.000,335.600 55.640,335.600 55.200 C 335.600 54.760,335.420 54.400,335.200 54.400 C 334.980 54.400,334.800 54.040,334.800 53.600 C 334.800 53.160,334.620 52.800,334.400 52.800 C 334.180 52.800,333.996 52.395,333.991 51.900 C 333.986 51.405,333.630 50.550,333.200 50.000 C 332.770 49.450,332.414 48.775,332.409 48.500 C 332.404 48.225,332.220 48.000,332.000 48.000 C 331.780 48.000,331.600 47.640,331.600 47.200 C 331.600 46.760,331.420 46.400,331.200 46.400 C 330.980 46.400,330.800 46.040,330.800 45.600 C 330.800 45.160,330.620 44.800,330.400 44.800 C 330.180 44.800,330.000 44.564,330.000 44.275 C 330.000 43.987,329.640 43.364,329.200 42.892 C 328.760 42.420,328.400 41.886,328.400 41.705 C 328.400 41.524,328.040 41.117,327.600 40.800 C 327.160 40.483,326.800 39.943,326.800 39.600 C 326.800 39.257,326.440 38.717,326.000 38.400 C 325.560 38.083,325.200 37.522,325.200 37.154 C 325.200 36.786,324.660 35.907,324.000 35.200 C 323.340 34.493,322.800 33.765,322.800 33.580 C 322.800 33.396,321.765 32.165,320.500 30.845 C 319.235 29.525,317.300 27.453,316.200 26.241 C 315.100 25.028,313.965 24.028,313.678 24.018 C 313.391 24.008,312.096 22.920,310.800 21.600 C 309.504 20.280,308.327 19.200,308.183 19.200 C 308.039 19.200,307.417 18.660,306.800 18.000 C 306.183 17.340,305.480 16.800,305.236 16.800 C 304.992 16.800,304.228 16.260,303.537 15.600 C 302.846 14.940,302.038 14.400,301.741 14.400 C 301.443 14.400,301.200 14.220,301.200 14.000 C 301.200 13.780,300.964 13.600,300.675 13.600 C 300.387 13.600,299.764 13.240,299.292 12.800 C 298.820 12.360,298.156 12.000,297.817 12.000 C 297.478 12.000,297.200 11.820,297.200 11.600 C 297.200 11.380,296.840 11.200,296.400 11.200 C 295.960 11.200,295.600 11.041,295.600 10.847 C 295.600 10.430,291.443 8.400,290.589 8.400 C 290.265 8.400,290.000 8.220,290.000 8.000 C 290.000 7.780,289.550 7.600,289.000 7.600 C 288.450 7.600,288.000 7.420,288.000 7.200 C 288.000 6.980,287.640 6.800,287.200 6.800 C 286.760 6.800,286.400 6.620,286.400 6.400 C 286.400 6.180,286.040 6.000,285.600 6.000 C 285.160 6.000,284.800 5.820,284.800 5.600 C 284.800 5.380,284.260 5.200,283.600 5.200 C 282.940 5.200,282.400 5.020,282.400 4.800 C 282.400 4.580,281.860 4.400,281.200 4.400 C 280.540 4.400,280.000 4.220,280.000 4.000 C 280.000 3.780,279.460 3.600,278.800 3.600 C 278.140 3.600,277.600 3.420,277.600 3.200 C 277.600 2.980,276.970 2.800,276.200 2.800 C 275.430 2.800,274.800 2.620,274.800 2.400 C 274.800 2.180,274.080 2.000,273.200 2.000 C 272.320 2.000,271.600 1.820,271.600 1.600 C 271.600 1.380,270.826 1.200,269.880 1.200 C 268.934 1.200,267.939 0.979,267.669 0.709 C 267.181 0.221,241.751 -0.126,235.700 0.273 M257.400 53.163 C 260.894 53.840,261.778 54.051,262.700 54.430 C 263.195 54.634,264.005 54.961,264.500 55.158 C 266.945 56.131,271.842 58.637,272.400 59.202 C 272.510 59.314,273.320 59.939,274.200 60.593 C 281.812 66.245,287.171 75.266,288.821 85.200 C 289.957 92.040,289.715 95.423,287.528 103.300 C 287.268 104.235,286.938 105.180,286.795 105.400 C 286.651 105.620,286.296 106.430,286.004 107.200 C 284.076 112.291,277.700 120.241,273.607 122.660 C 272.943 123.052,272.400 123.514,272.400 123.686 C 272.400 123.859,272.207 124.000,271.972 124.000 C 271.737 124.000,270.759 124.540,269.800 125.200 C 268.841 125.860,267.773 126.400,267.428 126.400 C 267.083 126.400,266.800 126.580,266.800 126.800 C 266.800 127.020,266.451 127.200,266.024 127.200 C 265.597 127.200,265.136 127.380,265.000 127.600 C 264.864 127.820,264.349 128.000,263.856 128.000 C 263.363 128.000,262.789 128.151,262.580 128.336 C 262.371 128.520,261.120 128.893,259.800 129.164 C 258.480 129.435,256.749 129.824,255.954 130.028 C 241.868 133.649,221.954 122.809,215.194 107.842 C 204.398 83.936,217.773 58.750,244.400 52.848 C 246.455 52.393,254.417 52.586,257.400 53.163 "
       stroke="none"
       fill="#fb2834"
       fill-rule="evenodd" />
    <path
       id="path3"
       d="M75.390 164.894 C 75.286 165.172,75.155 173.140,75.100 182.600 L 75.000 199.800 49.300 199.903 L 23.600 200.006 23.600 211.600 L 23.600 223.194 49.300 223.297 L 75.000 223.400 75.101 299.900 L 75.202 376.400 87.001 376.400 L 98.800 376.400 98.800 358.600 L 98.800 340.800 143.600 340.800 L 188.400 340.800 188.400 358.600 L 188.400 376.400 200.000 376.400 L 211.600 376.400 211.600 358.400 L 211.600 340.400 255.967 340.400 C 280.369 340.400,300.619 340.509,300.967 340.643 C 301.531 340.859,301.600 342.820,301.600 358.643 L 301.600 376.400 313.200 376.400 L 324.800 376.400 324.800 329.200 L 324.800 282.000 350.600 282.000 L 376.400 282.000 376.400 270.400 L 376.400 258.800 350.602 258.800 L 324.803 258.800 324.702 211.700 L 324.600 164.600 316.111 164.492 L 307.623 164.384 304.711 167.177 L 301.800 169.970 301.600 214.285 L 301.400 258.600 253.922 258.702 L 206.443 258.803 205.486 257.502 C 204.960 256.786,204.185 255.622,203.765 254.916 C 199.943 248.498,194.053 239.157,182.129 220.600 C 180.149 217.520,177.556 213.472,176.365 211.605 L 174.200 208.209 174.090 186.305 L 173.980 164.400 162.390 164.400 L 150.800 164.400 150.800 181.720 C 150.800 194.658,150.679 199.161,150.320 199.520 C 149.766 200.074,100.171 200.223,99.304 199.673 C 98.925 199.432,98.784 195.272,98.704 181.979 L 98.600 164.600 87.090 164.494 C 78.096 164.411,75.538 164.498,75.390 164.894 M155.855 223.506 C 156.105 223.668,158.189 226.770,160.485 230.400 C 162.781 234.030,165.648 238.530,166.857 240.400 C 168.065 242.270,170.196 245.600,171.592 247.800 C 178.134 258.108,183.005 265.721,185.862 270.102 L 188.407 274.004 188.303 295.502 L 188.200 317.000 143.600 317.000 L 99.000 317.000 98.898 270.425 C 98.818 233.429,98.900 223.784,99.298 223.531 C 99.929 223.130,155.236 223.106,155.855 223.506 M301.404 282.900 C 301.524 283.395,301.572 291.270,301.511 300.400 L 301.400 317.000 256.500 317.102 L 211.600 317.203 211.600 299.602 L 211.600 282.000 256.392 282.000 L 301.185 282.000 301.404 282.900 "
       stroke="none"
       fill="#dcf0fb"
       fill-rule="evenodd" />
    <path
       id="path4"
       d="M23.385 164.500 C 23.281 164.775,23.241 212.610,23.298 270.800 L 23.400 376.600 117.600 376.600 L 211.800 376.600 211.904 358.700 L 212.008 340.800 256.204 340.800 L 300.400 340.800 300.400 358.592 L 300.400 376.385 301.300 376.605 C 301.795 376.725,307.330 376.774,313.600 376.712 L 325.000 376.600 325.102 329.900 L 325.203 283.200 350.784 283.200 L 376.364 283.200 376.598 281.900 C 376.727 281.185,376.780 275.650,376.716 269.600 L 376.600 258.600 350.900 258.497 L 325.200 258.394 325.200 211.597 L 325.200 164.800 350.900 164.712 C 365.035 164.663,373.990 164.574,370.800 164.514 C 358.383 164.279,324.094 164.212,324.436 164.423 C 324.646 164.552,324.839 184.272,324.898 211.623 L 325.000 258.600 350.700 258.703 L 376.400 258.806 376.400 270.400 L 376.400 281.994 350.700 282.097 L 325.000 282.200 324.898 329.300 L 324.797 376.400 312.998 376.400 L 301.200 376.400 301.200 358.608 L 301.200 340.815 300.300 340.598 C 299.805 340.478,279.690 340.430,255.600 340.490 L 211.800 340.600 211.696 358.500 L 211.592 376.400 117.596 376.400 L 23.600 376.400 23.600 270.403 L 23.600 164.406 49.900 164.300 L 76.200 164.194 49.887 164.097 C 29.134 164.021,23.535 164.106,23.385 164.500 M111.500 164.300 C 118.815 164.361,130.785 164.361,138.100 164.300 C 145.415 164.239,139.430 164.189,124.800 164.189 C 110.170 164.189,104.185 164.239,111.500 164.300 M178.500 164.299 C 181.305 164.368,185.895 164.368,188.700 164.299 C 191.505 164.230,189.210 164.174,183.600 164.174 C 177.990 164.174,175.695 164.230,178.500 164.299 M200.098 209.538 C 200.004 246.920,200.030 248.519,200.743 249.538 C 201.152 250.122,201.557 250.800,201.643 251.045 C 201.729 251.289,202.880 253.131,204.200 255.138 L 206.600 258.787 253.267 258.794 C 278.934 258.797,300.219 258.691,300.567 258.557 C 301.329 258.265,301.561 171.200,300.800 171.200 C 300.536 171.200,300.400 186.000,300.400 214.800 L 300.400 258.400 253.587 258.400 C 209.371 258.400,206.760 258.361,206.512 257.700 C 206.368 257.315,205.653 256.147,204.925 255.104 C 204.196 254.061,203.600 253.129,203.600 253.032 C 203.600 252.936,202.881 251.774,202.002 250.451 L 200.404 248.045 200.300 209.322 L 200.196 170.600 200.098 209.538 M211.783 282.500 C 211.677 282.775,211.638 290.650,211.696 300.000 L 211.800 317.000 256.400 317.000 L 301.000 317.000 301.104 300.046 C 301.179 287.863,301.081 282.939,300.755 282.546 C 300.112 281.771,212.080 281.726,211.783 282.500 M300.400 299.800 L 300.400 316.400 256.200 316.400 L 212.000 316.400 212.000 299.800 L 212.000 283.200 256.200 283.200 L 300.400 283.200 300.400 299.800 "
       stroke="none"
       fill="#34e49c"
       fill-rule="evenodd" />
  </g>
  <circle
     style="fill:#ffffff;stroke-width:4.92418;stroke-linecap:square;fill-opacity:1"
     id="path1035"
     cx="250.81374"
     cy="92.766724"
     r="41.229656"
     clip-path="none" />
</svg>
