<svg class="main-svg" xmlns="http://www.w3.org/2000/svg" xmlns:xlink="http://www.w3.org/1999/xlink" width="700" height="500" style="" viewBox="0 0 700 500"><rect x="0" y="0" width="700" height="500" style="fill: rgb(255, 255, 255); fill-opacity: 1;"/><defs id="defs-3b0d50"><g class="clips"><clipPath id="clip3b0d50xyplot" class="plotclip"><rect width="299.7" height="153.00000000000003"/></clipPath><clipPath id="clip3b0d50x2y2plot" class="plotclip"><rect width="299.7" height="153.00000000000003"/></clipPath><clipPath id="clip3b0d50x3y3plot" class="plotclip"><rect width="299.7" height="153"/></clipPath><clipPath id="clip3b0d50x4y4plot" class="plotclip"><rect width="299.7" height="153"/></clipPath><clipPath class="axesclip" id="clip3b0d50x"><rect x="14" y="0" width="299.7" height="500"/></clipPath><clipPath class="axesclip" id="clip3b0d50y"><rect x="0" y="100" width="700" height="153.00000000000003"/></clipPath><clipPath class="axesclip" id="clip3b0d50xy"><rect x="14" y="100" width="299.7" height="153.00000000000003"/></clipPath><clipPath class="axesclip" id="clip3b0d50y2"><rect x="0" y="100" width="700" height="153.00000000000003"/></clipPath><clipPath class="axesclip" id="clip3b0d50xy2"><rect x="14" y="100" width="299.7" height="153.00000000000003"/></clipPath><clipPath class="axesclip" id="clip3b0d50y3"><rect x="0" y="307" width="700" height="153"/></clipPath><clipPath class="axesclip" id="clip3b0d50xy3"><rect x="14" y="307" width="299.7" height="153"/></clipPath><clipPath class="axesclip" id="clip3b0d50y4"><rect x="0" y="307" width="700" height="153"/></clipPath><clipPath class="axesclip" id="clip3b0d50xy4"><rect x="14" y="307" width="299.7" height="153"/></clipPath><clipPath class="axesclip" id="clip3b0d50x2"><rect x="380.3" y="0" width="299.7" height="500"/></clipPath><clipPath class="axesclip" id="clip3b0d50x2y"><rect x="380.3" y="100" width="299.7" height="153.00000000000003"/></clipPath><clipPath class="axesclip" id="clip3b0d50x2y2"><rect x="380.3" y="100" width="299.7" height="153.00000000000003"/></clipPath><clipPath class="axesclip" id="clip3b0d50x2y3"><rect x="380.3" y="307" width="299.7" height="153"/></clipPath><clipPath class="axesclip" id="clip3b0d50x2y4"><rect x="380.3" y="307" width="299.7" height="153"/></clipPath><clipPath class="axesclip" id="clip3b0d50x3"><rect x="14" y="0" width="299.7" height="500"/></clipPath><clipPath class="axesclip" id="clip3b0d50x3y"><rect x="14" y="100" width="299.7" height="153.00000000000003"/></clipPath><clipPath class="axesclip" id="clip3b0d50x3y2"><rect x="14" y="100" width="299.7" height="153.00000000000003"/></clipPath><clipPath class="axesclip" id="clip3b0d50x3y3"><rect x="14" y="307" width="299.7" height="153"/></clipPath><clipPath class="axesclip" id="clip3b0d50x3y4"><rect x="14" y="307" width="299.7" height="153"/></clipPath><clipPath class="axesclip" id="clip3b0d50x4"><rect x="380.3" y="0" width="299.7" height="500"/></clipPath><clipPath class="axesclip" id="clip3b0d50x4y"><rect x="380.3" y="100" width="299.7" height="153.00000000000003"/></clipPath><clipPath class="axesclip" id="clip3b0d50x4y2"><rect x="380.3" y="100" width="299.7" height="153.00000000000003"/></clipPath><clipPath class="axesclip" id="clip3b0d50x4y3"><rect x="380.3" y="307" width="299.7" height="153"/></clipPath><clipPath class="axesclip" id="clip3b0d50x4y4"><rect x="380.3" y="307" width="299.7" height="153"/></clipPath></g><g class="gradients"/><g class="patterns"/></defs><g class="bglayer"><rect class="bg" x="14" y="100" width="299.7" height="153.00000000000003" style="fill: rgb(245, 245, 245); fill-opacity: 1; stroke-width: 0;"/><rect class="bg" x="380.3" y="100" width="299.7" height="153.00000000000003" style="fill: rgb(245, 245, 245); fill-opacity: 1; stroke-width: 0;"/><rect class="bg" x="14" y="307" width="299.7" height="153" style="fill: rgb(245, 245, 245); fill-opacity: 1; stroke-width: 0;"/><rect class="bg" x="380.3" y="307" width="299.7" height="153" style="fill: rgb(245, 245, 245); fill-opacity: 1; stroke-width: 0;"/></g><g class="layer-below"><g class="imagelayer"/><g class="shapelayer"/></g><g class="cartesianlayer"><g class="subplot xy"><g class="layer-subplot"><g class="shapelayer"/><g class="imagelayer"/></g><g class="gridlayer"><g class="x"><path class="xgrid crisp" transform="translate(113.9,0)" d="M0,100v153.00000000000003" style="stroke: rgb(220, 220, 220); stroke-opacity: 1; stroke-width: 0.1px;"/><path class="xgrid crisp" transform="translate(213.8,0)" d="M0,100v153.00000000000003" style="stroke: rgb(220, 220, 220); stroke-opacity: 1; stroke-width: 0.1px;"/></g><g class="y"><path class="ygrid crisp" transform="translate(0,204.75)" d="M14,0h299.7" style="stroke: rgb(220, 220, 220); stroke-opacity: 1; stroke-width: 0.1px;"/><path class="ygrid crisp" transform="translate(0,169.44)" d="M14,0h299.7" style="stroke: rgb(220, 220, 220); stroke-opacity: 1; stroke-width: 0.1px;"/><path class="ygrid crisp" transform="translate(0,134.13)" d="M14,0h299.7" style="stroke: rgb(220, 220, 220); stroke-opacity: 1; stroke-width: 0.1px;"/></g></g><g class="zerolinelayer"><path class="yzl zl crisp" transform="translate(0,240.05)" d="M14,0h299.7" style="stroke: rgb(211, 211, 211); stroke-opacity: 1; stroke-width: 2px;"/></g><path class="xlines-below"/><path class="ylines-below"/><g class="overlines-below"/><g class="xaxislayer-below"/><g class="yaxislayer-below"/><g class="overaxes-below"/><g class="plot" transform="translate(14,100)" clip-path="url(#clip3b0d50xyplot)"><g class="scatterlayer mlayer"><g class="trace scatter traceba34e6" style="stroke-miterlimit: 2; opacity: 1;"><g class="fills"/><g class="errorbars"/><g class="lines"><path class="js-line" d="M0,115.34L4.99,85.33L9.99,125.93L14.98,57.08L19.98,72.97L24.97,71.2L29.97,85.33L34.96,101.22L39.96,48.25L44.95,42.96L49.95,72.97L54.94,48.25L59.94,78.27L64.93,67.67L69.93,76.5L74.92,53.55L79.92,95.92L84.91,50.02L89.91,39.43L94.9,51.78L99.9,58.85L104.89,34.13L109.89,65.91L114.88,145.35L119.88,69.44L124.88,58.85L129.87,35.9L134.86,46.49L139.86,72.97L144.85,74.73L149.85,60.61L154.84,48.25L159.84,50.02L164.83,62.38L169.83,7.65L174.82,34.13L179.82,55.32L184.81,30.6L189.81,60.61L194.8,78.27L199.8,58.85L204.79,58.85L209.79,44.72L214.78,48.25L219.78,46.49L224.77,78.27L229.77,81.8L234.76,95.92L239.76,11.18L244.75,34.13L249.75,18.24L254.74,71.2L259.74,48.25L264.73,30.6L269.73,23.54L274.72,28.83L279.72,74.73L284.71,46.49L289.71,27.07L294.7,28.83L299.7,18.24" style="vector-effect: non-scaling-stroke; fill: none; stroke: rgb(65, 105, 225); stroke-opacity: 1; stroke-width: 2px; opacity: 1;"/></g><g class="points"/><g class="text"/></g><g class="trace scatter traced2ec3c" style="stroke-miterlimit: 2; opacity: 1;"><g class="fills"/><g class="errorbars"/><g class="lines"><path class="js-line" d="M0,80.86L299.7,36.02" style="vector-effect: non-scaling-stroke; fill: none; stroke: rgb(255, 0, 0); stroke-opacity: 1; stroke-width: 2px; opacity: 1;"/></g><g class="points"/><g class="text"/></g></g></g><g class="overplot"/><path class="xlines-above crisp" d="M0,0" style="fill: none;"/><path class="ylines-above crisp" d="M0,0" style="fill: none;"/><g class="overlines-above"/><g class="xaxislayer-above"><g class="xtick"><text text-anchor="middle" x="0" y="266" transform="translate(14,0)" style="font-family: -apple-system, system-ui, BlinkMacSystemFont, 'Segoe UI', Roboto, 'Helvetica Neue', Arial, sans-serif; font-size: 12px; fill: rgb(42, 63, 95); fill-opacity: 1; white-space: pre; opacity: 1;">1940</text></g><g class="xtick"><text text-anchor="middle" x="0" y="266" style="font-family: -apple-system, system-ui, BlinkMacSystemFont, 'Segoe UI', Roboto, 'Helvetica Neue', Arial, sans-serif; font-size: 12px; fill: rgb(42, 63, 95); fill-opacity: 1; white-space: pre; opacity: 1;" transform="translate(113.9,0)">1960</text></g><g class="xtick"><text text-anchor="middle" x="0" y="266" style="font-family: -apple-system, system-ui, BlinkMacSystemFont, 'Segoe UI', Roboto, 'Helvetica Neue', Arial, sans-serif; font-size: 12px; fill: rgb(42, 63, 95); fill-opacity: 1; white-space: pre; opacity: 1;" transform="translate(213.8,0)">1980</text></g><g class="xtick"><text text-anchor="middle" x="0" y="266" style="font-family: -apple-system, system-ui, BlinkMacSystemFont, 'Segoe UI', Roboto, 'Helvetica Neue', Arial, sans-serif; font-size: 12px; fill: rgb(42, 63, 95); fill-opacity: 1; white-space: pre; opacity: 1;" transform="translate(313.7,0)">2000</text></g></g><g class="yaxislayer-above"><g class="ytick"><text text-anchor="end" x="13" y="4.199999999999999" transform="translate(0,240.05)" style="font-family: -apple-system, system-ui, BlinkMacSystemFont, 'Segoe UI', Roboto, 'Helvetica Neue', Arial, sans-serif; font-size: 12px; fill: rgb(42, 63, 95); fill-opacity: 1; white-space: pre; opacity: 1;">0</text></g><g class="ytick"><text text-anchor="end" x="13" y="4.199999999999999" style="font-family: -apple-system, system-ui, BlinkMacSystemFont, 'Segoe UI', Roboto, 'Helvetica Neue', Arial, sans-serif; font-size: 12px; fill: rgb(42, 63, 95); fill-opacity: 1; white-space: pre; opacity: 1;" transform="translate(0,204.75)">2</text></g><g class="ytick"><text text-anchor="end" x="13" y="4.199999999999999" style="font-family: -apple-system, system-ui, BlinkMacSystemFont, 'Segoe UI', Roboto, 'Helvetica Neue', Arial, sans-serif; font-size: 12px; fill: rgb(42, 63, 95); fill-opacity: 1; white-space: pre; opacity: 1;" transform="translate(0,169.44)">4</text></g><g class="ytick"><text text-anchor="end" x="13" y="4.199999999999999" style="font-family: -apple-system, system-ui, BlinkMacSystemFont, 'Segoe UI', Roboto, 'Helvetica Neue', Arial, sans-serif; font-size: 12px; fill: rgb(42, 63, 95); fill-opacity: 1; white-space: pre; opacity: 1;" transform="translate(0,134.13)">6</text></g></g><g class="overaxes-above"/></g><g class="subplot x2y2"><g class="layer-subplot"><g class="shapelayer"/><g class="imagelayer"/></g><g class="gridlayer"><g class="x2"><path class="x2grid crisp" transform="translate(480.20000000000005,0)" d="M0,100v153.00000000000003" style="stroke: rgb(220, 220, 220); stroke-opacity: 1; stroke-width: 0.1px;"/><path class="x2grid crisp" transform="translate(580.1,0)" d="M0,100v153.00000000000003" style="stroke: rgb(220, 220, 220); stroke-opacity: 1; stroke-width: 0.1px;"/></g><g class="y2"><path class="y2grid crisp" transform="translate(0,204.85)" d="M380.3,0h299.7" style="stroke: rgb(220, 220, 220); stroke-opacity: 1; stroke-width: 0.1px;"/><path class="y2grid crisp" transform="translate(0,150.85)" d="M380.3,0h299.7" style="stroke: rgb(220, 220, 220); stroke-opacity: 1; stroke-width: 0.1px;"/></g></g><g class="zerolinelayer"/><path class="xlines-below"/><path class="ylines-below"/><g class="overlines-below"/><g class="xaxislayer-below"/><g class="yaxislayer-below"/><g class="overaxes-below"/><g class="plot" transform="translate(380.3,100)" clip-path="url(#clip3b0d50x2y2plot)"><g class="scatterlayer mlayer"><g class="trace scatter trace06641c" style="stroke-miterlimit: 2; opacity: 1;"><g class="fills"/><g class="errorbars"/><g class="lines"><path class="js-line" d="M0,94.05L4.99,83.25L9.99,85.95L14.98,75.15L19.98,72.45L24.97,58.95L29.97,104.85L34.96,13.05L39.96,112.95L44.95,64.35L49.95,56.25L54.94,107.55L59.94,64.35L69.93,126.45L74.92,77.85L79.92,145.35L84.91,85.95L89.91,99.45L94.9,45.45L99.9,104.85L104.89,91.35L109.89,110.25L114.88,107.55L119.88,72.45L124.88,118.35L129.87,96.75L134.86,80.55L139.86,104.85L144.85,83.25L149.85,75.15L154.84,88.65L159.84,121.05L164.83,61.65L169.83,91.35L174.82,58.95L179.82,7.65L184.81,121.05L189.81,126.45L194.8,102.15L199.8,110.25L204.79,96.75L214.78,21.15L219.78,77.85L224.77,99.45L229.77,77.85L234.76,96.75L239.76,94.05L244.75,56.25L249.75,56.25L254.74,75.15L259.74,53.55L264.73,85.95L269.73,37.35L274.72,31.95L279.72,64.35L284.71,37.35L289.71,72.45L294.7,48.15L299.7,67.05" style="vector-effect: non-scaling-stroke; fill: none; stroke: rgb(255, 215, 0); stroke-opacity: 1; stroke-width: 2px; opacity: 1;"/></g><g class="points"/><g class="text"/></g><g class="trace scatter trace96d351" style="stroke-miterlimit: 2; opacity: 1;"><g class="fills"/><g class="errorbars"/><g class="lines"><path class="js-line" d="M0,93.38L289.71,68.56L294.7,68.16L299.7,67.73" style="vector-effect: non-scaling-stroke; fill: none; stroke: rgb(255, 0, 0); stroke-opacity: 1; stroke-width: 2px; opacity: 1;"/></g><g class="points"/><g class="text"/></g></g></g><g class="overplot"/><path class="xlines-above crisp" d="M0,0" style="fill: none;"/><path class="ylines-above crisp" d="M0,0" style="fill: none;"/><g class="overlines-above"/><g class="xaxislayer-above"><g class="x2tick"><text text-anchor="middle" x="0" y="266" transform="translate(380.3,0)" style="font-family: -apple-system, system-ui, BlinkMacSystemFont, 'Segoe UI', Roboto, 'Helvetica Neue', Arial, sans-serif; font-size: 12px; fill: rgb(42, 63, 95); fill-opacity: 1; white-space: pre; opacity: 1;">1940</text></g><g class="x2tick"><text text-anchor="middle" x="0" y="266" style="font-family: -apple-system, system-ui, BlinkMacSystemFont, 'Segoe UI', Roboto, 'Helvetica Neue', Arial, sans-serif; font-size: 12px; fill: rgb(42, 63, 95); fill-opacity: 1; white-space: pre; opacity: 1;" transform="translate(480.20000000000005,0)">1960</text></g><g class="x2tick"><text text-anchor="middle" x="0" y="266" style="font-family: -apple-system, system-ui, BlinkMacSystemFont, 'Segoe UI', Roboto, 'Helvetica Neue', Arial, sans-serif; font-size: 12px; fill: rgb(42, 63, 95); fill-opacity: 1; white-space: pre; opacity: 1;" transform="translate(580.1,0)">1980</text></g><g class="x2tick"><text text-anchor="middle" x="0" y="266" style="font-family: -apple-system, system-ui, BlinkMacSystemFont, 'Segoe UI', Roboto, 'Helvetica Neue', Arial, sans-serif; font-size: 12px; fill: rgb(42, 63, 95); fill-opacity: 1; white-space: pre; opacity: 1;" transform="translate(680,0)">2000</text></g></g><g class="yaxislayer-above"><g class="y2tick"><text text-anchor="end" x="379.3" y="4.199999999999999" transform="translate(0,204.85)" style="font-family: -apple-system, system-ui, BlinkMacSystemFont, 'Segoe UI', Roboto, 'Helvetica Neue', Arial, sans-serif; font-size: 12px; fill: rgb(42, 63, 95); fill-opacity: 1; white-space: pre; opacity: 1;">18</text></g><g class="y2tick"><text text-anchor="end" x="379.3" y="4.199999999999999" style="font-family: -apple-system, system-ui, BlinkMacSystemFont, 'Segoe UI', Roboto, 'Helvetica Neue', Arial, sans-serif; font-size: 12px; fill: rgb(42, 63, 95); fill-opacity: 1; white-space: pre; opacity: 1;" transform="translate(0,150.85)">20</text></g></g><g class="overaxes-above"/></g><g class="subplot x3y3"><g class="layer-subplot"><g class="shapelayer"/><g class="imagelayer"/></g><g class="gridlayer"><g class="x3"><path class="x3grid crisp" transform="translate(113.9,0)" d="M0,307v153" style="stroke: rgb(220, 220, 220); stroke-opacity: 1; stroke-width: 0.1px;"/><path class="x3grid crisp" transform="translate(213.8,0)" d="M0,307v153" style="stroke: rgb(220, 220, 220); stroke-opacity: 1; stroke-width: 0.1px;"/></g><g class="y3"><path class="y3grid crisp" transform="translate(0,441.19)" d="M14,0h299.7" style="stroke: rgb(220, 220, 220); stroke-opacity: 1; stroke-width: 0.1px;"/><path class="y3grid crisp" transform="translate(0,403.97)" d="M14,0h299.7" style="stroke: rgb(220, 220, 220); stroke-opacity: 1; stroke-width: 0.1px;"/><path class="y3grid crisp" transform="translate(0,366.75)" d="M14,0h299.7" style="stroke: rgb(220, 220, 220); stroke-opacity: 1; stroke-width: 0.1px;"/><path class="y3grid crisp" transform="translate(0,329.54)" d="M14,0h299.7" style="stroke: rgb(220, 220, 220); stroke-opacity: 1; stroke-width: 0.1px;"/></g></g><g class="zerolinelayer"/><path class="xlines-below"/><path class="ylines-below"/><g class="overlines-below"/><g class="xaxislayer-below"/><g class="yaxislayer-below"/><g class="overaxes-below"/><g class="plot" transform="translate(14,307)" clip-path="url(#clip3b0d50x3y3plot)"><g class="scatterlayer mlayer"><g class="trace scatter tracee77009" style="stroke-miterlimit: 2; opacity: 1;"><g class="fills"/><g class="errorbars"/><g class="lines"><path class="js-line" d="M0,74.64L4.99,70.92L9.99,63.47L14.98,85.8L19.98,96.97L24.97,48.59L29.97,63.47L34.96,11.37L39.96,85.8L44.95,11.37L49.95,82.08L54.94,41.14L59.94,145.35L64.93,59.75L69.93,44.87L74.92,85.8L79.92,74.64L84.91,74.64L89.91,44.87L94.9,7.65L99.9,56.03L104.89,18.81L109.89,78.36L114.88,29.98L119.88,59.75L124.88,85.8L129.87,56.03L134.86,44.87L139.86,48.59L144.85,15.09L149.85,11.37L154.84,52.31L159.84,85.8L164.83,44.87L169.83,104.41L179.82,48.59L184.81,44.87L189.81,52.31L194.8,41.14L199.8,67.2L204.79,48.59L209.79,11.37L214.78,37.42L219.78,26.26L224.77,67.2L229.77,37.42L234.76,18.81L239.76,52.31L244.75,7.65L249.75,26.26L254.74,37.42L259.74,59.75L264.73,130.46L269.73,11.37L274.72,15.09L279.72,67.2L284.71,11.37L289.71,70.92L294.7,26.26L299.7,18.81" style="vector-effect: non-scaling-stroke; fill: none; stroke: rgb(255, 127, 0); stroke-opacity: 1; stroke-width: 2px; opacity: 1;"/></g><g class="points"/><g class="text"/></g><g class="trace scatter trace982475" style="stroke-miterlimit: 2; opacity: 1;"><g class="fills"/><g class="errorbars"/><g class="lines"><path class="js-line" d="M0,68.2L164.83,50.45L169.83,49.93L299.7,35.93" style="vector-effect: non-scaling-stroke; fill: none; stroke: rgb(255, 0, 0); stroke-opacity: 1; stroke-width: 2px; opacity: 1;"/></g><g class="points"/><g class="text"/></g></g></g><g class="overplot"/><path class="xlines-above crisp" d="M0,0" style="fill: none;"/><path class="ylines-above crisp" d="M0,0" style="fill: none;"/><g class="overlines-above"/><g class="xaxislayer-above"><g class="x3tick"><text text-anchor="middle" x="0" y="473" transform="translate(14,0)" style="font-family: -apple-system, system-ui, BlinkMacSystemFont, 'Segoe UI', Roboto, 'Helvetica Neue', Arial, sans-serif; font-size: 12px; fill: rgb(42, 63, 95); fill-opacity: 1; white-space: pre; opacity: 1;">1940</text></g><g class="x3tick"><text text-anchor="middle" x="0" y="473" style="font-family: -apple-system, system-ui, BlinkMacSystemFont, 'Segoe UI', Roboto, 'Helvetica Neue', Arial, sans-serif; font-size: 12px; fill: rgb(42, 63, 95); fill-opacity: 1; white-space: pre; opacity: 1;" transform="translate(113.9,0)">1960</text></g><g class="x3tick"><text text-anchor="middle" x="0" y="473" style="font-family: -apple-system, system-ui, BlinkMacSystemFont, 'Segoe UI', Roboto, 'Helvetica Neue', Arial, sans-serif; font-size: 12px; fill: rgb(42, 63, 95); fill-opacity: 1; white-space: pre; opacity: 1;" transform="translate(213.8,0)">1980</text></g><g class="x3tick"><text text-anchor="middle" x="0" y="473" style="font-family: -apple-system, system-ui, BlinkMacSystemFont, 'Segoe UI', Roboto, 'Helvetica Neue', Arial, sans-serif; font-size: 12px; fill: rgb(42, 63, 95); fill-opacity: 1; white-space: pre; opacity: 1;" transform="translate(313.7,0)">2000</text></g></g><g class="yaxislayer-above"><g class="y3tick"><text text-anchor="end" x="13" y="4.199999999999999" transform="translate(0,441.19)" style="font-family: -apple-system, system-ui, BlinkMacSystemFont, 'Segoe UI', Roboto, 'Helvetica Neue', Arial, sans-serif; font-size: 12px; fill: rgb(42, 63, 95); fill-opacity: 1; white-space: pre; opacity: 1;">10</text></g><g class="y3tick"><text text-anchor="end" x="13" y="4.199999999999999" style="font-family: -apple-system, system-ui, BlinkMacSystemFont, 'Segoe UI', Roboto, 'Helvetica Neue', Arial, sans-serif; font-size: 12px; fill: rgb(42, 63, 95); fill-opacity: 1; white-space: pre; opacity: 1;" transform="translate(0,403.97)">11</text></g><g class="y3tick"><text text-anchor="end" x="13" y="4.199999999999999" style="font-family: -apple-system, system-ui, BlinkMacSystemFont, 'Segoe UI', Roboto, 'Helvetica Neue', Arial, sans-serif; font-size: 12px; fill: rgb(42, 63, 95); fill-opacity: 1; white-space: pre; opacity: 1;" transform="translate(0,366.75)">12</text></g><g class="y3tick"><text text-anchor="end" x="13" y="4.199999999999999" style="font-family: -apple-system, system-ui, BlinkMacSystemFont, 'Segoe UI', Roboto, 'Helvetica Neue', Arial, sans-serif; font-size: 12px; fill: rgb(42, 63, 95); fill-opacity: 1; white-space: pre; opacity: 1;" transform="translate(0,329.54)">13</text></g></g><g class="overaxes-above"/></g><g class="subplot x4y4"><g class="layer-subplot"><g class="shapelayer"/><g class="imagelayer"/></g><g class="gridlayer"><g class="x4"><path class="x4grid crisp" transform="translate(480.20000000000005,0)" d="M0,307v153" style="stroke: rgb(220, 220, 220); stroke-opacity: 1; stroke-width: 0.1px;"/><path class="x4grid crisp" transform="translate(580.1,0)" d="M0,307v153" style="stroke: rgb(220, 220, 220); stroke-opacity: 1; stroke-width: 0.1px;"/></g><g class="y4"><path class="y4grid crisp" transform="translate(0,455.78999999999996)" d="M380.3,0h299.7" style="stroke: rgb(220, 220, 220); stroke-opacity: 1; stroke-width: 0.1px;"/><path class="y4grid crisp" transform="translate(0,421.37)" d="M380.3,0h299.7" style="stroke: rgb(220, 220, 220); stroke-opacity: 1; stroke-width: 0.1px;"/><path class="y4grid crisp" transform="translate(0,386.94)" d="M380.3,0h299.7" style="stroke: rgb(220, 220, 220); stroke-opacity: 1; stroke-width: 0.1px;"/><path class="y4grid crisp" transform="translate(0,352.52)" d="M380.3,0h299.7" style="stroke: rgb(220, 220, 220); stroke-opacity: 1; stroke-width: 0.1px;"/><path class="y4grid crisp" transform="translate(0,318.09)" d="M380.3,0h299.7" style="stroke: rgb(220, 220, 220); stroke-opacity: 1; stroke-width: 0.1px;"/></g></g><g class="zerolinelayer"/><path class="xlines-below"/><path class="ylines-below"/><g class="overlines-below"/><g class="xaxislayer-below"/><g class="yaxislayer-below"/><g class="overaxes-below"/><g class="plot" transform="translate(380.3,307)" clip-path="url(#clip3b0d50x4y4plot)"><g class="scatterlayer mlayer"><g class="trace scatter trace4001a8" style="stroke-miterlimit: 2; opacity: 1;"><g class="fills"/><g class="errorbars"/><g class="lines"><path class="js-line" d="M0,66.17L4.99,128.14L9.99,48.96L14.98,21.42L19.98,83.39L24.97,7.65L29.97,69.61L34.96,31.75L39.96,24.86L44.95,79.94L49.95,69.61L54.94,121.25L59.94,24.86L64.93,38.63L69.93,86.83L74.92,121.25L79.92,86.83L84.91,69.61L89.91,121.25L94.9,35.19L99.9,38.63L104.89,28.31L109.89,145.35L114.88,93.71L119.88,73.06L124.88,83.39L129.87,69.61L134.86,83.39L139.86,90.27L144.85,76.5L149.85,128.14L154.84,73.06L159.84,73.06L164.83,97.16L169.83,73.06L174.82,121.25L179.82,76.5L184.81,79.94L189.81,97.16L194.8,107.48L199.8,104.04L204.79,45.52L209.79,76.5L219.78,121.25L224.77,86.83L229.77,114.37L234.76,97.16L239.76,55.85L244.75,24.86L249.75,21.42L254.74,66.17L259.74,31.75L264.73,31.75L269.73,45.52L274.72,69.61L279.72,93.71L284.71,28.31L289.71,31.75L294.7,7.65L299.7,31.75" style="vector-effect: non-scaling-stroke; fill: none; stroke: rgb(97, 177, 90); stroke-opacity: 1; stroke-width: 2px; opacity: 1;"/></g><g class="points"/><g class="text"/></g><g class="trace scatter trace3776b1" style="stroke-miterlimit: 2; opacity: 1;"><g class="fills"/><g class="errorbars"/><g class="lines"><path class="js-line" d="M0,76.53L224.77,68.27L229.77,68.1L299.7,65.52" style="vector-effect: non-scaling-stroke; fill: none; stroke: rgb(255, 0, 0); stroke-opacity: 1; stroke-width: 2px; opacity: 1;"/></g><g class="points"/><g class="text"/></g></g></g><g class="overplot"/><path class="xlines-above crisp" d="M0,0" style="fill: none;"/><path class="ylines-above crisp" d="M0,0" style="fill: none;"/><g class="overlines-above"/><g class="xaxislayer-above"><g class="x4tick"><text text-anchor="middle" x="0" y="473" transform="translate(380.3,0)" style="font-family: -apple-system, system-ui, BlinkMacSystemFont, 'Segoe UI', Roboto, 'Helvetica Neue', Arial, sans-serif; font-size: 12px; fill: rgb(42, 63, 95); fill-opacity: 1; white-space: pre; opacity: 1;">1940</text></g><g class="x4tick"><text text-anchor="middle" x="0" y="473" style="font-family: -apple-system, system-ui, BlinkMacSystemFont, 'Segoe UI', Roboto, 'Helvetica Neue', Arial, sans-serif; font-size: 12px; fill: rgb(42, 63, 95); fill-opacity: 1; white-space: pre; opacity: 1;" transform="translate(480.20000000000005,0)">1960</text></g><g class="x4tick"><text text-anchor="middle" x="0" y="473" style="font-family: -apple-system, system-ui, BlinkMacSystemFont, 'Segoe UI', Roboto, 'Helvetica Neue', Arial, sans-serif; font-size: 12px; fill: rgb(42, 63, 95); fill-opacity: 1; white-space: pre; opacity: 1;" transform="translate(580.1,0)">1980</text></g><g class="x4tick"><text text-anchor="middle" x="0" y="473" style="font-family: -apple-system, system-ui, BlinkMacSystemFont, 'Segoe UI', Roboto, 'Helvetica Neue', Arial, sans-serif; font-size: 12px; fill: rgb(42, 63, 95); fill-opacity: 1; white-space: pre; opacity: 1;" transform="translate(680,0)">2000</text></g></g><g class="yaxislayer-above"><g class="y4tick"><text text-anchor="end" x="379.3" y="4.199999999999999" transform="translate(0,455.78999999999996)" style="font-family: -apple-system, system-ui, BlinkMacSystemFont, 'Segoe UI', Roboto, 'Helvetica Neue', Arial, sans-serif; font-size: 12px; fill: rgb(42, 63, 95); fill-opacity: 1; white-space: pre; opacity: 1;">9</text></g><g class="y4tick"><text text-anchor="end" x="379.3" y="4.199999999999999" style="font-family: -apple-system, system-ui, BlinkMacSystemFont, 'Segoe UI', Roboto, 'Helvetica Neue', Arial, sans-serif; font-size: 12px; fill: rgb(42, 63, 95); fill-opacity: 1; white-space: pre; opacity: 1;" transform="translate(0,421.37)">10</text></g><g class="y4tick"><text text-anchor="end" x="379.3" y="4.199999999999999" style="font-family: -apple-system, system-ui, BlinkMacSystemFont, 'Segoe UI', Roboto, 'Helvetica Neue', Arial, sans-serif; font-size: 12px; fill: rgb(42, 63, 95); fill-opacity: 1; white-space: pre; opacity: 1;" transform="translate(0,386.94)">11</text></g><g class="y4tick"><text text-anchor="end" x="379.3" y="4.199999999999999" style="font-family: -apple-system, system-ui, BlinkMacSystemFont, 'Segoe UI', Roboto, 'Helvetica Neue', Arial, sans-serif; font-size: 12px; fill: rgb(42, 63, 95); fill-opacity: 1; white-space: pre; opacity: 1;" transform="translate(0,352.52)">12</text></g><g class="y4tick"><text text-anchor="end" x="379.3" y="4.199999999999999" style="font-family: -apple-system, system-ui, BlinkMacSystemFont, 'Segoe UI', Roboto, 'Helvetica Neue', Arial, sans-serif; font-size: 12px; fill: rgb(42, 63, 95); fill-opacity: 1; white-space: pre; opacity: 1;" transform="translate(0,318.09)">13</text></g></g><g class="overaxes-above"/></g></g><g class="polarlayer"/><g class="smithlayer"/><g class="ternarylayer"/><g class="geolayer"/><g class="funnelarealayer"/><g class="pielayer"/><g class="iciclelayer"/><g class="treemaplayer"/><g class="sunburstlayer"/><g class="glimages"/><defs id="topdefs-3b0d50"><g class="clips"/></defs><g class="layer-above"><g class="imagelayer"/><g class="shapelayer"/></g><g class="infolayer"><g class="g-gtitle"><text class="gtitle" x="350" y="25" text-anchor="middle" dy="0.7em" style="font-family: -apple-system, system-ui, BlinkMacSystemFont, 'Segoe UI', Roboto, 'Helvetica Neue', Arial, sans-serif; font-size: 17px; fill: rgb(42, 63, 95); opacity: 1; font-weight: normal; white-space: pre;"><tspan class="line" dy="0em" x="350" y="25">Températures moyennes par années et par saisons</tspan><tspan class="line" dy="1.3em" x="350" y="25">Station : Paris Le Bourget, Fr</tspan></text></g><g class="g-xtitle"/><g class="g-x2title"/><g class="g-x3title"/><g class="g-x4title"/><g class="g-ytitle"/><g class="g-y2title"/><g class="g-y3title"/><g class="g-y4title"/><g class="annotation" data-index="0" style="opacity: 1;"><g class="annotation-text-g" transform="rotate(0,163.85,87.5)"><g class="cursor-pointer" transform="translate(143,75)"><rect class="bg" x="0.5" y="0.5" width="40" height="24" style="stroke-width: 1px; stroke: rgb(0, 0, 0); stroke-opacity: 0; fill: rgb(0, 0, 0); fill-opacity: 0;"/><text class="annotation-text" text-anchor="middle" x="20.421875" y="19" style="font-family: -apple-system, system-ui, BlinkMacSystemFont, 'Segoe UI', Roboto, 'Helvetica Neue', Arial, sans-serif; font-size: 16px; fill: rgb(42, 63, 95); fill-opacity: 1; white-space: pre;">Hiver</text></g></g></g><g class="annotation" data-index="1" style="opacity: 1;"><g class="annotation-text-g" transform="rotate(0,530.15,87.5)"><g class="cursor-pointer" transform="translate(517,75)"><rect class="bg" x="0.5" y="0.5" width="25" height="24" style="stroke-width: 1px; stroke: rgb(0, 0, 0); stroke-opacity: 0; fill: rgb(0, 0, 0); fill-opacity: 0;"/><text class="annotation-text" text-anchor="middle" x="12.953125" y="19" style="font-family: -apple-system, system-ui, BlinkMacSystemFont, 'Segoe UI', Roboto, 'Helvetica Neue', Arial, sans-serif; font-size: 16px; fill: rgb(42, 63, 95); fill-opacity: 1; white-space: pre;">Eté</text></g></g></g><g class="annotation" data-index="2" style="opacity: 1;"><g class="annotation-text-g" transform="rotate(0,163.85,294.5)"><g class="cursor-pointer" transform="translate(129,282)"><rect class="bg" x="0.5" y="0.5" width="69" height="24" style="stroke-width: 1px; stroke: rgb(0, 0, 0); stroke-opacity: 0; fill: rgb(0, 0, 0); fill-opacity: 0;"/><text class="annotation-text" text-anchor="middle" x="35.6875" y="19" style="font-family: -apple-system, system-ui, BlinkMacSystemFont, 'Segoe UI', Roboto, 'Helvetica Neue', Arial, sans-serif; font-size: 16px; fill: rgb(42, 63, 95); fill-opacity: 1; white-space: pre;">Automne</text></g></g></g><g class="annotation" data-index="3" style="opacity: 1;"><g class="annotation-text-g" transform="rotate(0,530.15,294.5)"><g class="cursor-pointer" transform="translate(493,282)"><rect class="bg" x="0.5" y="0.5" width="74" height="24" style="stroke-width: 1px; stroke: rgb(0, 0, 0); stroke-opacity: 0; fill: rgb(0, 0, 0); fill-opacity: 0;"/><text class="annotation-text" text-anchor="middle" x="37.609375" y="19" style="font-family: -apple-system, system-ui, BlinkMacSystemFont, 'Segoe UI', Roboto, 'Helvetica Neue', Arial, sans-serif; font-size: 16px; fill: rgb(42, 63, 95); fill-opacity: 1; white-space: pre;">Printemps</text></g></g></g></g></svg>