<svg class="main-svg" xmlns="http://www.w3.org/2000/svg" xmlns:xlink="http://www.w3.org/1999/xlink" width="1100" height="800" style="" viewBox="0 0 1100 800"><rect x="0" y="0" width="1100" height="800" style="fill: rgb(255, 255, 255); fill-opacity: 1;"/><defs id="defs-d2e987"><g class="clips"><clipPath id="clipd2e987xyplot" class="plotclip"><rect width="395.55" height="263.5"/></clipPath><clipPath id="clipd2e987x2y2plot" class="plotclip"><rect width="395.54999999999995" height="263.5"/></clipPath><clipPath id="clipd2e987x3y3plot" class="plotclip"><rect width="395.55" height="263.5"/></clipPath><clipPath id="clipd2e987x4y4plot" class="plotclip"><rect width="395.54999999999995" height="263.5"/></clipPath><clipPath class="axesclip" id="clipd2e987x"><rect x="80" y="0" width="395.55" height="800"/></clipPath><clipPath class="axesclip" id="clipd2e987y"><rect x="0" y="100" width="1100" height="263.5"/></clipPath><clipPath class="axesclip" id="clipd2e987xy"><rect x="80" y="100" width="395.55" height="263.5"/></clipPath><clipPath class="axesclip" id="clipd2e987y2"><rect x="0" y="100" width="1100" height="263.5"/></clipPath><clipPath class="axesclip" id="clipd2e987xy2"><rect x="80" y="100" width="395.55" height="263.5"/></clipPath><clipPath class="axesclip" id="clipd2e987y3"><rect x="0" y="456.5" width="1100" height="263.5"/></clipPath><clipPath class="axesclip" id="clipd2e987xy3"><rect x="80" y="456.5" width="395.55" height="263.5"/></clipPath><clipPath class="axesclip" id="clipd2e987y4"><rect x="0" y="456.5" width="1100" height="263.5"/></clipPath><clipPath class="axesclip" id="clipd2e987xy4"><rect x="80" y="456.5" width="395.55" height="263.5"/></clipPath><clipPath class="axesclip" id="clipd2e987x2"><rect x="563.45" y="0" width="395.54999999999995" height="800"/></clipPath><clipPath class="axesclip" id="clipd2e987x2y"><rect x="563.45" y="100" width="395.54999999999995" height="263.5"/></clipPath><clipPath class="axesclip" id="clipd2e987x2y2"><rect x="563.45" y="100" width="395.54999999999995" height="263.5"/></clipPath><clipPath class="axesclip" id="clipd2e987x2y3"><rect x="563.45" y="456.5" width="395.54999999999995" height="263.5"/></clipPath><clipPath class="axesclip" id="clipd2e987x2y4"><rect x="563.45" y="456.5" width="395.54999999999995" height="263.5"/></clipPath><clipPath class="axesclip" id="clipd2e987x3"><rect x="80" y="0" width="395.55" height="800"/></clipPath><clipPath class="axesclip" id="clipd2e987x3y"><rect x="80" y="100" width="395.55" height="263.5"/></clipPath><clipPath class="axesclip" id="clipd2e987x3y2"><rect x="80" y="100" width="395.55" height="263.5"/></clipPath><clipPath class="axesclip" id="clipd2e987x3y3"><rect x="80" y="456.5" width="395.55" height="263.5"/></clipPath><clipPath class="axesclip" id="clipd2e987x3y4"><rect x="80" y="456.5" width="395.55" height="263.5"/></clipPath><clipPath class="axesclip" id="clipd2e987x4"><rect x="563.45" y="0" width="395.54999999999995" height="800"/></clipPath><clipPath class="axesclip" id="clipd2e987x4y"><rect x="563.45" y="100" width="395.54999999999995" height="263.5"/></clipPath><clipPath class="axesclip" id="clipd2e987x4y2"><rect x="563.45" y="100" width="395.54999999999995" height="263.5"/></clipPath><clipPath class="axesclip" id="clipd2e987x4y3"><rect x="563.45" y="456.5" width="395.54999999999995" height="263.5"/></clipPath><clipPath class="axesclip" id="clipd2e987x4y4"><rect x="563.45" y="456.5" width="395.54999999999995" height="263.5"/></clipPath></g><g class="gradients"/><g class="patterns"/></defs><g class="bglayer"><rect class="bg" x="80" y="100" width="395.55" height="263.5" style="fill: rgb(248, 248, 248); fill-opacity: 1; stroke-width: 0;"/><rect class="bg" x="563.45" y="100" width="395.54999999999995" height="263.5" style="fill: rgb(248, 248, 248); fill-opacity: 1; stroke-width: 0;"/><rect class="bg" x="80" y="456.5" width="395.55" height="263.5" style="fill: rgb(248, 248, 248); fill-opacity: 1; stroke-width: 0;"/><rect class="bg" x="563.45" y="456.5" width="395.54999999999995" height="263.5" style="fill: rgb(248, 248, 248); fill-opacity: 1; stroke-width: 0;"/></g><g class="layer-below"><g class="imagelayer"/><g class="shapelayer"/></g><g class="cartesianlayer"><g class="subplot xy"><g class="layer-subplot"><g class="shapelayer"/><g class="imagelayer"/></g><g class="gridlayer"><g class="x"><path class="xgrid crisp" transform="translate(211.85,0)" d="M0,100v263.5" style="stroke: rgb(210, 210, 210); stroke-opacity: 1; stroke-width: 0.1px;"/><path class="xgrid crisp" transform="translate(343.7,0)" d="M0,100v263.5" style="stroke: rgb(210, 210, 210); stroke-opacity: 1; stroke-width: 0.1px;"/></g><g class="y"><path class="ygrid crisp" transform="translate(0,280.4)" d="M80,0h395.55" style="stroke: rgb(210, 210, 210); stroke-opacity: 1; stroke-width: 0.1px;"/><path class="ygrid crisp" transform="translate(0,219.59)" d="M80,0h395.55" style="stroke: rgb(210, 210, 210); stroke-opacity: 1; stroke-width: 0.1px;"/><path class="ygrid crisp" transform="translate(0,158.78)" d="M80,0h395.55" style="stroke: rgb(210, 210, 210); stroke-opacity: 1; stroke-width: 0.1px;"/></g></g><g class="zerolinelayer"><path class="yzl zl crisp" transform="translate(0,341.2)" d="M80,0h395.55" style="stroke: rgb(210, 210, 210); stroke-opacity: 1; stroke-width: 0.1px;"/></g><path class="xlines-below"/><path class="ylines-below"/><g class="overlines-below"/><g class="xaxislayer-below"/><g class="yaxislayer-below"/><g class="overaxes-below"/><g class="plot" transform="translate(80,100)" clip-path="url(#clipd2e987xyplot)"><g class="scatterlayer mlayer"><g class="trace scatter trace5eda11" style="stroke-miterlimit: 2; opacity: 1;"><g class="fills"/><g class="errorbars"/><g class="lines"><path class="js-line" d="M0,198.64L6.59,146.95L13.18,216.88L19.78,98.31L26.37,125.67L32.96,122.63L39.56,146.95L46.15,174.32L52.74,83.1L59.33,73.98L65.92,125.67L72.52,83.1L79.11,134.79L85.7,116.55L92.3,131.75L98.89,92.22L105.48,165.19L112.07,86.14L118.66,67.9L125.26,89.18L131.85,101.35L138.44,58.78L145.03,113.51L151.63,250.32L158.22,119.59L164.81,101.35L171.41,61.82L178,80.06L184.59,125.67L191.18,128.71L197.77,104.39L204.37,83.1L210.96,86.14L217.55,107.43L224.15,13.17L230.74,58.78L237.33,95.27L243.92,52.7L250.51,104.39L257.11,134.79L263.7,101.35L270.29,101.35L276.89,77.02L283.48,83.1L290.07,80.06L296.66,134.79L303.25,140.87L309.85,165.19L316.44,19.26L323.03,58.78L329.63,31.42L336.22,122.63L342.81,83.1L349.4,52.7L355.99,40.54L362.59,49.66L369.18,128.71L375.77,80.06L382.36,46.62L388.96,49.66L395.55,31.42" style="vector-effect: non-scaling-stroke; fill: none; stroke: rgb(65, 105, 225); stroke-opacity: 1; stroke-width: 2px; opacity: 1;"/></g><g class="points"/><g class="text"/></g><g class="trace scatter traceed7160" style="stroke-miterlimit: 2; opacity: 1;"><g class="fills"/><g class="errorbars"/><g class="lines"><path class="js-line" d="M0,139.26L395.55,62.03" style="vector-effect: non-scaling-stroke; fill: none; stroke: rgb(255, 0, 0); stroke-opacity: 1; stroke-width: 2px; opacity: 1;"/></g><g class="points"/><g class="text"/></g></g></g><g class="overplot"/><path class="xlines-above crisp" d="M0,0" style="fill: none;"/><path class="ylines-above crisp" d="M0,0" style="fill: none;"/><g class="overlines-above"/><g class="xaxislayer-above"><g class="xtick"><text text-anchor="middle" x="0" y="376.5" transform="translate(80,0)" style="font-family: 'Open Sans', verdana, arial, sans-serif; font-size: 12px; fill: rgb(42, 63, 95); fill-opacity: 1; white-space: pre; opacity: 1;">1940</text></g><g class="xtick"><text text-anchor="middle" x="0" y="376.5" style="font-family: 'Open Sans', verdana, arial, sans-serif; font-size: 12px; fill: rgb(42, 63, 95); fill-opacity: 1; white-space: pre; opacity: 1;" transform="translate(211.85,0)">1960</text></g><g class="xtick"><text text-anchor="middle" x="0" y="376.5" style="font-family: 'Open Sans', verdana, arial, sans-serif; font-size: 12px; fill: rgb(42, 63, 95); fill-opacity: 1; white-space: pre; opacity: 1;" transform="translate(343.7,0)">1980</text></g><g class="xtick"><text text-anchor="middle" x="0" y="376.5" style="font-family: 'Open Sans', verdana, arial, sans-serif; font-size: 12px; fill: rgb(42, 63, 95); fill-opacity: 1; white-space: pre; opacity: 1;" transform="translate(475.55,0)">2000</text></g></g><g class="yaxislayer-above"><g class="ytick"><text text-anchor="end" x="79" y="4.199999999999999" transform="translate(0,341.2)" style="font-family: 'Open Sans', verdana, arial, sans-serif; font-size: 12px; fill: rgb(42, 63, 95); fill-opacity: 1; white-space: pre; opacity: 1;">0</text></g><g class="ytick"><text text-anchor="end" x="79" y="4.199999999999999" style="font-family: 'Open Sans', verdana, arial, sans-serif; font-size: 12px; fill: rgb(42, 63, 95); fill-opacity: 1; white-space: pre; opacity: 1;" transform="translate(0,280.4)">2</text></g><g class="ytick"><text text-anchor="end" x="79" y="4.199999999999999" style="font-family: 'Open Sans', verdana, arial, sans-serif; font-size: 12px; fill: rgb(42, 63, 95); fill-opacity: 1; white-space: pre; opacity: 1;" transform="translate(0,219.59)">4</text></g><g class="ytick"><text text-anchor="end" x="79" y="4.199999999999999" style="font-family: 'Open Sans', verdana, arial, sans-serif; font-size: 12px; fill: rgb(42, 63, 95); fill-opacity: 1; white-space: pre; opacity: 1;" transform="translate(0,158.78)">6</text></g></g><g class="overaxes-above"/></g><g class="subplot x2y2"><g class="layer-subplot"><g class="shapelayer"/><g class="imagelayer"/></g><g class="gridlayer"><g class="x2"><path class="x2grid crisp" transform="translate(695.3000000000001,0)" d="M0,100v263.5" style="stroke: rgb(210, 210, 210); stroke-opacity: 1; stroke-width: 0.1px;"/><path class="x2grid crisp" transform="translate(827.1500000000001,0)" d="M0,100v263.5" style="stroke: rgb(210, 210, 210); stroke-opacity: 1; stroke-width: 0.1px;"/></g><g class="y2"><path class="y2grid crisp" transform="translate(0,327.07)" d="M563.45,0h395.54999999999995" style="stroke: rgb(210, 210, 210); stroke-opacity: 1; stroke-width: 0.1px;"/><path class="y2grid crisp" transform="translate(0,280.58000000000004)" d="M563.45,0h395.54999999999995" style="stroke: rgb(210, 210, 210); stroke-opacity: 1; stroke-width: 0.1px;"/><path class="y2grid crisp" transform="translate(0,234.08)" d="M563.45,0h395.54999999999995" style="stroke: rgb(210, 210, 210); stroke-opacity: 1; stroke-width: 0.1px;"/><path class="y2grid crisp" transform="translate(0,187.57999999999998)" d="M563.45,0h395.54999999999995" style="stroke: rgb(210, 210, 210); stroke-opacity: 1; stroke-width: 0.1px;"/><path class="y2grid crisp" transform="translate(0,141.07999999999998)" d="M563.45,0h395.54999999999995" style="stroke: rgb(210, 210, 210); stroke-opacity: 1; stroke-width: 0.1px;"/></g></g><g class="zerolinelayer"/><path class="xlines-below"/><path class="ylines-below"/><g class="overlines-below"/><g class="xaxislayer-below"/><g class="yaxislayer-below"/><g class="overaxes-below"/><g class="plot" transform="translate(563.45,100)" clip-path="url(#clipd2e987x2y2plot)"><g class="scatterlayer mlayer"><g class="trace scatter trace779a9a" style="stroke-miterlimit: 2; opacity: 1;"><g class="fills"/><g class="errorbars"/><g class="lines"><path class="js-line" d="M0,161.98L6.59,143.38L13.18,148.03L19.78,129.42L26.37,124.78L32.96,101.53L39.56,180.58L46.15,22.48L52.74,194.52L59.33,110.83L65.92,96.88L72.52,185.23L79.11,110.83L92.3,217.77L98.89,134.08L105.48,250.32L112.07,148.03L118.66,171.28L125.26,78.28L131.85,180.58L138.44,157.33L145.03,189.88L151.63,185.23L158.22,124.78L164.81,203.82L171.41,166.63L178,138.73L184.59,180.58L191.18,143.38L197.77,129.42L204.37,152.67L210.96,208.48L217.55,106.17L224.15,157.33L230.74,101.53L237.33,13.18L243.92,208.48L250.51,217.77L257.11,175.92L263.7,189.88L270.29,166.63L283.48,36.43L290.07,134.08L296.66,171.28L303.25,134.08L309.85,166.63L316.44,161.98L323.03,96.88L329.63,96.88L336.22,129.42L342.81,92.23L349.4,148.03L355.99,64.33L362.59,55.03L369.18,110.83L375.77,64.33L382.36,124.78L388.96,82.93L395.55,115.48" style="vector-effect: non-scaling-stroke; fill: none; stroke: rgb(255, 215, 0); stroke-opacity: 1; stroke-width: 2px; opacity: 1;"/></g><g class="points"/><g class="text"/></g><g class="trace scatter trace9db11e" style="stroke-miterlimit: 2; opacity: 1;"><g class="fills"/><g class="errorbars"/><g class="lines"><path class="js-line" d="M0,160.81L395.55,116.64" style="vector-effect: non-scaling-stroke; fill: none; stroke: rgb(255, 0, 0); stroke-opacity: 1; stroke-width: 2px; opacity: 1;"/></g><g class="points"/><g class="text"/></g></g></g><g class="overplot"/><path class="xlines-above crisp" d="M0,0" style="fill: none;"/><path class="ylines-above crisp" d="M0,0" style="fill: none;"/><g class="overlines-above"/><g class="xaxislayer-above"><g class="x2tick"><text text-anchor="middle" x="0" y="376.5" transform="translate(563.45,0)" style="font-family: 'Open Sans', verdana, arial, sans-serif; font-size: 12px; fill: rgb(42, 63, 95); fill-opacity: 1; white-space: pre; opacity: 1;">1940</text></g><g class="x2tick"><text text-anchor="middle" x="0" y="376.5" style="font-family: 'Open Sans', verdana, arial, sans-serif; font-size: 12px; fill: rgb(42, 63, 95); fill-opacity: 1; white-space: pre; opacity: 1;" transform="translate(695.3000000000001,0)">1960</text></g><g class="x2tick"><text text-anchor="middle" x="0" y="376.5" style="font-family: 'Open Sans', verdana, arial, sans-serif; font-size: 12px; fill: rgb(42, 63, 95); fill-opacity: 1; white-space: pre; opacity: 1;" transform="translate(827.1500000000001,0)">1980</text></g><g class="x2tick"><text text-anchor="middle" x="0" y="376.5" style="font-family: 'Open Sans', verdana, arial, sans-serif; font-size: 12px; fill: rgb(42, 63, 95); fill-opacity: 1; white-space: pre; opacity: 1;" transform="translate(959,0)">2000</text></g></g><g class="yaxislayer-above"><g class="y2tick"><text text-anchor="end" x="562.45" y="4.199999999999999" transform="translate(0,327.07)" style="font-family: 'Open Sans', verdana, arial, sans-serif; font-size: 12px; fill: rgb(42, 63, 95); fill-opacity: 1; white-space: pre; opacity: 1;">17</text></g><g class="y2tick"><text text-anchor="end" x="562.45" y="4.199999999999999" style="font-family: 'Open Sans', verdana, arial, sans-serif; font-size: 12px; fill: rgb(42, 63, 95); fill-opacity: 1; white-space: pre; opacity: 1;" transform="translate(0,280.58000000000004)">18</text></g><g class="y2tick"><text text-anchor="end" x="562.45" y="4.199999999999999" style="font-family: 'Open Sans', verdana, arial, sans-serif; font-size: 12px; fill: rgb(42, 63, 95); fill-opacity: 1; white-space: pre; opacity: 1;" transform="translate(0,234.08)">19</text></g><g class="y2tick"><text text-anchor="end" x="562.45" y="4.199999999999999" style="font-family: 'Open Sans', verdana, arial, sans-serif; font-size: 12px; fill: rgb(42, 63, 95); fill-opacity: 1; white-space: pre; opacity: 1;" transform="translate(0,187.57999999999998)">20</text></g><g class="y2tick"><text text-anchor="end" x="562.45" y="4.199999999999999" style="font-family: 'Open Sans', verdana, arial, sans-serif; font-size: 12px; fill: rgb(42, 63, 95); fill-opacity: 1; white-space: pre; opacity: 1;" transform="translate(0,141.07999999999998)">21</text></g></g><g class="overaxes-above"/></g><g class="subplot x3y3"><g class="layer-subplot"><g class="shapelayer"/><g class="imagelayer"/></g><g class="gridlayer"><g class="x3"><path class="x3grid crisp" transform="translate(211.85,0)" d="M0,456.5v263.5" style="stroke: rgb(210, 210, 210); stroke-opacity: 1; stroke-width: 0.1px;"/><path class="x3grid crisp" transform="translate(343.7,0)" d="M0,456.5v263.5" style="stroke: rgb(210, 210, 210); stroke-opacity: 1; stroke-width: 0.1px;"/></g><g class="y3"><path class="y3grid crisp" transform="translate(0,687.6)" d="M80,0h395.55" style="stroke: rgb(210, 210, 210); stroke-opacity: 1; stroke-width: 0.1px;"/><path class="y3grid crisp" transform="translate(0,623.5)" d="M80,0h395.55" style="stroke: rgb(210, 210, 210); stroke-opacity: 1; stroke-width: 0.1px;"/><path class="y3grid crisp" transform="translate(0,559.41)" d="M80,0h395.55" style="stroke: rgb(210, 210, 210); stroke-opacity: 1; stroke-width: 0.1px;"/><path class="y3grid crisp" transform="translate(0,495.31)" d="M80,0h395.55" style="stroke: rgb(210, 210, 210); stroke-opacity: 1; stroke-width: 0.1px;"/></g></g><g class="zerolinelayer"/><path class="xlines-below"/><path class="ylines-below"/><g class="overlines-below"/><g class="xaxislayer-below"/><g class="yaxislayer-below"/><g class="overaxes-below"/><g class="plot" transform="translate(80,456.5)" clip-path="url(#clipd2e987x3y3plot)"><g class="scatterlayer mlayer"><g class="trace scatter trace7e7ecc" style="stroke-miterlimit: 2; opacity: 1;"><g class="fills"/><g class="errorbars"/><g class="lines"><path class="js-line" d="M0,128.55L6.59,122.14L13.18,109.32L19.78,147.77L26.37,167L32.96,83.68L39.56,109.32L46.15,19.58L52.74,147.77L59.33,19.58L65.92,141.36L72.52,70.86L79.11,250.33L85.7,102.91L92.3,77.27L98.89,147.77L105.48,128.55L112.07,128.55L118.66,77.27L125.26,13.18L131.85,96.5L138.44,32.4L145.03,134.95L151.63,51.63L158.22,102.91L164.81,147.77L171.41,96.5L178,77.27L184.59,83.68L191.18,25.99L197.77,19.58L204.37,90.09L210.96,147.77L217.55,77.27L224.15,179.82L230.74,128.55L237.33,83.68L243.92,77.27L250.51,90.09L257.11,70.86L263.7,115.73L270.29,83.68L276.89,19.58L283.48,64.45L290.07,45.22L296.66,115.73L303.25,64.45L309.85,32.4L316.44,90.09L323.03,13.18L329.63,45.22L336.22,64.45L342.81,102.91L349.4,224.69L355.99,19.58L362.59,25.99L369.18,115.73L375.77,19.58L382.36,122.14L388.96,45.22L395.55,32.4" style="vector-effect: non-scaling-stroke; fill: none; stroke: rgb(243, 135, 47); stroke-opacity: 1; stroke-width: 2px; opacity: 1;"/></g><g class="points"/><g class="text"/></g><g class="trace scatter trace31fd52" style="stroke-miterlimit: 2; opacity: 1;"><g class="fills"/><g class="errorbars"/><g class="lines"><path class="js-line" d="M0,117.46L145.03,97.07L151.63,96.18L303.25,74.83L309.85,73.94L395.55,61.89" style="vector-effect: non-scaling-stroke; fill: none; stroke: rgb(255, 0, 0); stroke-opacity: 1; stroke-width: 2px; opacity: 1;"/></g><g class="points"/><g class="text"/></g></g></g><g class="overplot"/><path class="xlines-above crisp" d="M0,0" style="fill: none;"/><path class="ylines-above crisp" d="M0,0" style="fill: none;"/><g class="overlines-above"/><g class="xaxislayer-above"><g class="x3tick"><text text-anchor="middle" x="0" y="733" transform="translate(80,0)" style="font-family: 'Open Sans', verdana, arial, sans-serif; font-size: 12px; fill: rgb(42, 63, 95); fill-opacity: 1; white-space: pre; opacity: 1;">1940</text></g><g class="x3tick"><text text-anchor="middle" x="0" y="733" style="font-family: 'Open Sans', verdana, arial, sans-serif; font-size: 12px; fill: rgb(42, 63, 95); fill-opacity: 1; white-space: pre; opacity: 1;" transform="translate(211.85,0)">1960</text></g><g class="x3tick"><text text-anchor="middle" x="0" y="733" style="font-family: 'Open Sans', verdana, arial, sans-serif; font-size: 12px; fill: rgb(42, 63, 95); fill-opacity: 1; white-space: pre; opacity: 1;" transform="translate(343.7,0)">1980</text></g><g class="x3tick"><text text-anchor="middle" x="0" y="733" style="font-family: 'Open Sans', verdana, arial, sans-serif; font-size: 12px; fill: rgb(42, 63, 95); fill-opacity: 1; white-space: pre; opacity: 1;" transform="translate(475.55,0)">2000</text></g></g><g class="yaxislayer-above"><g class="y3tick"><text text-anchor="end" x="79" y="4.199999999999999" transform="translate(0,687.6)" style="font-family: 'Open Sans', verdana, arial, sans-serif; font-size: 12px; fill: rgb(42, 63, 95); fill-opacity: 1; white-space: pre; opacity: 1;">10</text></g><g class="y3tick"><text text-anchor="end" x="79" y="4.199999999999999" style="font-family: 'Open Sans', verdana, arial, sans-serif; font-size: 12px; fill: rgb(42, 63, 95); fill-opacity: 1; white-space: pre; opacity: 1;" transform="translate(0,623.5)">11</text></g><g class="y3tick"><text text-anchor="end" x="79" y="4.199999999999999" style="font-family: 'Open Sans', verdana, arial, sans-serif; font-size: 12px; fill: rgb(42, 63, 95); fill-opacity: 1; white-space: pre; opacity: 1;" transform="translate(0,559.41)">12</text></g><g class="y3tick"><text text-anchor="end" x="79" y="4.199999999999999" style="font-family: 'Open Sans', verdana, arial, sans-serif; font-size: 12px; fill: rgb(42, 63, 95); fill-opacity: 1; white-space: pre; opacity: 1;" transform="translate(0,495.31)">13</text></g></g><g class="overaxes-above"/></g><g class="subplot x4y4"><g class="layer-subplot"><g class="shapelayer"/><g class="imagelayer"/></g><g class="gridlayer"><g class="x4"><path class="x4grid crisp" transform="translate(695.3000000000001,0)" d="M0,456.5v263.5" style="stroke: rgb(210, 210, 210); stroke-opacity: 1; stroke-width: 0.1px;"/><path class="x4grid crisp" transform="translate(827.1500000000001,0)" d="M0,456.5v263.5" style="stroke: rgb(210, 210, 210); stroke-opacity: 1; stroke-width: 0.1px;"/></g><g class="y4"><path class="y4grid crisp" transform="translate(0,712.75)" d="M563.45,0h395.54999999999995" style="stroke: rgb(210, 210, 210); stroke-opacity: 1; stroke-width: 0.1px;"/><path class="y4grid crisp" transform="translate(0,653.47)" d="M563.45,0h395.54999999999995" style="stroke: rgb(210, 210, 210); stroke-opacity: 1; stroke-width: 0.1px;"/><path class="y4grid crisp" transform="translate(0,594.1800000000001)" d="M563.45,0h395.54999999999995" style="stroke: rgb(210, 210, 210); stroke-opacity: 1; stroke-width: 0.1px;"/><path class="y4grid crisp" transform="translate(0,534.89)" d="M563.45,0h395.54999999999995" style="stroke: rgb(210, 210, 210); stroke-opacity: 1; stroke-width: 0.1px;"/><path class="y4grid crisp" transform="translate(0,475.6)" d="M563.45,0h395.54999999999995" style="stroke: rgb(210, 210, 210); stroke-opacity: 1; stroke-width: 0.1px;"/></g></g><g class="zerolinelayer"/><path class="xlines-below"/><path class="ylines-below"/><g class="overlines-below"/><g class="xaxislayer-below"/><g class="yaxislayer-below"/><g class="overaxes-below"/><g class="plot" transform="translate(563.45,456.5)" clip-path="url(#clipd2e987x4y4plot)"><g class="scatterlayer mlayer"><g class="trace scatter traceecf08b" style="stroke-miterlimit: 2; opacity: 1;"><g class="fills"/><g class="errorbars"/><g class="lines"><path class="js-line" d="M0,113.96L6.59,220.68L13.18,84.32L19.78,36.89L26.37,143.61L32.96,13.17L39.56,119.89L46.15,54.68L52.74,42.82L59.33,137.68L65.92,119.89L72.52,208.82L79.11,42.82L85.7,66.53L92.3,149.54L98.89,208.82L105.48,149.54L112.07,119.89L118.66,208.82L125.26,60.61L131.85,66.53L138.44,48.75L145.03,250.33L151.63,161.39L158.22,125.82L164.81,143.61L171.41,119.89L178,143.61L184.59,155.47L191.18,131.75L197.77,220.68L204.37,125.82L210.96,125.82L217.55,167.32L224.15,125.82L230.74,208.82L237.33,131.75L243.92,137.68L250.51,167.32L257.11,185.11L263.7,179.18L270.29,78.39L276.89,131.75L283.48,173.25L290.07,208.82L296.66,149.54L303.25,196.97L309.85,167.32L316.44,96.18L323.03,42.82L329.63,36.89L336.22,113.96L342.81,54.68L349.4,54.68L355.99,78.39L369.18,161.39L375.77,48.75L382.36,54.68L388.96,13.17L395.55,54.68" style="vector-effect: non-scaling-stroke; fill: none; stroke: rgb(97, 177, 90); stroke-opacity: 1; stroke-width: 2px; opacity: 1;"/></g><g class="points"/><g class="text"/></g><g class="trace scatter trace30dbc1" style="stroke-miterlimit: 2; opacity: 1;"><g class="fills"/><g class="errorbars"/><g class="lines"><path class="js-line" d="M0,131.81L112.07,126.41L118.66,126.12L395.55,112.84" style="vector-effect: non-scaling-stroke; fill: none; stroke: rgb(255, 0, 0); stroke-opacity: 1; stroke-width: 2px; opacity: 1;"/></g><g class="points"/><g class="text"/></g></g></g><g class="overplot"/><path class="xlines-above crisp" d="M0,0" style="fill: none;"/><path class="ylines-above crisp" d="M0,0" style="fill: none;"/><g class="overlines-above"/><g class="xaxislayer-above"><g class="x4tick"><text text-anchor="middle" x="0" y="733" transform="translate(563.45,0)" style="font-family: 'Open Sans', verdana, arial, sans-serif; font-size: 12px; fill: rgb(42, 63, 95); fill-opacity: 1; white-space: pre; opacity: 1;">1940</text></g><g class="x4tick"><text text-anchor="middle" x="0" y="733" style="font-family: 'Open Sans', verdana, arial, sans-serif; font-size: 12px; fill: rgb(42, 63, 95); fill-opacity: 1; white-space: pre; opacity: 1;" transform="translate(695.3000000000001,0)">1960</text></g><g class="x4tick"><text text-anchor="middle" x="0" y="733" style="font-family: 'Open Sans', verdana, arial, sans-serif; font-size: 12px; fill: rgb(42, 63, 95); fill-opacity: 1; white-space: pre; opacity: 1;" transform="translate(827.1500000000001,0)">1980</text></g><g class="x4tick"><text text-anchor="middle" x="0" y="733" style="font-family: 'Open Sans', verdana, arial, sans-serif; font-size: 12px; fill: rgb(42, 63, 95); fill-opacity: 1; white-space: pre; opacity: 1;" transform="translate(959,0)">2000</text></g></g><g class="yaxislayer-above"><g class="y4tick"><text text-anchor="end" x="562.45" y="4.199999999999999" transform="translate(0,712.75)" style="font-family: 'Open Sans', verdana, arial, sans-serif; font-size: 12px; fill: rgb(42, 63, 95); fill-opacity: 1; white-space: pre; opacity: 1;">9</text></g><g class="y4tick"><text text-anchor="end" x="562.45" y="4.199999999999999" style="font-family: 'Open Sans', verdana, arial, sans-serif; font-size: 12px; fill: rgb(42, 63, 95); fill-opacity: 1; white-space: pre; opacity: 1;" transform="translate(0,653.47)">10</text></g><g class="y4tick"><text text-anchor="end" x="562.45" y="4.199999999999999" style="font-family: 'Open Sans', verdana, arial, sans-serif; font-size: 12px; fill: rgb(42, 63, 95); fill-opacity: 1; white-space: pre; opacity: 1;" transform="translate(0,594.1800000000001)">11</text></g><g class="y4tick"><text text-anchor="end" x="562.45" y="4.199999999999999" style="font-family: 'Open Sans', verdana, arial, sans-serif; font-size: 12px; fill: rgb(42, 63, 95); fill-opacity: 1; white-space: pre; opacity: 1;" transform="translate(0,534.89)">12</text></g><g class="y4tick"><text text-anchor="end" x="562.45" y="4.199999999999999" style="font-family: 'Open Sans', verdana, arial, sans-serif; font-size: 12px; fill: rgb(42, 63, 95); fill-opacity: 1; white-space: pre; opacity: 1;" transform="translate(0,475.6)">13</text></g></g><g class="overaxes-above"/></g></g><g class="polarlayer"/><g class="smithlayer"/><g class="ternarylayer"/><g class="geolayer"/><g class="funnelarealayer"/><g class="pielayer"/><g class="iciclelayer"/><g class="treemaplayer"/><g class="sunburstlayer"/><g class="glimages"/><defs id="topdefs-d2e987"><g class="clips"/><clipPath id="legendd2e987"><rect width="111" height="155" x="0" y="0"/></clipPath></defs><g class="layer-above"><g class="imagelayer"/><g class="shapelayer"/></g><g class="infolayer"><g class="legend" pointer-events="all" transform="translate(976.58,100)"><rect class="bg" shape-rendering="crispEdges" width="111" height="155" x="0" y="0" style="stroke: rgb(68, 68, 68); stroke-opacity: 1; fill: rgb(255, 255, 255); fill-opacity: 1; stroke-width: 0px;"/><g class="scrollbox" transform="" clip-path="url(#legendd2e987)"><g class="groups" transform=""><g class="traces" transform="translate(0,14.950000000000001)" style="opacity: 1;"><text class="legendtext" text-anchor="start" x="5" y="5.07" style="font-family: 'Open Sans', verdana, arial, sans-serif; font-size: 13px; fill: rgb(42, 63, 95); fill-opacity: 1; white-space: pre;"><tspan style="font-weight:bold">Saisons</tspan></text><g class="layers"><g class="legendfill"/><g class="legendlines"/><g class="legendsymbols"><g class="legendpoints"/></g></g><rect class="legendtoggle" x="0" y="-9.950000000000001" width="105.921875" height="19.900000000000002" style="fill: rgb(0, 0, 0); fill-opacity: 0;"/></g><g class="traces" transform="translate(0,34.400000000000006)" style="opacity: 1;"><text class="legendtext" text-anchor="start" x="40" y="4.680000000000001" style="font-family: 'Open Sans', verdana, arial, sans-serif; font-size: 12px; fill: rgb(42, 63, 95); fill-opacity: 1; white-space: pre;">Hiver</text><g class="layers" style="opacity: 1;"><g class="legendfill"/><g class="legendlines"><path class="js-line" d="M5,0h30" style="fill: none; stroke: rgb(65, 105, 225); stroke-opacity: 1; stroke-width: 2px;"/></g><g class="legendsymbols"><g class="legendpoints"/></g></g><rect class="legendtoggle" x="0" y="-9.5" width="105.921875" height="19" style="fill: rgb(0, 0, 0); fill-opacity: 0;"/></g><g class="traces" transform="translate(0,53.400000000000006)" style="opacity: 1;"><text class="legendtext" text-anchor="start" x="40" y="4.680000000000001" style="font-family: 'Open Sans', verdana, arial, sans-serif; font-size: 12px; fill: rgb(42, 63, 95); fill-opacity: 1; white-space: pre;">Eté</text><g class="layers" style="opacity: 1;"><g class="legendfill"/><g class="legendlines"><path class="js-line" d="M5,0h30" style="fill: none; stroke: rgb(255, 215, 0); stroke-opacity: 1; stroke-width: 2px;"/></g><g class="legendsymbols"><g class="legendpoints"/></g></g><rect class="legendtoggle" x="0" y="-9.5" width="105.921875" height="19" style="fill: rgb(0, 0, 0); fill-opacity: 0;"/></g><g class="traces" transform="translate(0,72.4)" style="opacity: 1;"><text class="legendtext" text-anchor="start" x="40" y="4.680000000000001" style="font-family: 'Open Sans', verdana, arial, sans-serif; font-size: 12px; fill: rgb(42, 63, 95); fill-opacity: 1; white-space: pre;">Automne</text><g class="layers" style="opacity: 1;"><g class="legendfill"/><g class="legendlines"><path class="js-line" d="M5,0h30" style="fill: none; stroke: rgb(243, 135, 47); stroke-opacity: 1; stroke-width: 2px;"/></g><g class="legendsymbols"><g class="legendpoints"/></g></g><rect class="legendtoggle" x="0" y="-9.5" width="105.921875" height="19" style="fill: rgb(0, 0, 0); fill-opacity: 0;"/></g><g class="traces" transform="translate(0,91.4)" style="opacity: 1;"><text class="legendtext" text-anchor="start" x="40" y="4.680000000000001" style="font-family: 'Open Sans', verdana, arial, sans-serif; font-size: 12px; fill: rgb(42, 63, 95); fill-opacity: 1; white-space: pre;">Printemps</text><g class="layers" style="opacity: 1;"><g class="legendfill"/><g class="legendlines"><path class="js-line" d="M5,0h30" style="fill: none; stroke: rgb(97, 177, 90); stroke-opacity: 1; stroke-width: 2px;"/></g><g class="legendsymbols"><g class="legendpoints"/></g></g><rect class="legendtoggle" x="0" y="-9.5" width="105.921875" height="19" style="fill: rgb(0, 0, 0); fill-opacity: 0;"/></g></g><g class="groups" transform="translate(0,10)"><g class="traces" transform="translate(0,110.85000000000001)" style="opacity: 1;"><text class="legendtext" text-anchor="start" x="5" y="5.07" style="font-family: 'Open Sans', verdana, arial, sans-serif; font-size: 13px; fill: rgb(42, 63, 95); fill-opacity: 1; white-space: pre;"><tspan style="font-weight:bold">Statistique</tspan></text><g class="layers"><g class="legendfill"/><g class="legendlines"/><g class="legendsymbols"><g class="legendpoints"/></g></g><rect class="legendtoggle" x="0" y="-9.950000000000001" width="105.921875" height="19.900000000000002" style="fill: rgb(0, 0, 0); fill-opacity: 0;"/></g><g class="traces" transform="translate(0,130.3)" style="opacity: 1;"><text class="legendtext" text-anchor="start" x="40" y="4.680000000000001" style="font-family: 'Open Sans', verdana, arial, sans-serif; font-size: 12px; fill: rgb(42, 63, 95); fill-opacity: 1; white-space: pre;">Régression</text><g class="layers" style="opacity: 1;"><g class="legendfill"/><g class="legendlines"><path class="js-line" d="M5,0h30" style="fill: none; stroke: rgb(255, 0, 0); stroke-opacity: 1; stroke-width: 2px;"/></g><g class="legendsymbols"><g class="legendpoints"/></g></g><rect class="legendtoggle" x="0" y="-9.5" width="105.921875" height="19" style="fill: rgb(0, 0, 0); fill-opacity: 0;"/></g></g></g><rect class="scrollbar" rx="20" ry="3" width="0" height="0" x="0" y="0" style="fill: rgb(128, 139, 164); fill-opacity: 1;"/></g><g class="g-gtitle"><text class="gtitle" x="55" y="50" text-anchor="start" dy="0em" style="font-family: 'Open Sans', verdana, arial, sans-serif; font-size: 17px; fill: rgb(42, 63, 95); opacity: 1; font-weight: normal; white-space: pre;"><tspan class="line" dy="0em" x="55" y="50">Températures moyennes par années et par saisons</tspan><tspan class="line" dy="1.3em" x="55" y="50">Station : Paris Le Bourget, Fr</tspan></text></g><g class="g-xtitle"/><g class="g-x2title"/><g class="g-x3title"/><g class="g-x4title"/><g class="g-ytitle"/><g class="g-y2title"/><g class="g-y3title"/><g class="g-y4title"/><g class="annotation" data-index="0" style="opacity: 1;"><g class="annotation-text-g" transform="rotate(0,285.63,772.5)"><g class="cursor-pointer" transform="translate(54,763)"><rect class="bg" x="0.5" y="0.5" width="463" height="18" style="stroke-width: 1px; stroke: rgb(0, 0, 0); stroke-opacity: 0; fill: rgb(0, 0, 0); fill-opacity: 0;"/><text class="annotation-text" text-anchor="middle" x="232.140625" y="14" style="font-family: 'Open Sans', verdana, arial, sans-serif; font-size: 12px; fill: rgb(42, 63, 95); fill-opacity: 1; white-space: pre;">Source : Données NOAA (National Oceanic and Atmospheric Administration)</text></g></g></g></g></svg>