<svg class="main-svg" xmlns="http://www.w3.org/2000/svg" xmlns:xlink="http://www.w3.org/1999/xlink" width="700" height="600" style="" viewBox="0 0 700 600"><rect x="0" y="0" width="700" height="600" style="fill: rgb(255, 255, 255); fill-opacity: 1;"/><defs id="defs-47f907"><g class="clips"><clipPath id="clip47f907xyplot" class="plotclip"><rect width="302.85" height="181.5"/></clipPath><clipPath id="clip47f907x2y2plot" class="plotclip"><rect width="302.84999999999997" height="181.5"/></clipPath><clipPath id="clip47f907x3y3plot" class="plotclip"><rect width="302.85" height="181.5"/></clipPath><clipPath id="clip47f907x4y4plot" class="plotclip"><rect width="302.84999999999997" height="181.5"/></clipPath><clipPath class="axesclip" id="clip47f907x"><rect x="14" y="0" width="302.85" height="600"/></clipPath><clipPath class="axesclip" id="clip47f907y"><rect x="0" y="100" width="700" height="181.5"/></clipPath><clipPath class="axesclip" id="clip47f907xy"><rect x="14" y="100" width="302.85" height="181.5"/></clipPath><clipPath class="axesclip" id="clip47f907y2"><rect x="0" y="100" width="700" height="181.5"/></clipPath><clipPath class="axesclip" id="clip47f907xy2"><rect x="14" y="100" width="302.85" height="181.5"/></clipPath><clipPath class="axesclip" id="clip47f907y3"><rect x="0" y="402.5" width="700" height="181.5"/></clipPath><clipPath class="axesclip" id="clip47f907xy3"><rect x="14" y="402.5" width="302.85" height="181.5"/></clipPath><clipPath class="axesclip" id="clip47f907y4"><rect x="0" y="402.5" width="700" height="181.5"/></clipPath><clipPath class="axesclip" id="clip47f907xy4"><rect x="14" y="402.5" width="302.85" height="181.5"/></clipPath><clipPath class="axesclip" id="clip47f907x2"><rect x="384.15000000000003" y="0" width="302.84999999999997" height="600"/></clipPath><clipPath class="axesclip" id="clip47f907x2y"><rect x="384.15000000000003" y="100" width="302.84999999999997" height="181.5"/></clipPath><clipPath class="axesclip" id="clip47f907x2y2"><rect x="384.15000000000003" y="100" width="302.84999999999997" height="181.5"/></clipPath><clipPath class="axesclip" id="clip47f907x2y3"><rect x="384.15000000000003" y="402.5" width="302.84999999999997" height="181.5"/></clipPath><clipPath class="axesclip" id="clip47f907x2y4"><rect x="384.15000000000003" y="402.5" width="302.84999999999997" height="181.5"/></clipPath><clipPath class="axesclip" id="clip47f907x3"><rect x="14" y="0" width="302.85" height="600"/></clipPath><clipPath class="axesclip" id="clip47f907x3y"><rect x="14" y="100" width="302.85" height="181.5"/></clipPath><clipPath class="axesclip" id="clip47f907x3y2"><rect x="14" y="100" width="302.85" height="181.5"/></clipPath><clipPath class="axesclip" id="clip47f907x3y3"><rect x="14" y="402.5" width="302.85" height="181.5"/></clipPath><clipPath class="axesclip" id="clip47f907x3y4"><rect x="14" y="402.5" width="302.85" height="181.5"/></clipPath><clipPath class="axesclip" id="clip47f907x4"><rect x="384.15000000000003" y="0" width="302.84999999999997" height="600"/></clipPath><clipPath class="axesclip" id="clip47f907x4y"><rect x="384.15000000000003" y="100" width="302.84999999999997" height="181.5"/></clipPath><clipPath class="axesclip" id="clip47f907x4y2"><rect x="384.15000000000003" y="100" width="302.84999999999997" height="181.5"/></clipPath><clipPath class="axesclip" id="clip47f907x4y3"><rect x="384.15000000000003" y="402.5" width="302.84999999999997" height="181.5"/></clipPath><clipPath class="axesclip" id="clip47f907x4y4"><rect x="384.15000000000003" y="402.5" width="302.84999999999997" height="181.5"/></clipPath></g><g class="gradients"/><g class="patterns"/></defs><g class="bglayer"><rect class="bg" x="14" y="100" width="302.85" height="181.5" style="fill: rgb(249, 249, 249); fill-opacity: 1; stroke-width: 0;"/><rect class="bg" x="384.15000000000003" y="100" width="302.84999999999997" height="181.5" style="fill: rgb(249, 249, 249); fill-opacity: 1; stroke-width: 0;"/><rect class="bg" x="14" y="402.5" width="302.85" height="181.5" style="fill: rgb(249, 249, 249); fill-opacity: 1; stroke-width: 0;"/><rect class="bg" x="384.15000000000003" y="402.5" width="302.84999999999997" height="181.5" style="fill: rgb(249, 249, 249); fill-opacity: 1; stroke-width: 0;"/></g><g class="layer-below"><g class="imagelayer"/><g class="shapelayer"/></g><g class="cartesianlayer"><g class="subplot xy"><g class="layer-subplot"><g class="shapelayer"/><g class="imagelayer"/></g><g class="gridlayer"><g class="x"><path class="xgrid crisp" transform="translate(114.95,0)" d="M0,100v181.5" style="stroke: rgb(220, 220, 220); stroke-opacity: 1; stroke-width: 0.1px;"/><path class="xgrid crisp" transform="translate(215.9,0)" d="M0,100v181.5" style="stroke: rgb(220, 220, 220); stroke-opacity: 1; stroke-width: 0.1px;"/></g><g class="y"><path class="ygrid crisp" transform="translate(0,224.26)" d="M14,0h302.85" style="stroke: rgb(220, 220, 220); stroke-opacity: 1; stroke-width: 0.1px;"/><path class="ygrid crisp" transform="translate(0,182.37)" d="M14,0h302.85" style="stroke: rgb(220, 220, 220); stroke-opacity: 1; stroke-width: 0.1px;"/><path class="ygrid crisp" transform="translate(0,140.49)" d="M14,0h302.85" style="stroke: rgb(220, 220, 220); stroke-opacity: 1; stroke-width: 0.1px;"/></g></g><g class="zerolinelayer"><path class="yzl zl crisp" transform="translate(0,266.14)" d="M14,0h302.85" style="stroke: rgb(211, 211, 211); stroke-opacity: 1; stroke-width: 2px;"/></g><path class="xlines-below"/><path class="ylines-below"/><g class="overlines-below"/><g class="xaxislayer-below"/><g class="yaxislayer-below"/><g class="overaxes-below"/><g class="plot" transform="translate(14,100)" clip-path="url(#clip47f907xyplot)"><g class="scatterlayer mlayer"><g class="trace scatter trace1fabb2" style="stroke-miterlimit: 2; opacity: 1;"><g class="fills"/><g class="errorbars"/><g class="lines"><path class="js-line" d="M0,136.82L5.05,101.22L10.09,149.39L15.14,67.71L20.19,86.56L25.24,84.47L30.28,101.22L35.33,120.07L40.38,57.24L45.43,50.96L50.47,86.56L55.52,57.24L60.57,92.84L65.62,80.28L70.66,90.75L75.71,63.52L80.76,113.79L85.81,59.34L90.85,46.77L95.9,61.43L100.95,69.81L106,40.49L111.05,78.18L116.09,172.43L121.14,82.37L126.19,69.81L131.23,42.58L136.28,55.15L141.33,86.56L146.38,88.66L151.42,71.9L156.47,57.24L161.52,59.34L166.57,74L171.61,9.07L176.66,40.49L181.71,65.62L186.76,36.3L191.8,71.9L196.85,92.84L201.9,69.81L206.95,69.81L211.99,53.05L217.04,57.24L222.09,55.15L227.14,92.84L232.18,97.03L237.23,113.79L242.28,13.26L247.33,40.49L252.38,21.64L257.42,84.47L262.47,57.24L267.52,36.3L272.56,27.92L277.61,34.21L282.66,88.66L287.71,55.15L292.75,32.11L297.8,34.21L302.85,21.64" style="vector-effect: non-scaling-stroke; fill: none; stroke: rgb(65, 105, 225); stroke-opacity: 1; stroke-width: 2px; opacity: 1;"/></g><g class="points"/><g class="text"/></g><g class="trace scatter trace99e0f4" style="stroke-miterlimit: 2; opacity: 1;"><g class="fills"/><g class="errorbars"/><g class="lines"><path class="js-line" d="M0,95.92L302.85,42.73" style="vector-effect: non-scaling-stroke; fill: none; stroke: rgb(255, 0, 0); stroke-opacity: 1; stroke-width: 2px; opacity: 1;"/></g><g class="points"/><g class="text"/></g></g></g><g class="overplot"/><path class="xlines-above crisp" d="M0,0" style="fill: none;"/><path class="ylines-above crisp" d="M0,0" style="fill: none;"/><g class="overlines-above"/><g class="xaxislayer-above"><g class="xtick"><text text-anchor="middle" x="0" y="294.5" transform="translate(14,0)" style="font-family: -apple-system, system-ui, BlinkMacSystemFont, 'Segoe UI', Roboto, 'Helvetica Neue', Arial, sans-serif; font-size: 12px; fill: rgb(42, 63, 95); fill-opacity: 1; white-space: pre; opacity: 1;">1940</text></g><g class="xtick"><text text-anchor="middle" x="0" y="294.5" style="font-family: -apple-system, system-ui, BlinkMacSystemFont, 'Segoe UI', Roboto, 'Helvetica Neue', Arial, sans-serif; font-size: 12px; fill: rgb(42, 63, 95); fill-opacity: 1; white-space: pre; opacity: 1;" transform="translate(114.95,0)">1960</text></g><g class="xtick"><text text-anchor="middle" x="0" y="294.5" style="font-family: -apple-system, system-ui, BlinkMacSystemFont, 'Segoe UI', Roboto, 'Helvetica Neue', Arial, sans-serif; font-size: 12px; fill: rgb(42, 63, 95); fill-opacity: 1; white-space: pre; opacity: 1;" transform="translate(215.9,0)">1980</text></g><g class="xtick"><text text-anchor="middle" x="0" y="294.5" style="font-family: -apple-system, system-ui, BlinkMacSystemFont, 'Segoe UI', Roboto, 'Helvetica Neue', Arial, sans-serif; font-size: 12px; fill: rgb(42, 63, 95); fill-opacity: 1; white-space: pre; opacity: 1;" transform="translate(316.85,0)">2000</text></g></g><g class="yaxislayer-above"><g class="ytick"><text text-anchor="end" x="13" y="4.199999999999999" transform="translate(0,266.14)" style="font-family: -apple-system, system-ui, BlinkMacSystemFont, 'Segoe UI', Roboto, 'Helvetica Neue', Arial, sans-serif; font-size: 12px; fill: rgb(42, 63, 95); fill-opacity: 1; white-space: pre; opacity: 1;">0</text></g><g class="ytick"><text text-anchor="end" x="13" y="4.199999999999999" style="font-family: -apple-system, system-ui, BlinkMacSystemFont, 'Segoe UI', Roboto, 'Helvetica Neue', Arial, sans-serif; font-size: 12px; fill: rgb(42, 63, 95); fill-opacity: 1; white-space: pre; opacity: 1;" transform="translate(0,224.26)">2</text></g><g class="ytick"><text text-anchor="end" x="13" y="4.199999999999999" style="font-family: -apple-system, system-ui, BlinkMacSystemFont, 'Segoe UI', Roboto, 'Helvetica Neue', Arial, sans-serif; font-size: 12px; fill: rgb(42, 63, 95); fill-opacity: 1; white-space: pre; opacity: 1;" transform="translate(0,182.37)">4</text></g><g class="ytick"><text text-anchor="end" x="13" y="4.199999999999999" style="font-family: -apple-system, system-ui, BlinkMacSystemFont, 'Segoe UI', Roboto, 'Helvetica Neue', Arial, sans-serif; font-size: 12px; fill: rgb(42, 63, 95); fill-opacity: 1; white-space: pre; opacity: 1;" transform="translate(0,140.49)">6</text></g></g><g class="overaxes-above"/></g><g class="subplot x2y2"><g class="layer-subplot"><g class="shapelayer"/><g class="imagelayer"/></g><g class="gridlayer"><g class="x2"><path class="x2grid crisp" transform="translate(485.1,0)" d="M0,100v181.5" style="stroke: rgb(220, 220, 220); stroke-opacity: 1; stroke-width: 0.1px;"/><path class="x2grid crisp" transform="translate(586.0500000000001,0)" d="M0,100v181.5" style="stroke: rgb(220, 220, 220); stroke-opacity: 1; stroke-width: 0.1px;"/></g><g class="y2"><path class="y2grid crisp" transform="translate(0,224.38)" d="M384.15000000000003,0h302.84999999999997" style="stroke: rgb(220, 220, 220); stroke-opacity: 1; stroke-width: 0.1px;"/><path class="y2grid crisp" transform="translate(0,160.32)" d="M384.15000000000003,0h302.84999999999997" style="stroke: rgb(220, 220, 220); stroke-opacity: 1; stroke-width: 0.1px;"/></g></g><g class="zerolinelayer"/><path class="xlines-below"/><path class="ylines-below"/><g class="overlines-below"/><g class="xaxislayer-below"/><g class="yaxislayer-below"/><g class="overaxes-below"/><g class="plot" transform="translate(384.15000000000003,100)" clip-path="url(#clip47f907x2y2plot)"><g class="scatterlayer mlayer"><g class="trace scatter trace9eb3fe" style="stroke-miterlimit: 2; opacity: 1;"><g class="fills"/><g class="errorbars"/><g class="lines"><path class="js-line" d="M0,111.57L5.05,98.76L10.09,101.96L15.14,89.15L20.19,85.95L25.24,69.93L30.28,124.38L35.33,15.48L40.38,133.99L45.43,76.34L50.47,66.73L55.52,127.58L60.57,76.34L70.66,150L75.71,92.35L80.76,172.42L85.81,101.96L90.85,117.98L95.9,53.92L100.95,124.38L106,108.37L111.05,130.79L116.09,127.58L121.14,85.95L126.19,140.4L131.23,114.77L136.28,95.55L141.33,124.38L146.38,98.76L151.42,89.15L156.47,105.16L161.52,143.6L166.57,73.13L171.61,108.37L176.66,69.93L181.71,9.08L186.76,143.6L191.8,150L196.85,121.18L201.9,130.79L206.95,114.77L217.04,25.09L222.09,92.35L227.14,117.98L232.18,92.35L237.23,114.77L242.28,111.57L247.33,66.73L252.38,66.73L257.42,89.15L262.47,63.53L267.52,101.96L272.56,44.31L277.61,37.9L282.66,76.34L287.71,44.31L292.75,85.95L297.8,57.12L302.85,79.54" style="vector-effect: non-scaling-stroke; fill: none; stroke: rgb(255, 215, 0); stroke-opacity: 1; stroke-width: 2px; opacity: 1;"/></g><g class="points"/><g class="text"/></g><g class="trace scatter trace5c1493" style="stroke-miterlimit: 2; opacity: 1;"><g class="fills"/><g class="errorbars"/><g class="lines"><path class="js-line" d="M0,110.77L302.85,80.34" style="vector-effect: non-scaling-stroke; fill: none; stroke: rgb(255, 0, 0); stroke-opacity: 1; stroke-width: 2px; opacity: 1;"/></g><g class="points"/><g class="text"/></g></g></g><g class="overplot"/><path class="xlines-above crisp" d="M0,0" style="fill: none;"/><path class="ylines-above crisp" d="M0,0" style="fill: none;"/><g class="overlines-above"/><g class="xaxislayer-above"><g class="x2tick"><text text-anchor="middle" x="0" y="294.5" transform="translate(384.15000000000003,0)" style="font-family: -apple-system, system-ui, BlinkMacSystemFont, 'Segoe UI', Roboto, 'Helvetica Neue', Arial, sans-serif; font-size: 12px; fill: rgb(42, 63, 95); fill-opacity: 1; white-space: pre; opacity: 1;">1940</text></g><g class="x2tick"><text text-anchor="middle" x="0" y="294.5" style="font-family: -apple-system, system-ui, BlinkMacSystemFont, 'Segoe UI', Roboto, 'Helvetica Neue', Arial, sans-serif; font-size: 12px; fill: rgb(42, 63, 95); fill-opacity: 1; white-space: pre; opacity: 1;" transform="translate(485.1,0)">1960</text></g><g class="x2tick"><text text-anchor="middle" x="0" y="294.5" style="font-family: -apple-system, system-ui, BlinkMacSystemFont, 'Segoe UI', Roboto, 'Helvetica Neue', Arial, sans-serif; font-size: 12px; fill: rgb(42, 63, 95); fill-opacity: 1; white-space: pre; opacity: 1;" transform="translate(586.0500000000001,0)">1980</text></g><g class="x2tick"><text text-anchor="middle" x="0" y="294.5" style="font-family: -apple-system, system-ui, BlinkMacSystemFont, 'Segoe UI', Roboto, 'Helvetica Neue', Arial, sans-serif; font-size: 12px; fill: rgb(42, 63, 95); fill-opacity: 1; white-space: pre; opacity: 0;" transform="translate(687,0)">2000</text></g></g><g class="yaxislayer-above"><g class="y2tick"><text text-anchor="end" x="383.15000000000003" y="4.199999999999999" transform="translate(0,224.38)" style="font-family: -apple-system, system-ui, BlinkMacSystemFont, 'Segoe UI', Roboto, 'Helvetica Neue', Arial, sans-serif; font-size: 12px; fill: rgb(42, 63, 95); fill-opacity: 1; white-space: pre; opacity: 1;">18</text></g><g class="y2tick"><text text-anchor="end" x="383.15000000000003" y="4.199999999999999" style="font-family: -apple-system, system-ui, BlinkMacSystemFont, 'Segoe UI', Roboto, 'Helvetica Neue', Arial, sans-serif; font-size: 12px; fill: rgb(42, 63, 95); fill-opacity: 1; white-space: pre; opacity: 1;" transform="translate(0,160.32)">20</text></g></g><g class="overaxes-above"/></g><g class="subplot x3y3"><g class="layer-subplot"><g class="shapelayer"/><g class="imagelayer"/></g><g class="gridlayer"><g class="x3"><path class="x3grid crisp" transform="translate(114.95,0)" d="M0,402.5v181.5" style="stroke: rgb(220, 220, 220); stroke-opacity: 1; stroke-width: 0.1px;"/><path class="x3grid crisp" transform="translate(215.9,0)" d="M0,402.5v181.5" style="stroke: rgb(220, 220, 220); stroke-opacity: 1; stroke-width: 0.1px;"/></g><g class="y3"><path class="y3grid crisp" transform="translate(0,561.6800000000001)" d="M14,0h302.85" style="stroke: rgb(220, 220, 220); stroke-opacity: 1; stroke-width: 0.1px;"/><path class="y3grid crisp" transform="translate(0,517.53)" d="M14,0h302.85" style="stroke: rgb(220, 220, 220); stroke-opacity: 1; stroke-width: 0.1px;"/><path class="y3grid crisp" transform="translate(0,473.38)" d="M14,0h302.85" style="stroke: rgb(220, 220, 220); stroke-opacity: 1; stroke-width: 0.1px;"/><path class="y3grid crisp" transform="translate(0,429.23)" d="M14,0h302.85" style="stroke: rgb(220, 220, 220); stroke-opacity: 1; stroke-width: 0.1px;"/></g></g><g class="zerolinelayer"/><path class="xlines-below"/><path class="ylines-below"/><g class="overlines-below"/><g class="xaxislayer-below"/><g class="yaxislayer-below"/><g class="overaxes-below"/><g class="plot" transform="translate(14,402.5)" clip-path="url(#clip47f907x3y3plot)"><g class="scatterlayer mlayer"><g class="trace scatter trace5abe9f" style="stroke-miterlimit: 2; opacity: 1;"><g class="fills"/><g class="errorbars"/><g class="lines"><path class="js-line" d="M0,88.54L5.05,84.13L10.09,75.3L15.14,101.79L20.19,115.03L25.24,57.64L30.28,75.3L35.33,13.49L40.38,101.79L45.43,13.49L50.47,97.37L55.52,48.81L60.57,172.42L65.62,70.88L70.66,53.22L75.71,101.79L80.76,88.54L85.81,88.54L90.85,53.22L95.9,9.07L100.95,66.47L106,22.32L111.05,92.96L116.09,35.56L121.14,70.88L126.19,101.79L131.23,66.47L136.28,53.22L141.33,57.64L146.38,17.9L151.42,13.49L156.47,62.05L161.52,101.79L166.57,53.22L171.61,123.86L181.71,57.64L186.76,53.22L191.8,62.05L196.85,48.81L201.9,79.71L206.95,57.64L211.99,13.49L217.04,44.39L222.09,31.15L227.14,79.71L232.18,44.39L237.23,22.32L242.28,62.05L247.33,9.07L252.38,31.15L257.42,44.39L262.47,70.88L267.52,154.77L272.56,13.49L277.61,17.9L282.66,79.71L287.71,13.49L292.75,84.13L297.8,31.15L302.85,22.32" style="vector-effect: non-scaling-stroke; fill: none; stroke: rgb(243, 135, 47); stroke-opacity: 1; stroke-width: 2px; opacity: 1;"/></g><g class="points"/><g class="text"/></g><g class="trace scatter tracee4f296" style="stroke-miterlimit: 2; opacity: 1;"><g class="fills"/><g class="errorbars"/><g class="lines"><path class="js-line" d="M0,80.9L166.57,59.85L171.61,59.23L302.85,42.63" style="vector-effect: non-scaling-stroke; fill: none; stroke: rgb(255, 0, 0); stroke-opacity: 1; stroke-width: 2px; opacity: 1;"/></g><g class="points"/><g class="text"/></g></g></g><g class="overplot"/><path class="xlines-above crisp" d="M0,0" style="fill: none;"/><path class="ylines-above crisp" d="M0,0" style="fill: none;"/><g class="overlines-above"/><g class="xaxislayer-above"><g class="x3tick"><text text-anchor="middle" x="0" y="597" transform="translate(14,0)" style="font-family: -apple-system, system-ui, BlinkMacSystemFont, 'Segoe UI', Roboto, 'Helvetica Neue', Arial, sans-serif; font-size: 12px; fill: rgb(42, 63, 95); fill-opacity: 1; white-space: pre; opacity: 1;">1940</text></g><g class="x3tick"><text text-anchor="middle" x="0" y="597" style="font-family: -apple-system, system-ui, BlinkMacSystemFont, 'Segoe UI', Roboto, 'Helvetica Neue', Arial, sans-serif; font-size: 12px; fill: rgb(42, 63, 95); fill-opacity: 1; white-space: pre; opacity: 1;" transform="translate(114.95,0)">1960</text></g><g class="x3tick"><text text-anchor="middle" x="0" y="597" style="font-family: -apple-system, system-ui, BlinkMacSystemFont, 'Segoe UI', Roboto, 'Helvetica Neue', Arial, sans-serif; font-size: 12px; fill: rgb(42, 63, 95); fill-opacity: 1; white-space: pre; opacity: 1;" transform="translate(215.9,0)">1980</text></g><g class="x3tick"><text text-anchor="middle" x="0" y="597" style="font-family: -apple-system, system-ui, BlinkMacSystemFont, 'Segoe UI', Roboto, 'Helvetica Neue', Arial, sans-serif; font-size: 12px; fill: rgb(42, 63, 95); fill-opacity: 1; white-space: pre; opacity: 1;" transform="translate(316.85,0)">2000</text></g></g><g class="yaxislayer-above"><g class="y3tick"><text text-anchor="end" x="13" y="4.199999999999999" transform="translate(0,561.6800000000001)" style="font-family: -apple-system, system-ui, BlinkMacSystemFont, 'Segoe UI', Roboto, 'Helvetica Neue', Arial, sans-serif; font-size: 12px; fill: rgb(42, 63, 95); fill-opacity: 1; white-space: pre; opacity: 1;">10</text></g><g class="y3tick"><text text-anchor="end" x="13" y="4.199999999999999" style="font-family: -apple-system, system-ui, BlinkMacSystemFont, 'Segoe UI', Roboto, 'Helvetica Neue', Arial, sans-serif; font-size: 12px; fill: rgb(42, 63, 95); fill-opacity: 1; white-space: pre; opacity: 1;" transform="translate(0,517.53)">11</text></g><g class="y3tick"><text text-anchor="end" x="13" y="4.199999999999999" style="font-family: -apple-system, system-ui, BlinkMacSystemFont, 'Segoe UI', Roboto, 'Helvetica Neue', Arial, sans-serif; font-size: 12px; fill: rgb(42, 63, 95); fill-opacity: 1; white-space: pre; opacity: 1;" transform="translate(0,473.38)">12</text></g><g class="y3tick"><text text-anchor="end" x="13" y="4.199999999999999" style="font-family: -apple-system, system-ui, BlinkMacSystemFont, 'Segoe UI', Roboto, 'Helvetica Neue', Arial, sans-serif; font-size: 12px; fill: rgb(42, 63, 95); fill-opacity: 1; white-space: pre; opacity: 1;" transform="translate(0,429.23)">13</text></g></g><g class="overaxes-above"/></g><g class="subplot x4y4"><g class="layer-subplot"><g class="shapelayer"/><g class="imagelayer"/></g><g class="gridlayer"><g class="x4"><path class="x4grid crisp" transform="translate(485.1,0)" d="M0,402.5v181.5" style="stroke: rgb(220, 220, 220); stroke-opacity: 1; stroke-width: 0.1px;"/><path class="x4grid crisp" transform="translate(586.0500000000001,0)" d="M0,402.5v181.5" style="stroke: rgb(220, 220, 220); stroke-opacity: 1; stroke-width: 0.1px;"/></g><g class="y4"><path class="y4grid crisp" transform="translate(0,579.01)" d="M384.15000000000003,0h302.84999999999997" style="stroke: rgb(220, 220, 220); stroke-opacity: 1; stroke-width: 0.1px;"/><path class="y4grid crisp" transform="translate(0,538.17)" d="M384.15000000000003,0h302.84999999999997" style="stroke: rgb(220, 220, 220); stroke-opacity: 1; stroke-width: 0.1px;"/><path class="y4grid crisp" transform="translate(0,497.33)" d="M384.15000000000003,0h302.84999999999997" style="stroke: rgb(220, 220, 220); stroke-opacity: 1; stroke-width: 0.1px;"/><path class="y4grid crisp" transform="translate(0,456.5)" d="M384.15000000000003,0h302.84999999999997" style="stroke: rgb(220, 220, 220); stroke-opacity: 1; stroke-width: 0.1px;"/><path class="y4grid crisp" transform="translate(0,415.66)" d="M384.15000000000003,0h302.84999999999997" style="stroke: rgb(220, 220, 220); stroke-opacity: 1; stroke-width: 0.1px;"/></g></g><g class="zerolinelayer"/><path class="xlines-below"/><path class="ylines-below"/><g class="overlines-below"/><g class="xaxislayer-below"/><g class="yaxislayer-below"/><g class="overaxes-below"/><g class="plot" transform="translate(384.15000000000003,402.5)" clip-path="url(#clip47f907x4y4plot)"><g class="scatterlayer mlayer"><g class="trace scatter tracea873f5" style="stroke-miterlimit: 2; opacity: 1;"><g class="fills"/><g class="errorbars"/><g class="lines"><path class="js-line" d="M0,78.5L5.05,152.01L10.09,58.08L15.14,25.41L20.19,98.92L25.24,9.07L30.28,82.58L35.33,37.66L40.38,29.49L45.43,94.83L50.47,82.58L55.52,143.84L60.57,29.49L65.62,45.83L70.66,103L75.71,143.84L80.76,103L85.81,82.58L90.85,143.84L95.9,41.74L100.95,45.83L106,33.58L111.05,172.43L116.09,111.17L121.14,86.67L126.19,98.92L131.23,82.58L136.28,98.92L141.33,107.08L146.38,90.75L151.42,152.01L156.47,86.67L161.52,86.67L166.57,115.25L171.61,86.67L176.66,143.84L181.71,90.75L186.76,94.83L191.8,115.25L196.85,127.5L201.9,123.42L206.95,54L211.99,90.75L222.09,143.84L227.14,103L232.18,135.67L237.23,115.25L242.28,66.25L247.33,29.49L252.38,25.41L257.42,78.5L262.47,37.66L267.52,37.66L272.56,54L277.61,82.58L282.66,111.17L287.71,33.58L292.75,37.66L297.8,9.07L302.85,37.66" style="vector-effect: non-scaling-stroke; fill: none; stroke: rgb(97, 177, 90); stroke-opacity: 1; stroke-width: 2px; opacity: 1;"/></g><g class="points"/><g class="text"/></g><g class="trace scatter trace018857" style="stroke-miterlimit: 2; opacity: 1;"><g class="fills"/><g class="errorbars"/><g class="lines"><path class="js-line" d="M0,90.79L166.57,83.6L171.61,83.4L287.71,78.38L292.75,78.17L302.85,77.72" style="vector-effect: non-scaling-stroke; fill: none; stroke: rgb(255, 0, 0); stroke-opacity: 1; stroke-width: 2px; opacity: 1;"/></g><g class="points"/><g class="text"/></g></g></g><g class="overplot"/><path class="xlines-above crisp" d="M0,0" style="fill: none;"/><path class="ylines-above crisp" d="M0,0" style="fill: none;"/><g class="overlines-above"/><g class="xaxislayer-above"><g class="x4tick"><text text-anchor="middle" x="0" y="597" transform="translate(384.15000000000003,0)" style="font-family: -apple-system, system-ui, BlinkMacSystemFont, 'Segoe UI', Roboto, 'Helvetica Neue', Arial, sans-serif; font-size: 12px; fill: rgb(42, 63, 95); fill-opacity: 1; white-space: pre; opacity: 1;">1940</text></g><g class="x4tick"><text text-anchor="middle" x="0" y="597" style="font-family: -apple-system, system-ui, BlinkMacSystemFont, 'Segoe UI', Roboto, 'Helvetica Neue', Arial, sans-serif; font-size: 12px; fill: rgb(42, 63, 95); fill-opacity: 1; white-space: pre; opacity: 1;" transform="translate(485.1,0)">1960</text></g><g class="x4tick"><text text-anchor="middle" x="0" y="597" style="font-family: -apple-system, system-ui, BlinkMacSystemFont, 'Segoe UI', Roboto, 'Helvetica Neue', Arial, sans-serif; font-size: 12px; fill: rgb(42, 63, 95); fill-opacity: 1; white-space: pre; opacity: 1;" transform="translate(586.0500000000001,0)">1980</text></g><g class="x4tick"><text text-anchor="middle" x="0" y="597" style="font-family: -apple-system, system-ui, BlinkMacSystemFont, 'Segoe UI', Roboto, 'Helvetica Neue', Arial, sans-serif; font-size: 12px; fill: rgb(42, 63, 95); fill-opacity: 1; white-space: pre; opacity: 0;" transform="translate(687,0)">2000</text></g></g><g class="yaxislayer-above"><g class="y4tick"><text text-anchor="end" x="383.15000000000003" y="4.199999999999999" transform="translate(0,579.01)" style="font-family: -apple-system, system-ui, BlinkMacSystemFont, 'Segoe UI', Roboto, 'Helvetica Neue', Arial, sans-serif; font-size: 12px; fill: rgb(42, 63, 95); fill-opacity: 1; white-space: pre; opacity: 1;">9</text></g><g class="y4tick"><text text-anchor="end" x="383.15000000000003" y="4.199999999999999" style="font-family: -apple-system, system-ui, BlinkMacSystemFont, 'Segoe UI', Roboto, 'Helvetica Neue', Arial, sans-serif; font-size: 12px; fill: rgb(42, 63, 95); fill-opacity: 1; white-space: pre; opacity: 1;" transform="translate(0,538.17)">10</text></g><g class="y4tick"><text text-anchor="end" x="383.15000000000003" y="4.199999999999999" style="font-family: -apple-system, system-ui, BlinkMacSystemFont, 'Segoe UI', Roboto, 'Helvetica Neue', Arial, sans-serif; font-size: 12px; fill: rgb(42, 63, 95); fill-opacity: 1; white-space: pre; opacity: 1;" transform="translate(0,497.33)">11</text></g><g class="y4tick"><text text-anchor="end" x="383.15000000000003" y="4.199999999999999" style="font-family: -apple-system, system-ui, BlinkMacSystemFont, 'Segoe UI', Roboto, 'Helvetica Neue', Arial, sans-serif; font-size: 12px; fill: rgb(42, 63, 95); fill-opacity: 1; white-space: pre; opacity: 1;" transform="translate(0,456.5)">12</text></g><g class="y4tick"><text text-anchor="end" x="383.15000000000003" y="4.199999999999999" style="font-family: -apple-system, system-ui, BlinkMacSystemFont, 'Segoe UI', Roboto, 'Helvetica Neue', Arial, sans-serif; font-size: 12px; fill: rgb(42, 63, 95); fill-opacity: 1; white-space: pre; opacity: 1;" transform="translate(0,415.66)">13</text></g></g><g class="overaxes-above"/></g></g><g class="polarlayer"/><g class="smithlayer"/><g class="ternarylayer"/><g class="geolayer"/><g class="funnelarealayer"/><g class="pielayer"/><g class="iciclelayer"/><g class="treemaplayer"/><g class="sunburstlayer"/><g class="glimages"/><defs id="topdefs-47f907"><g class="clips"/></defs><g class="layer-above"><g class="imagelayer"/><g class="shapelayer"/></g><g class="infolayer"><g class="g-gtitle"><text class="gtitle" x="350" y="50" text-anchor="middle" dy="0em" style="font-family: -apple-system, system-ui, BlinkMacSystemFont, 'Segoe UI', Roboto, 'Helvetica Neue', Arial, sans-serif; font-size: 17px; fill: rgb(42, 63, 95); opacity: 1; font-weight: normal; white-space: pre;"><tspan class="line" dy="0em" x="350" y="50">Températures moyennes par années et par saisons</tspan><tspan class="line" dy="1.3em" x="350" y="50">Station : Paris Le Bourget, Fr</tspan></text></g><g class="g-xtitle"/><g class="g-x2title"/><g class="g-x3title"/><g class="g-x4title"/><g class="g-ytitle"/><g class="g-y2title"/><g class="g-y3title"/><g class="g-y4title"/><g class="annotation" data-index="0" style="opacity: 1;"><g class="annotation-text-g" transform="rotate(0,165.425,87.5)"><g class="cursor-pointer" transform="translate(145,75)"><rect class="bg" x="0.5" y="0.5" width="40" height="24" style="stroke-width: 1px; stroke: rgb(0, 0, 0); stroke-opacity: 0; fill: rgb(0, 0, 0); fill-opacity: 0;"/><text class="annotation-text" text-anchor="middle" x="20.421875" y="19" style="font-family: -apple-system, system-ui, BlinkMacSystemFont, 'Segoe UI', Roboto, 'Helvetica Neue', Arial, sans-serif; font-size: 16px; fill: rgb(42, 63, 95); fill-opacity: 1; white-space: pre;">Hiver</text></g></g></g><g class="annotation" data-index="1" style="opacity: 1;"><g class="annotation-text-g" transform="rotate(0,535.575,87.5)"><g class="cursor-pointer" transform="translate(523,75)"><rect class="bg" x="0.5" y="0.5" width="25" height="24" style="stroke-width: 1px; stroke: rgb(0, 0, 0); stroke-opacity: 0; fill: rgb(0, 0, 0); fill-opacity: 0;"/><text class="annotation-text" text-anchor="middle" x="12.953125" y="19" style="font-family: -apple-system, system-ui, BlinkMacSystemFont, 'Segoe UI', Roboto, 'Helvetica Neue', Arial, sans-serif; font-size: 16px; fill: rgb(42, 63, 95); fill-opacity: 1; white-space: pre;">Eté</text></g></g></g><g class="annotation" data-index="2" style="opacity: 1;"><g class="annotation-text-g" transform="rotate(0,165.425,390)"><g class="cursor-pointer" transform="translate(130,378)"><rect class="bg" x="0.5" y="0.5" width="69" height="24" style="stroke-width: 1px; stroke: rgb(0, 0, 0); stroke-opacity: 0; fill: rgb(0, 0, 0); fill-opacity: 0;"/><text class="annotation-text" text-anchor="middle" x="35.6875" y="19" style="font-family: -apple-system, system-ui, BlinkMacSystemFont, 'Segoe UI', Roboto, 'Helvetica Neue', Arial, sans-serif; font-size: 16px; fill: rgb(42, 63, 95); fill-opacity: 1; white-space: pre;">Automne</text></g></g></g><g class="annotation" data-index="3" style="opacity: 1;"><g class="annotation-text-g" transform="rotate(0,535.575,390)"><g class="cursor-pointer" transform="translate(498,378)"><rect class="bg" x="0.5" y="0.5" width="74" height="24" style="stroke-width: 1px; stroke: rgb(0, 0, 0); stroke-opacity: 0; fill: rgb(0, 0, 0); fill-opacity: 0;"/><text class="annotation-text" text-anchor="middle" x="37.609375" y="19" style="font-family: -apple-system, system-ui, BlinkMacSystemFont, 'Segoe UI', Roboto, 'Helvetica Neue', Arial, sans-serif; font-size: 16px; fill: rgb(42, 63, 95); fill-opacity: 1; white-space: pre;">Printemps</text></g></g></g></g></svg>