<svg class="main-svg" xmlns="http://www.w3.org/2000/svg" xmlns:xlink="http://www.w3.org/1999/xlink" width="800" height="600" style="" viewBox="0 0 800 600"><rect x="0" y="0" width="800" height="600" style="fill: rgb(255, 255, 255); fill-opacity: 1;"/><defs id="defs-3b44d7"><g class="clips"><clipPath id="clip3b44d7xyplot" class="plotclip"><rect width="288" height="177.22500000000002"/></clipPath><clipPath id="clip3b44d7x2y2plot" class="plotclip"><rect width="288" height="177.22500000000002"/></clipPath><clipPath id="clip3b44d7x3y3plot" class="plotclip"><rect width="288" height="177.225"/></clipPath><clipPath id="clip3b44d7x4y4plot" class="plotclip"><rect width="288" height="177.225"/></clipPath><clipPath class="axesclip" id="clip3b44d7x"><rect x="80" y="0" width="288" height="600"/></clipPath><clipPath class="axesclip" id="clip3b44d7y"><rect x="0" y="100" width="800" height="177.22500000000002"/></clipPath><clipPath class="axesclip" id="clip3b44d7xy"><rect x="80" y="100" width="288" height="177.22500000000002"/></clipPath><clipPath class="axesclip" id="clip3b44d7y2"><rect x="0" y="100" width="800" height="177.22500000000002"/></clipPath><clipPath class="axesclip" id="clip3b44d7xy2"><rect x="80" y="100" width="288" height="177.22500000000002"/></clipPath><clipPath class="axesclip" id="clip3b44d7y3"><rect x="0" y="339.775" width="800" height="177.225"/></clipPath><clipPath class="axesclip" id="clip3b44d7xy3"><rect x="80" y="339.775" width="288" height="177.225"/></clipPath><clipPath class="axesclip" id="clip3b44d7y4"><rect x="0" y="339.775" width="800" height="177.225"/></clipPath><clipPath class="axesclip" id="clip3b44d7xy4"><rect x="80" y="339.775" width="288" height="177.225"/></clipPath><clipPath class="axesclip" id="clip3b44d7x2"><rect x="432" y="0" width="288" height="600"/></clipPath><clipPath class="axesclip" id="clip3b44d7x2y"><rect x="432" y="100" width="288" height="177.22500000000002"/></clipPath><clipPath class="axesclip" id="clip3b44d7x2y2"><rect x="432" y="100" width="288" height="177.22500000000002"/></clipPath><clipPath class="axesclip" id="clip3b44d7x2y3"><rect x="432" y="339.775" width="288" height="177.225"/></clipPath><clipPath class="axesclip" id="clip3b44d7x2y4"><rect x="432" y="339.775" width="288" height="177.225"/></clipPath><clipPath class="axesclip" id="clip3b44d7x3"><rect x="80" y="0" width="288" height="600"/></clipPath><clipPath class="axesclip" id="clip3b44d7x3y"><rect x="80" y="100" width="288" height="177.22500000000002"/></clipPath><clipPath class="axesclip" id="clip3b44d7x3y2"><rect x="80" y="100" width="288" height="177.22500000000002"/></clipPath><clipPath class="axesclip" id="clip3b44d7x3y3"><rect x="80" y="339.775" width="288" height="177.225"/></clipPath><clipPath class="axesclip" id="clip3b44d7x3y4"><rect x="80" y="339.775" width="288" height="177.225"/></clipPath><clipPath class="axesclip" id="clip3b44d7x4"><rect x="432" y="0" width="288" height="600"/></clipPath><clipPath class="axesclip" id="clip3b44d7x4y"><rect x="432" y="100" width="288" height="177.22500000000002"/></clipPath><clipPath class="axesclip" id="clip3b44d7x4y2"><rect x="432" y="100" width="288" height="177.22500000000002"/></clipPath><clipPath class="axesclip" id="clip3b44d7x4y3"><rect x="432" y="339.775" width="288" height="177.225"/></clipPath><clipPath class="axesclip" id="clip3b44d7x4y4"><rect x="432" y="339.775" width="288" height="177.225"/></clipPath></g><g class="gradients"/><g class="patterns"/></defs><g class="bglayer"><rect class="bg" x="80" y="100" width="288" height="177.22500000000002" style="fill: rgb(249, 249, 249); fill-opacity: 1; stroke-width: 0;"/><rect class="bg" x="432" y="100" width="288" height="177.22500000000002" style="fill: rgb(249, 249, 249); fill-opacity: 1; stroke-width: 0;"/><rect class="bg" x="80" y="339.775" width="288" height="177.225" style="fill: rgb(249, 249, 249); fill-opacity: 1; stroke-width: 0;"/><rect class="bg" x="432" y="339.775" width="288" height="177.225" style="fill: rgb(249, 249, 249); fill-opacity: 1; stroke-width: 0;"/></g><g class="layer-below"><g class="imagelayer"/><g class="shapelayer"/></g><g class="cartesianlayer"><g class="subplot xy"><g class="layer-subplot"><g class="shapelayer"/><g class="imagelayer"/></g><g class="gridlayer"><g class="x"><path class="xgrid crisp" transform="translate(176,0)" d="M0,100v177.22500000000002" style="stroke: rgb(220, 220, 220); stroke-opacity: 1; stroke-width: 0.1px;"/><path class="xgrid crisp" transform="translate(272,0)" d="M0,100v177.22500000000002" style="stroke: rgb(220, 220, 220); stroke-opacity: 1; stroke-width: 0.1px;"/></g><g class="y"><path class="ygrid crisp" transform="translate(0,221.32999999999998)" d="M80,0h288" style="stroke: rgb(220, 220, 220); stroke-opacity: 1; stroke-width: 0.1px;"/><path class="ygrid crisp" transform="translate(0,180.43)" d="M80,0h288" style="stroke: rgb(220, 220, 220); stroke-opacity: 1; stroke-width: 0.1px;"/><path class="ygrid crisp" transform="translate(0,139.53)" d="M80,0h288" style="stroke: rgb(220, 220, 220); stroke-opacity: 1; stroke-width: 0.1px;"/></g></g><g class="zerolinelayer"><path class="yzl zl crisp" transform="translate(0,262.23)" d="M80,0h288" style="stroke: rgb(255, 255, 255); stroke-opacity: 1; stroke-width: 2px;"/></g><path class="xlines-below"/><path class="ylines-below"/><g class="overlines-below"/><g class="xaxislayer-below"/><g class="yaxislayer-below"/><g class="overaxes-below"/><g class="plot" transform="translate(80,100)" clip-path="url(#clip3b44d7xyplot)"><g class="scatterlayer mlayer"><g class="trace scatter tracec0428c" style="stroke-miterlimit: 2; opacity: 1;"><g class="fills"/><g class="errorbars"/><g class="lines"><path class="js-line" d="M0,133.6L4.8,98.84L9.6,145.87L14.4,66.12L19.2,84.52L24,82.48L28.8,98.84L33.6,117.24L38.4,55.89L43.2,49.76L48,84.52L52.8,55.89L57.6,90.66L62.4,78.39L67.2,88.61L72,62.03L76.8,111.11L81.6,57.94L86.4,45.67L91.2,59.98L96,68.16L100.8,39.53L105.6,76.34L110.4,168.36L115.2,80.43L120,68.16L124.8,41.58L129.6,53.85L134.4,84.52L139.2,86.57L144,70.21L148.8,55.89L153.6,57.94L158.4,72.25L163.2,8.86L168,39.53L172.8,64.07L177.6,35.45L182.4,70.21L187.2,90.66L192,68.16L196.8,68.16L201.6,51.8L206.4,55.89L211.2,53.85L216,90.66L220.8,94.75L225.6,111.11L230.4,12.95L235.2,39.53L240,21.13L244.8,82.48L249.6,55.89L254.4,35.45L259.2,27.27L264,33.4L268.8,86.57L273.6,53.85L278.4,31.36L283.2,33.4L288,21.13" style="vector-effect: non-scaling-stroke; fill: none; stroke: rgb(65, 105, 225); stroke-opacity: 1; stroke-width: 2px; opacity: 1;"/></g><g class="points"/><g class="text"/></g><g class="trace scatter trace43a654" style="stroke-miterlimit: 2; opacity: 1;"><g class="fills"/><g class="errorbars"/><g class="lines"><path class="js-line" d="M0,93.66L288,41.72" style="vector-effect: non-scaling-stroke; fill: none; stroke: rgb(255, 0, 0); stroke-opacity: 1; stroke-width: 3px; opacity: 1;"/></g><g class="points"/><g class="text"/></g></g></g><g class="overplot"/><path class="xlines-above crisp" d="M0,0" style="fill: none;"/><path class="ylines-above crisp" d="M0,0" style="fill: none;"/><g class="overlines-above"/><g class="xaxislayer-above"><g class="xtick"><text text-anchor="middle" x="0" y="290.225" transform="translate(80,0)" style="font-family: 'Open Sans', verdana, arial, sans-serif; font-size: 12px; fill: rgb(42, 63, 95); fill-opacity: 1; white-space: pre; opacity: 1;">1940</text></g><g class="xtick"><text text-anchor="middle" x="0" y="290.225" style="font-family: 'Open Sans', verdana, arial, sans-serif; font-size: 12px; fill: rgb(42, 63, 95); fill-opacity: 1; white-space: pre; opacity: 1;" transform="translate(176,0)">1960</text></g><g class="xtick"><text text-anchor="middle" x="0" y="290.225" style="font-family: 'Open Sans', verdana, arial, sans-serif; font-size: 12px; fill: rgb(42, 63, 95); fill-opacity: 1; white-space: pre; opacity: 1;" transform="translate(272,0)">1980</text></g><g class="xtick"><text text-anchor="middle" x="0" y="290.225" style="font-family: 'Open Sans', verdana, arial, sans-serif; font-size: 12px; fill: rgb(42, 63, 95); fill-opacity: 1; white-space: pre; opacity: 1;" transform="translate(368,0)">2000</text></g></g><g class="yaxislayer-above"><g class="ytick"><text text-anchor="end" x="79" y="4.199999999999999" transform="translate(0,262.23)" style="font-family: 'Open Sans', verdana, arial, sans-serif; font-size: 12px; fill: rgb(42, 63, 95); fill-opacity: 1; white-space: pre; opacity: 1;">0</text></g><g class="ytick"><text text-anchor="end" x="79" y="4.199999999999999" style="font-family: 'Open Sans', verdana, arial, sans-serif; font-size: 12px; fill: rgb(42, 63, 95); fill-opacity: 1; white-space: pre; opacity: 1;" transform="translate(0,221.32999999999998)">2</text></g><g class="ytick"><text text-anchor="end" x="79" y="4.199999999999999" style="font-family: 'Open Sans', verdana, arial, sans-serif; font-size: 12px; fill: rgb(42, 63, 95); fill-opacity: 1; white-space: pre; opacity: 1;" transform="translate(0,180.43)">4</text></g><g class="ytick"><text text-anchor="end" x="79" y="4.199999999999999" style="font-family: 'Open Sans', verdana, arial, sans-serif; font-size: 12px; fill: rgb(42, 63, 95); fill-opacity: 1; white-space: pre; opacity: 1;" transform="translate(0,139.53)">6</text></g></g><g class="overaxes-above"/></g><g class="subplot x2y2"><g class="layer-subplot"><g class="shapelayer"/><g class="imagelayer"/></g><g class="gridlayer"><g class="x2"><path class="x2grid crisp" transform="translate(528,0)" d="M0,100v177.22500000000002" style="stroke: rgb(220, 220, 220); stroke-opacity: 1; stroke-width: 0.1px;"/><path class="x2grid crisp" transform="translate(624,0)" d="M0,100v177.22500000000002" style="stroke: rgb(220, 220, 220); stroke-opacity: 1; stroke-width: 0.1px;"/></g><g class="y2"><path class="y2grid crisp" transform="translate(0,221.45)" d="M432,0h288" style="stroke: rgb(220, 220, 220); stroke-opacity: 1; stroke-width: 0.1px;"/><path class="y2grid crisp" transform="translate(0,158.9)" d="M432,0h288" style="stroke: rgb(220, 220, 220); stroke-opacity: 1; stroke-width: 0.1px;"/></g></g><g class="zerolinelayer"/><path class="xlines-below"/><path class="ylines-below"/><g class="overlines-below"/><g class="xaxislayer-below"/><g class="yaxislayer-below"/><g class="overaxes-below"/><g class="plot" transform="translate(432,100)" clip-path="url(#clip3b44d7x2y2plot)"><g class="scatterlayer mlayer"><g class="trace scatter trace5c77e4" style="stroke-miterlimit: 2; opacity: 1;"><g class="fills"/><g class="errorbars"/><g class="lines"><path class="js-line" d="M0,108.94L4.8,96.43L9.6,99.56L14.4,87.05L19.2,83.92L24,68.28L28.8,121.45L33.6,15.12L38.4,130.83L43.2,74.54L48,65.16L52.8,124.58L57.6,74.54L67.2,146.47L72,90.18L76.8,168.36L81.6,99.56L86.4,115.2L91.2,52.65L96,121.45L100.8,105.81L105.6,127.71L110.4,124.58L115.2,83.92L120,137.09L124.8,112.07L129.6,93.3L134.4,121.45L139.2,96.43L144,87.05L148.8,102.69L153.6,140.22L158.4,71.41L163.2,105.81L168,68.28L172.8,8.86L177.6,140.22L182.4,146.47L187.2,118.32L192,127.71L196.8,112.07L206.4,24.5L211.2,90.18L216,115.2L220.8,90.18L225.6,112.07L230.4,108.94L235.2,65.16L240,65.16L244.8,87.05L249.6,62.03L254.4,99.56L259.2,43.26L264,37.01L268.8,74.54L273.6,43.26L278.4,83.92L283.2,55.77L288,77.67" style="vector-effect: non-scaling-stroke; fill: none; stroke: rgb(255, 215, 0); stroke-opacity: 1; stroke-width: 2px; opacity: 1;"/></g><g class="points"/><g class="text"/></g><g class="trace scatter tracec919a1" style="stroke-miterlimit: 2; opacity: 1;"><g class="fills"/><g class="errorbars"/><g class="lines"><path class="js-line" d="M0,108.16L288,78.45" style="vector-effect: non-scaling-stroke; fill: none; stroke: rgb(255, 0, 0); stroke-opacity: 1; stroke-width: 3px; opacity: 1;"/></g><g class="points"/><g class="text"/></g></g></g><g class="overplot"/><path class="xlines-above crisp" d="M0,0" style="fill: none;"/><path class="ylines-above crisp" d="M0,0" style="fill: none;"/><g class="overlines-above"/><g class="xaxislayer-above"><g class="x2tick"><text text-anchor="middle" x="0" y="290.225" transform="translate(432,0)" style="font-family: 'Open Sans', verdana, arial, sans-serif; font-size: 12px; fill: rgb(42, 63, 95); fill-opacity: 1; white-space: pre; opacity: 1;">1940</text></g><g class="x2tick"><text text-anchor="middle" x="0" y="290.225" style="font-family: 'Open Sans', verdana, arial, sans-serif; font-size: 12px; fill: rgb(42, 63, 95); fill-opacity: 1; white-space: pre; opacity: 1;" transform="translate(528,0)">1960</text></g><g class="x2tick"><text text-anchor="middle" x="0" y="290.225" style="font-family: 'Open Sans', verdana, arial, sans-serif; font-size: 12px; fill: rgb(42, 63, 95); fill-opacity: 1; white-space: pre; opacity: 1;" transform="translate(624,0)">1980</text></g><g class="x2tick"><text text-anchor="middle" x="0" y="290.225" style="font-family: 'Open Sans', verdana, arial, sans-serif; font-size: 12px; fill: rgb(42, 63, 95); fill-opacity: 1; white-space: pre; opacity: 1;" transform="translate(720,0)">2000</text></g></g><g class="yaxislayer-above"><g class="y2tick"><text text-anchor="end" x="431" y="4.199999999999999" transform="translate(0,221.45)" style="font-family: 'Open Sans', verdana, arial, sans-serif; font-size: 12px; fill: rgb(42, 63, 95); fill-opacity: 1; white-space: pre; opacity: 1;">18</text></g><g class="y2tick"><text text-anchor="end" x="431" y="4.199999999999999" style="font-family: 'Open Sans', verdana, arial, sans-serif; font-size: 12px; fill: rgb(42, 63, 95); fill-opacity: 1; white-space: pre; opacity: 1;" transform="translate(0,158.9)">20</text></g></g><g class="overaxes-above"/></g><g class="subplot x3y3"><g class="layer-subplot"><g class="shapelayer"/><g class="imagelayer"/></g><g class="gridlayer"><g class="x3"><path class="x3grid crisp" transform="translate(176,0)" d="M0,339.775v177.225" style="stroke: rgb(220, 220, 220); stroke-opacity: 1; stroke-width: 0.1px;"/><path class="x3grid crisp" transform="translate(272,0)" d="M0,339.775v177.225" style="stroke: rgb(220, 220, 220); stroke-opacity: 1; stroke-width: 0.1px;"/></g><g class="y3"><path class="y3grid crisp" transform="translate(0,495.205)" d="M80,0h288" style="stroke: rgb(220, 220, 220); stroke-opacity: 1; stroke-width: 0.1px;"/><path class="y3grid crisp" transform="translate(0,452.09499999999997)" d="M80,0h288" style="stroke: rgb(220, 220, 220); stroke-opacity: 1; stroke-width: 0.1px;"/><path class="y3grid crisp" transform="translate(0,408.98499999999996)" d="M80,0h288" style="stroke: rgb(220, 220, 220); stroke-opacity: 1; stroke-width: 0.1px;"/><path class="y3grid crisp" transform="translate(0,365.875)" d="M80,0h288" style="stroke: rgb(220, 220, 220); stroke-opacity: 1; stroke-width: 0.1px;"/></g></g><g class="zerolinelayer"/><path class="xlines-below"/><path class="ylines-below"/><g class="overlines-below"/><g class="xaxislayer-below"/><g class="yaxislayer-below"/><g class="overaxes-below"/><g class="plot" transform="translate(80,339.775)" clip-path="url(#clip3b44d7x3y3plot)"><g class="scatterlayer mlayer"><g class="trace scatter trace85240a" style="stroke-miterlimit: 2; opacity: 1;"><g class="fills"/><g class="errorbars"/><g class="lines"><path class="js-line" d="M0,86.46L4.8,82.15L9.6,73.52L14.4,99.39L19.2,112.32L24,56.28L28.8,73.52L33.6,13.17L38.4,99.39L43.2,13.17L48,95.08L52.8,47.66L57.6,168.36L62.4,69.21L67.2,51.97L72,99.39L76.8,86.46L81.6,86.46L86.4,51.97L91.2,8.86L96,64.9L100.8,21.79L105.6,90.77L110.4,34.73L115.2,69.21L120,99.39L124.8,64.9L129.6,51.97L134.4,56.28L139.2,17.48L144,13.17L148.8,60.59L153.6,99.39L158.4,51.97L163.2,120.94L172.8,56.28L177.6,51.97L182.4,60.59L187.2,47.66L192,77.84L196.8,56.28L201.6,13.17L206.4,43.35L211.2,30.42L216,77.84L220.8,43.35L225.6,21.79L230.4,60.59L235.2,8.86L240,30.42L244.8,43.35L249.6,69.21L254.4,151.12L259.2,13.17L264,17.48L268.8,77.84L273.6,13.17L278.4,82.15L283.2,30.42L288,21.79" style="vector-effect: non-scaling-stroke; fill: none; stroke: rgb(243, 135, 47); stroke-opacity: 1; stroke-width: 2px; opacity: 1;"/></g><g class="points"/><g class="text"/></g><g class="trace scatter trace2e88c2" style="stroke-miterlimit: 2; opacity: 1;"><g class="fills"/><g class="errorbars"/><g class="lines"><path class="js-line" d="M0,79L134.4,61.54L139.2,60.94L268.8,44.12L273.6,43.52L288,41.62" style="vector-effect: non-scaling-stroke; fill: none; stroke: rgb(255, 0, 0); stroke-opacity: 1; stroke-width: 3px; opacity: 1;"/></g><g class="points"/><g class="text"/></g></g></g><g class="overplot"/><path class="xlines-above crisp" d="M0,0" style="fill: none;"/><path class="ylines-above crisp" d="M0,0" style="fill: none;"/><g class="overlines-above"/><g class="xaxislayer-above"><g class="x3tick"><text text-anchor="middle" x="0" y="530" transform="translate(80,0)" style="font-family: 'Open Sans', verdana, arial, sans-serif; font-size: 12px; fill: rgb(42, 63, 95); fill-opacity: 1; white-space: pre; opacity: 1;">1940</text></g><g class="x3tick"><text text-anchor="middle" x="0" y="530" style="font-family: 'Open Sans', verdana, arial, sans-serif; font-size: 12px; fill: rgb(42, 63, 95); fill-opacity: 1; white-space: pre; opacity: 1;" transform="translate(176,0)">1960</text></g><g class="x3tick"><text text-anchor="middle" x="0" y="530" style="font-family: 'Open Sans', verdana, arial, sans-serif; font-size: 12px; fill: rgb(42, 63, 95); fill-opacity: 1; white-space: pre; opacity: 1;" transform="translate(272,0)">1980</text></g><g class="x3tick"><text text-anchor="middle" x="0" y="530" style="font-family: 'Open Sans', verdana, arial, sans-serif; font-size: 12px; fill: rgb(42, 63, 95); fill-opacity: 1; white-space: pre; opacity: 1;" transform="translate(368,0)">2000</text></g></g><g class="yaxislayer-above"><g class="y3tick"><text text-anchor="end" x="79" y="4.199999999999999" transform="translate(0,495.205)" style="font-family: 'Open Sans', verdana, arial, sans-serif; font-size: 12px; fill: rgb(42, 63, 95); fill-opacity: 1; white-space: pre; opacity: 1;">10</text></g><g class="y3tick"><text text-anchor="end" x="79" y="4.199999999999999" style="font-family: 'Open Sans', verdana, arial, sans-serif; font-size: 12px; fill: rgb(42, 63, 95); fill-opacity: 1; white-space: pre; opacity: 1;" transform="translate(0,452.09499999999997)">11</text></g><g class="y3tick"><text text-anchor="end" x="79" y="4.199999999999999" style="font-family: 'Open Sans', verdana, arial, sans-serif; font-size: 12px; fill: rgb(42, 63, 95); fill-opacity: 1; white-space: pre; opacity: 1;" transform="translate(0,408.98499999999996)">12</text></g><g class="y3tick"><text text-anchor="end" x="79" y="4.199999999999999" style="font-family: 'Open Sans', verdana, arial, sans-serif; font-size: 12px; fill: rgb(42, 63, 95); fill-opacity: 1; white-space: pre; opacity: 1;" transform="translate(0,365.875)">13</text></g></g><g class="overaxes-above"/></g><g class="subplot x4y4"><g class="layer-subplot"><g class="shapelayer"/><g class="imagelayer"/></g><g class="gridlayer"><g class="x4"><path class="x4grid crisp" transform="translate(528,0)" d="M0,339.775v177.225" style="stroke: rgb(220, 220, 220); stroke-opacity: 1; stroke-width: 0.1px;"/><path class="x4grid crisp" transform="translate(624,0)" d="M0,339.775v177.225" style="stroke: rgb(220, 220, 220); stroke-opacity: 1; stroke-width: 0.1px;"/></g><g class="y4"><path class="y4grid crisp" transform="translate(0,512.125)" d="M432,0h288" style="stroke: rgb(220, 220, 220); stroke-opacity: 1; stroke-width: 0.1px;"/><path class="y4grid crisp" transform="translate(0,472.255)" d="M432,0h288" style="stroke: rgb(220, 220, 220); stroke-opacity: 1; stroke-width: 0.1px;"/><path class="y4grid crisp" transform="translate(0,432.375)" d="M432,0h288" style="stroke: rgb(220, 220, 220); stroke-opacity: 1; stroke-width: 0.1px;"/><path class="y4grid crisp" transform="translate(0,392.495)" d="M432,0h288" style="stroke: rgb(220, 220, 220); stroke-opacity: 1; stroke-width: 0.1px;"/><path class="y4grid crisp" transform="translate(0,352.625)" d="M432,0h288" style="stroke: rgb(220, 220, 220); stroke-opacity: 1; stroke-width: 0.1px;"/></g></g><g class="zerolinelayer"/><path class="xlines-below"/><path class="ylines-below"/><g class="overlines-below"/><g class="xaxislayer-below"/><g class="yaxislayer-below"/><g class="overaxes-below"/><g class="plot" transform="translate(432,339.775)" clip-path="url(#clip3b44d7x4y4plot)"><g class="scatterlayer mlayer"><g class="trace scatter trace9103f3" style="stroke-miterlimit: 2; opacity: 1;"><g class="fills"/><g class="errorbars"/><g class="lines"><path class="js-line" d="M0,76.65L4.8,148.43L9.6,56.71L14.4,24.81L19.2,96.59L24,8.86L28.8,80.64L33.6,36.77L38.4,28.8L43.2,92.6L48,80.64L52.8,140.45L57.6,28.8L62.4,44.75L67.2,100.58L72,140.45L76.8,100.58L81.6,80.64L86.4,140.45L91.2,40.76L96,44.75L100.8,32.79L105.6,168.36L110.4,108.55L115.2,84.62L120,96.59L124.8,80.64L129.6,96.59L134.4,104.56L139.2,88.61L144,148.43L148.8,84.62L153.6,84.62L158.4,112.54L163.2,84.62L168,140.45L172.8,88.61L177.6,92.6L182.4,112.54L187.2,124.5L192,120.51L196.8,52.72L201.6,88.61L211.2,140.45L216,100.58L220.8,132.48L225.6,112.54L230.4,64.69L235.2,28.8L240,24.81L244.8,76.65L249.6,36.77L254.4,36.77L259.2,52.72L264,80.64L268.8,108.55L273.6,32.79L278.4,36.77L283.2,8.86L288,36.77" style="vector-effect: non-scaling-stroke; fill: none; stroke: rgb(97, 177, 90); stroke-opacity: 1; stroke-width: 2px; opacity: 1;"/></g><g class="points"/><g class="text"/></g><g class="trace scatter tracefbe277" style="stroke-miterlimit: 2; opacity: 1;"><g class="fills"/><g class="errorbars"/><g class="lines"><path class="js-line" d="M0,88.65L129.6,82.91L134.4,82.71L264,76.97L268.8,76.77L288,75.89" style="vector-effect: non-scaling-stroke; fill: none; stroke: rgb(255, 0, 0); stroke-opacity: 1; stroke-width: 3px; opacity: 1;"/></g><g class="points"/><g class="text"/></g></g></g><g class="overplot"/><path class="xlines-above crisp" d="M0,0" style="fill: none;"/><path class="ylines-above crisp" d="M0,0" style="fill: none;"/><g class="overlines-above"/><g class="xaxislayer-above"><g class="x4tick"><text text-anchor="middle" x="0" y="530" transform="translate(432,0)" style="font-family: 'Open Sans', verdana, arial, sans-serif; font-size: 12px; fill: rgb(42, 63, 95); fill-opacity: 1; white-space: pre; opacity: 1;">1940</text></g><g class="x4tick"><text text-anchor="middle" x="0" y="530" style="font-family: 'Open Sans', verdana, arial, sans-serif; font-size: 12px; fill: rgb(42, 63, 95); fill-opacity: 1; white-space: pre; opacity: 1;" transform="translate(528,0)">1960</text></g><g class="x4tick"><text text-anchor="middle" x="0" y="530" style="font-family: 'Open Sans', verdana, arial, sans-serif; font-size: 12px; fill: rgb(42, 63, 95); fill-opacity: 1; white-space: pre; opacity: 1;" transform="translate(624,0)">1980</text></g><g class="x4tick"><text text-anchor="middle" x="0" y="530" style="font-family: 'Open Sans', verdana, arial, sans-serif; font-size: 12px; fill: rgb(42, 63, 95); fill-opacity: 1; white-space: pre; opacity: 1;" transform="translate(720,0)">2000</text></g></g><g class="yaxislayer-above"><g class="y4tick"><text text-anchor="end" x="431" y="4.199999999999999" transform="translate(0,512.125)" style="font-family: 'Open Sans', verdana, arial, sans-serif; font-size: 12px; fill: rgb(42, 63, 95); fill-opacity: 1; white-space: pre; opacity: 1;">9</text></g><g class="y4tick"><text text-anchor="end" x="431" y="4.199999999999999" style="font-family: 'Open Sans', verdana, arial, sans-serif; font-size: 12px; fill: rgb(42, 63, 95); fill-opacity: 1; white-space: pre; opacity: 1;" transform="translate(0,472.255)">10</text></g><g class="y4tick"><text text-anchor="end" x="431" y="4.199999999999999" style="font-family: 'Open Sans', verdana, arial, sans-serif; font-size: 12px; fill: rgb(42, 63, 95); fill-opacity: 1; white-space: pre; opacity: 1;" transform="translate(0,432.375)">11</text></g><g class="y4tick"><text text-anchor="end" x="431" y="4.199999999999999" style="font-family: 'Open Sans', verdana, arial, sans-serif; font-size: 12px; fill: rgb(42, 63, 95); fill-opacity: 1; white-space: pre; opacity: 1;" transform="translate(0,392.495)">12</text></g><g class="y4tick"><text text-anchor="end" x="431" y="4.199999999999999" style="font-family: 'Open Sans', verdana, arial, sans-serif; font-size: 12px; fill: rgb(42, 63, 95); fill-opacity: 1; white-space: pre; opacity: 1;" transform="translate(0,352.625)">13</text></g></g><g class="overaxes-above"/></g></g><g class="polarlayer"/><g class="smithlayer"/><g class="ternarylayer"/><g class="geolayer"/><g class="funnelarealayer"/><g class="pielayer"/><g class="iciclelayer"/><g class="treemaplayer"/><g class="sunburstlayer"/><g class="glimages"/><defs id="topdefs-3b44d7"><g class="clips"/><clipPath id="legend3b44d7"><rect width="460" height="29" x="0" y="0"/></clipPath></defs><g class="layer-above"><g class="imagelayer"/><g class="shapelayer"/></g><g class="infolayer"><g class="legend" pointer-events="all" transform="translate(176,558.7)"><rect class="bg" shape-rendering="crispEdges" width="460" height="29" x="0" y="0" style="stroke: rgb(68, 68, 68); stroke-opacity: 1; fill: rgb(255, 255, 255); fill-opacity: 1; stroke-width: 0px;"/><g class="scrollbox" transform="" clip-path="url(#legend3b44d7)"><g class="groups" transform=""><g class="traces" transform="translate(0,14.5)" style="opacity: 1;"><text class="legendtext" text-anchor="start" x="40" y="4.680000000000001" style="font-family: 'Open Sans', verdana, arial, sans-serif; font-size: 12px; fill: rgb(42, 63, 95); fill-opacity: 1; white-space: pre;">Hiver</text><g class="layers" style="opacity: 1;"><g class="legendfill"/><g class="legendlines"><path class="js-line" d="M5,0h30" style="fill: none; stroke: rgb(65, 105, 225); stroke-opacity: 1; stroke-width: 2px;"/></g><g class="legendsymbols"><g class="legendpoints"/></g></g><rect class="legendtoggle" x="0" y="-9.5" width="74.96875" height="19" style="fill: rgb(0, 0, 0); fill-opacity: 0;"/></g></g><g class="groups" transform="translate(77.46875,0)"><g class="traces" transform="translate(0,14.5)" style="opacity: 1;"><text class="legendtext" text-anchor="start" x="40" y="4.680000000000001" style="font-family: 'Open Sans', verdana, arial, sans-serif; font-size: 12px; fill: rgb(42, 63, 95); fill-opacity: 1; white-space: pre;">Eté</text><g class="layers" style="opacity: 1;"><g class="legendfill"/><g class="legendlines"><path class="js-line" d="M5,0h30" style="fill: none; stroke: rgb(255, 215, 0); stroke-opacity: 1; stroke-width: 2px;"/></g><g class="legendsymbols"><g class="legendpoints"/></g></g><rect class="legendtoggle" x="0" y="-9.5" width="61.96875" height="19" style="fill: rgb(0, 0, 0); fill-opacity: 0;"/></g></g><g class="groups" transform="translate(141.9375,0)"><g class="traces" transform="translate(0,14.5)" style="opacity: 1;"><text class="legendtext" text-anchor="start" x="40" y="4.680000000000001" style="font-family: 'Open Sans', verdana, arial, sans-serif; font-size: 12px; fill: rgb(42, 63, 95); fill-opacity: 1; white-space: pre;">Automne</text><g class="layers" style="opacity: 1;"><g class="legendfill"/><g class="legendlines"><path class="js-line" d="M5,0h30" style="fill: none; stroke: rgb(243, 135, 47); stroke-opacity: 1; stroke-width: 2px;"/></g><g class="legendsymbols"><g class="legendpoints"/></g></g><rect class="legendtoggle" x="0" y="-9.5" width="97.671875" height="19" style="fill: rgb(0, 0, 0); fill-opacity: 0;"/></g></g><g class="groups" transform="translate(242.109375,0)"><g class="traces" transform="translate(0,14.5)" style="opacity: 1;"><text class="legendtext" text-anchor="start" x="40" y="4.680000000000001" style="font-family: 'Open Sans', verdana, arial, sans-serif; font-size: 12px; fill: rgb(42, 63, 95); fill-opacity: 1; white-space: pre;">Printemps</text><g class="layers" style="opacity: 1;"><g class="legendfill"/><g class="legendlines"><path class="js-line" d="M5,0h30" style="fill: none; stroke: rgb(97, 177, 90); stroke-opacity: 1; stroke-width: 2px;"/></g><g class="legendsymbols"><g class="legendpoints"/></g></g><rect class="legendtoggle" x="0" y="-9.5" width="103.78125" height="19" style="fill: rgb(0, 0, 0); fill-opacity: 0;"/></g></g><g class="groups" transform="translate(348.390625,0)"><g class="traces" transform="translate(0,14.5)" style="opacity: 1;"><text class="legendtext" text-anchor="start" x="40" y="4.680000000000001" style="font-family: 'Open Sans', verdana, arial, sans-serif; font-size: 12px; fill: rgb(42, 63, 95); fill-opacity: 1; white-space: pre;">Régression</text><g class="layers" style="opacity: 1;"><g class="legendfill"/><g class="legendlines"><path class="js-line" d="M5,0h30" style="fill: none; stroke: rgb(255, 0, 0); stroke-opacity: 1; stroke-width: 3px;"/></g><g class="legendsymbols"><g class="legendpoints"/></g></g><rect class="legendtoggle" x="0" y="-9.5" width="108.421875" height="19" style="fill: rgb(0, 0, 0); fill-opacity: 0;"/></g></g></g><rect class="scrollbar" rx="20" ry="3" width="0" height="0" x="0" y="0" style="fill: rgb(128, 139, 164); fill-opacity: 1;"/></g><g class="g-gtitle"><text class="gtitle" x="40" y="50" text-anchor="start" dy="0em" style="font-family: 'Open Sans', verdana, arial, sans-serif; font-size: 17px; fill: rgb(42, 63, 95); opacity: 1; font-weight: normal; white-space: pre;"><tspan class="line" dy="0em" x="40" y="50">Températures moyennes par années et par saisons</tspan><tspan class="line" dy="1.3em" x="40" y="50">Station : Paris Le Bourget, Fr</tspan></text></g><g class="g-xtitle"/><g class="g-x2title"/><g class="g-x3title"/><g class="g-x4title"/><g class="g-ytitle"/><g class="g-y2title"/><g class="g-y3title"/><g class="g-y4title"/></g></svg>