<svg class="main-svg" xmlns="http://www.w3.org/2000/svg" xmlns:xlink="http://www.w3.org/1999/xlink" width="700" height="500" style="" viewBox="0 0 700 500"><rect x="0" y="0" width="700" height="500" style="fill: rgb(252, 252, 252); fill-opacity: 1;"/><defs id="defs-840506"><g class="clips"><clipPath id="clip840506xyplot" class="plotclip"><rect width="302.85" height="153.00000000000003"/></clipPath><clipPath id="clip840506x2y2plot" class="plotclip"><rect width="302.84999999999997" height="153.00000000000003"/></clipPath><clipPath id="clip840506x3y3plot" class="plotclip"><rect width="302.85" height="153"/></clipPath><clipPath id="clip840506x4y4plot" class="plotclip"><rect width="302.84999999999997" height="153"/></clipPath><clipPath class="axesclip" id="clip840506x"><rect x="14" y="0" width="302.85" height="500"/></clipPath><clipPath class="axesclip" id="clip840506y"><rect x="0" y="100" width="700" height="153.00000000000003"/></clipPath><clipPath class="axesclip" id="clip840506xy"><rect x="14" y="100" width="302.85" height="153.00000000000003"/></clipPath><clipPath class="axesclip" id="clip840506y2"><rect x="0" y="100" width="700" height="153.00000000000003"/></clipPath><clipPath class="axesclip" id="clip840506xy2"><rect x="14" y="100" width="302.85" height="153.00000000000003"/></clipPath><clipPath class="axesclip" id="clip840506y3"><rect x="0" y="307" width="700" height="153"/></clipPath><clipPath class="axesclip" id="clip840506xy3"><rect x="14" y="307" width="302.85" height="153"/></clipPath><clipPath class="axesclip" id="clip840506y4"><rect x="0" y="307" width="700" height="153"/></clipPath><clipPath class="axesclip" id="clip840506xy4"><rect x="14" y="307" width="302.85" height="153"/></clipPath><clipPath class="axesclip" id="clip840506x2"><rect x="384.15000000000003" y="0" width="302.84999999999997" height="500"/></clipPath><clipPath class="axesclip" id="clip840506x2y"><rect x="384.15000000000003" y="100" width="302.84999999999997" height="153.00000000000003"/></clipPath><clipPath class="axesclip" id="clip840506x2y2"><rect x="384.15000000000003" y="100" width="302.84999999999997" height="153.00000000000003"/></clipPath><clipPath class="axesclip" id="clip840506x2y3"><rect x="384.15000000000003" y="307" width="302.84999999999997" height="153"/></clipPath><clipPath class="axesclip" id="clip840506x2y4"><rect x="384.15000000000003" y="307" width="302.84999999999997" height="153"/></clipPath><clipPath class="axesclip" id="clip840506x3"><rect x="14" y="0" width="302.85" height="500"/></clipPath><clipPath class="axesclip" id="clip840506x3y"><rect x="14" y="100" width="302.85" height="153.00000000000003"/></clipPath><clipPath class="axesclip" id="clip840506x3y2"><rect x="14" y="100" width="302.85" height="153.00000000000003"/></clipPath><clipPath class="axesclip" id="clip840506x3y3"><rect x="14" y="307" width="302.85" height="153"/></clipPath><clipPath class="axesclip" id="clip840506x3y4"><rect x="14" y="307" width="302.85" height="153"/></clipPath><clipPath class="axesclip" id="clip840506x4"><rect x="384.15000000000003" y="0" width="302.84999999999997" height="500"/></clipPath><clipPath class="axesclip" id="clip840506x4y"><rect x="384.15000000000003" y="100" width="302.84999999999997" height="153.00000000000003"/></clipPath><clipPath class="axesclip" id="clip840506x4y2"><rect x="384.15000000000003" y="100" width="302.84999999999997" height="153.00000000000003"/></clipPath><clipPath class="axesclip" id="clip840506x4y3"><rect x="384.15000000000003" y="307" width="302.84999999999997" height="153"/></clipPath><clipPath class="axesclip" id="clip840506x4y4"><rect x="384.15000000000003" y="307" width="302.84999999999997" height="153"/></clipPath></g><g class="gradients"/><g class="patterns"/></defs><g class="bglayer"><rect class="bg" x="14" y="100" width="302.85" height="153.00000000000003" style="fill: rgb(245, 245, 245); fill-opacity: 1; stroke-width: 0;"/><rect class="bg" x="384.15000000000003" y="100" width="302.84999999999997" height="153.00000000000003" style="fill: rgb(245, 245, 245); fill-opacity: 1; stroke-width: 0;"/><rect class="bg" x="14" y="307" width="302.85" height="153" style="fill: rgb(245, 245, 245); fill-opacity: 1; stroke-width: 0;"/><rect class="bg" x="384.15000000000003" y="307" width="302.84999999999997" height="153" style="fill: rgb(245, 245, 245); fill-opacity: 1; stroke-width: 0;"/></g><g class="layer-below"><g class="imagelayer"/><g class="shapelayer"/></g><g class="cartesianlayer"><g class="subplot xy"><g class="layer-subplot"><g class="shapelayer"/><g class="imagelayer"/></g><g class="gridlayer"><g class="x"><path class="xgrid crisp" transform="translate(114.95,0)" d="M0,100v153.00000000000003" style="stroke: rgb(220, 220, 220); stroke-opacity: 1; stroke-width: 0.1px;"/><path class="xgrid crisp" transform="translate(215.9,0)" d="M0,100v153.00000000000003" style="stroke: rgb(220, 220, 220); stroke-opacity: 1; stroke-width: 0.1px;"/></g><g class="y"><path class="ygrid crisp" transform="translate(0,204.75)" d="M14,0h302.85" style="stroke: rgb(220, 220, 220); stroke-opacity: 1; stroke-width: 0.1px;"/><path class="ygrid crisp" transform="translate(0,169.44)" d="M14,0h302.85" style="stroke: rgb(220, 220, 220); stroke-opacity: 1; stroke-width: 0.1px;"/><path class="ygrid crisp" transform="translate(0,134.13)" d="M14,0h302.85" style="stroke: rgb(220, 220, 220); stroke-opacity: 1; stroke-width: 0.1px;"/></g></g><g class="zerolinelayer"><path class="yzl zl crisp" transform="translate(0,240.05)" d="M14,0h302.85" style="stroke: rgb(211, 211, 211); stroke-opacity: 1; stroke-width: 2px;"/></g><path class="xlines-below"/><path class="ylines-below"/><g class="overlines-below"/><g class="xaxislayer-below"/><g class="yaxislayer-below"/><g class="overaxes-below"/><g class="plot" transform="translate(14,100)" clip-path="url(#clip840506xyplot)"><g class="scatterlayer mlayer"><g class="trace scatter trace9f02c2" style="stroke-miterlimit: 2; opacity: 1;"><g class="fills"/><g class="errorbars"/><g class="lines"><path class="js-line" d="M0,115.34L5.05,85.33L10.09,125.93L15.14,57.08L20.19,72.97L25.24,71.2L30.28,85.33L35.33,101.22L40.38,48.25L45.43,42.96L50.47,72.97L55.52,48.25L60.57,78.27L65.62,67.67L70.66,76.5L75.71,53.55L80.76,95.92L85.81,50.02L90.85,39.43L95.9,51.78L100.95,58.85L106,34.13L111.05,65.91L116.09,145.35L121.14,69.44L126.19,58.85L131.23,35.9L136.28,46.49L141.33,72.97L146.38,74.73L151.42,60.61L156.47,48.25L161.52,50.02L166.57,62.38L171.61,7.65L176.66,34.13L181.71,55.32L186.76,30.6L191.8,60.61L196.85,78.27L201.9,58.85L206.95,58.85L211.99,44.72L217.04,48.25L222.09,46.49L227.14,78.27L232.18,81.8L237.23,95.92L242.28,11.18L247.33,34.13L252.38,18.24L257.42,71.2L262.47,48.25L267.52,30.6L272.56,23.54L277.61,28.83L282.66,74.73L287.71,46.49L292.75,27.07L297.8,28.83L302.85,18.24" style="vector-effect: non-scaling-stroke; fill: none; stroke: rgb(65, 105, 225); stroke-opacity: 1; stroke-width: 2px; opacity: 1;"/></g><g class="points"/><g class="text"/></g><g class="trace scatter trace6cdf4b" style="stroke-miterlimit: 2; opacity: 1;"><g class="fills"/><g class="errorbars"/><g class="lines"><path class="js-line" d="M0,80.86L302.85,36.02" style="vector-effect: non-scaling-stroke; fill: none; stroke: rgb(255, 0, 0); stroke-opacity: 1; stroke-width: 2px; opacity: 1;"/></g><g class="points"/><g class="text"/></g></g></g><g class="overplot"/><path class="xlines-above crisp" d="M0,0" style="fill: none;"/><path class="ylines-above crisp" d="M0,0" style="fill: none;"/><g class="overlines-above"/><g class="xaxislayer-above"><g class="xtick"><text text-anchor="middle" x="0" y="266" transform="translate(14,0)" style="font-family: -apple-system, system-ui, BlinkMacSystemFont, 'Segoe UI', Roboto, 'Helvetica Neue', Arial, sans-serif; font-size: 12px; fill: rgb(42, 63, 95); fill-opacity: 1; white-space: pre; opacity: 1;">1940</text></g><g class="xtick"><text text-anchor="middle" x="0" y="266" style="font-family: -apple-system, system-ui, BlinkMacSystemFont, 'Segoe UI', Roboto, 'Helvetica Neue', Arial, sans-serif; font-size: 12px; fill: rgb(42, 63, 95); fill-opacity: 1; white-space: pre; opacity: 1;" transform="translate(114.95,0)">1960</text></g><g class="xtick"><text text-anchor="middle" x="0" y="266" style="font-family: -apple-system, system-ui, BlinkMacSystemFont, 'Segoe UI', Roboto, 'Helvetica Neue', Arial, sans-serif; font-size: 12px; fill: rgb(42, 63, 95); fill-opacity: 1; white-space: pre; opacity: 1;" transform="translate(215.9,0)">1980</text></g><g class="xtick"><text text-anchor="middle" x="0" y="266" style="font-family: -apple-system, system-ui, BlinkMacSystemFont, 'Segoe UI', Roboto, 'Helvetica Neue', Arial, sans-serif; font-size: 12px; fill: rgb(42, 63, 95); fill-opacity: 1; white-space: pre; opacity: 1;" transform="translate(316.85,0)">2000</text></g></g><g class="yaxislayer-above"><g class="ytick"><text text-anchor="end" x="13" y="4.199999999999999" transform="translate(0,240.05)" style="font-family: -apple-system, system-ui, BlinkMacSystemFont, 'Segoe UI', Roboto, 'Helvetica Neue', Arial, sans-serif; font-size: 12px; fill: rgb(42, 63, 95); fill-opacity: 1; white-space: pre; opacity: 1;">0</text></g><g class="ytick"><text text-anchor="end" x="13" y="4.199999999999999" style="font-family: -apple-system, system-ui, BlinkMacSystemFont, 'Segoe UI', Roboto, 'Helvetica Neue', Arial, sans-serif; font-size: 12px; fill: rgb(42, 63, 95); fill-opacity: 1; white-space: pre; opacity: 1;" transform="translate(0,204.75)">2</text></g><g class="ytick"><text text-anchor="end" x="13" y="4.199999999999999" style="font-family: -apple-system, system-ui, BlinkMacSystemFont, 'Segoe UI', Roboto, 'Helvetica Neue', Arial, sans-serif; font-size: 12px; fill: rgb(42, 63, 95); fill-opacity: 1; white-space: pre; opacity: 1;" transform="translate(0,169.44)">4</text></g><g class="ytick"><text text-anchor="end" x="13" y="4.199999999999999" style="font-family: -apple-system, system-ui, BlinkMacSystemFont, 'Segoe UI', Roboto, 'Helvetica Neue', Arial, sans-serif; font-size: 12px; fill: rgb(42, 63, 95); fill-opacity: 1; white-space: pre; opacity: 1;" transform="translate(0,134.13)">6</text></g></g><g class="overaxes-above"/></g><g class="subplot x2y2"><g class="layer-subplot"><g class="shapelayer"/><g class="imagelayer"/></g><g class="gridlayer"><g class="x2"><path class="x2grid crisp" transform="translate(485.1,0)" d="M0,100v153.00000000000003" style="stroke: rgb(220, 220, 220); stroke-opacity: 1; stroke-width: 0.1px;"/><path class="x2grid crisp" transform="translate(586.0500000000001,0)" d="M0,100v153.00000000000003" style="stroke: rgb(220, 220, 220); stroke-opacity: 1; stroke-width: 0.1px;"/></g><g class="y2"><path class="y2grid crisp" transform="translate(0,204.85)" d="M384.15000000000003,0h302.84999999999997" style="stroke: rgb(220, 220, 220); stroke-opacity: 1; stroke-width: 0.1px;"/><path class="y2grid crisp" transform="translate(0,150.85)" d="M384.15000000000003,0h302.84999999999997" style="stroke: rgb(220, 220, 220); stroke-opacity: 1; stroke-width: 0.1px;"/></g></g><g class="zerolinelayer"/><path class="xlines-below"/><path class="ylines-below"/><g class="overlines-below"/><g class="xaxislayer-below"/><g class="yaxislayer-below"/><g class="overaxes-below"/><g class="plot" transform="translate(384.15000000000003,100)" clip-path="url(#clip840506x2y2plot)"><g class="scatterlayer mlayer"><g class="trace scatter traced58cf1" style="stroke-miterlimit: 2; opacity: 1;"><g class="fills"/><g class="errorbars"/><g class="lines"><path class="js-line" d="M0,94.05L5.05,83.25L10.09,85.95L15.14,75.15L20.19,72.45L25.24,58.95L30.28,104.85L35.33,13.05L40.38,112.95L45.43,64.35L50.47,56.25L55.52,107.55L60.57,64.35L70.66,126.45L75.71,77.85L80.76,145.35L85.81,85.95L90.85,99.45L95.9,45.45L100.95,104.85L106,91.35L111.05,110.25L116.09,107.55L121.14,72.45L126.19,118.35L131.23,96.75L136.28,80.55L141.33,104.85L146.38,83.25L151.42,75.15L156.47,88.65L161.52,121.05L166.57,61.65L171.61,91.35L176.66,58.95L181.71,7.65L186.76,121.05L191.8,126.45L196.85,102.15L201.9,110.25L206.95,96.75L217.04,21.15L222.09,77.85L227.14,99.45L232.18,77.85L237.23,96.75L242.28,94.05L247.33,56.25L252.38,56.25L257.42,75.15L262.47,53.55L267.52,85.95L272.56,37.35L277.61,31.95L282.66,64.35L287.71,37.35L292.75,72.45L297.8,48.15L302.85,67.05" style="vector-effect: non-scaling-stroke; fill: none; stroke: rgb(255, 215, 0); stroke-opacity: 1; stroke-width: 2px; opacity: 1;"/></g><g class="points"/><g class="text"/></g><g class="trace scatter trace5615e3" style="stroke-miterlimit: 2; opacity: 1;"><g class="fills"/><g class="errorbars"/><g class="lines"><path class="js-line" d="M0,93.38L302.85,67.73" style="vector-effect: non-scaling-stroke; fill: none; stroke: rgb(255, 0, 0); stroke-opacity: 1; stroke-width: 2px; opacity: 1;"/></g><g class="points"/><g class="text"/></g></g></g><g class="overplot"/><path class="xlines-above crisp" d="M0,0" style="fill: none;"/><path class="ylines-above crisp" d="M0,0" style="fill: none;"/><g class="overlines-above"/><g class="xaxislayer-above"><g class="x2tick"><text text-anchor="middle" x="0" y="266" transform="translate(384.15000000000003,0)" style="font-family: -apple-system, system-ui, BlinkMacSystemFont, 'Segoe UI', Roboto, 'Helvetica Neue', Arial, sans-serif; font-size: 12px; fill: rgb(42, 63, 95); fill-opacity: 1; white-space: pre; opacity: 1;">1940</text></g><g class="x2tick"><text text-anchor="middle" x="0" y="266" style="font-family: -apple-system, system-ui, BlinkMacSystemFont, 'Segoe UI', Roboto, 'Helvetica Neue', Arial, sans-serif; font-size: 12px; fill: rgb(42, 63, 95); fill-opacity: 1; white-space: pre; opacity: 1;" transform="translate(485.1,0)">1960</text></g><g class="x2tick"><text text-anchor="middle" x="0" y="266" style="font-family: -apple-system, system-ui, BlinkMacSystemFont, 'Segoe UI', Roboto, 'Helvetica Neue', Arial, sans-serif; font-size: 12px; fill: rgb(42, 63, 95); fill-opacity: 1; white-space: pre; opacity: 1;" transform="translate(586.0500000000001,0)">1980</text></g><g class="x2tick"><text text-anchor="middle" x="0" y="266" style="font-family: -apple-system, system-ui, BlinkMacSystemFont, 'Segoe UI', Roboto, 'Helvetica Neue', Arial, sans-serif; font-size: 12px; fill: rgb(42, 63, 95); fill-opacity: 1; white-space: pre; opacity: 0;" transform="translate(687,0)">2000</text></g></g><g class="yaxislayer-above"><g class="y2tick"><text text-anchor="end" x="383.15000000000003" y="4.199999999999999" transform="translate(0,204.85)" style="font-family: -apple-system, system-ui, BlinkMacSystemFont, 'Segoe UI', Roboto, 'Helvetica Neue', Arial, sans-serif; font-size: 12px; fill: rgb(42, 63, 95); fill-opacity: 1; white-space: pre; opacity: 1;">18</text></g><g class="y2tick"><text text-anchor="end" x="383.15000000000003" y="4.199999999999999" style="font-family: -apple-system, system-ui, BlinkMacSystemFont, 'Segoe UI', Roboto, 'Helvetica Neue', Arial, sans-serif; font-size: 12px; fill: rgb(42, 63, 95); fill-opacity: 1; white-space: pre; opacity: 1;" transform="translate(0,150.85)">20</text></g></g><g class="overaxes-above"/></g><g class="subplot x3y3"><g class="layer-subplot"><g class="shapelayer"/><g class="imagelayer"/></g><g class="gridlayer"><g class="x3"><path class="x3grid crisp" transform="translate(114.95,0)" d="M0,307v153" style="stroke: rgb(220, 220, 220); stroke-opacity: 1; stroke-width: 0.1px;"/><path class="x3grid crisp" transform="translate(215.9,0)" d="M0,307v153" style="stroke: rgb(220, 220, 220); stroke-opacity: 1; stroke-width: 0.1px;"/></g><g class="y3"><path class="y3grid crisp" transform="translate(0,441.19)" d="M14,0h302.85" style="stroke: rgb(220, 220, 220); stroke-opacity: 1; stroke-width: 0.1px;"/><path class="y3grid crisp" transform="translate(0,403.97)" d="M14,0h302.85" style="stroke: rgb(220, 220, 220); stroke-opacity: 1; stroke-width: 0.1px;"/><path class="y3grid crisp" transform="translate(0,366.75)" d="M14,0h302.85" style="stroke: rgb(220, 220, 220); stroke-opacity: 1; stroke-width: 0.1px;"/><path class="y3grid crisp" transform="translate(0,329.54)" d="M14,0h302.85" style="stroke: rgb(220, 220, 220); stroke-opacity: 1; stroke-width: 0.1px;"/></g></g><g class="zerolinelayer"/><path class="xlines-below"/><path class="ylines-below"/><g class="overlines-below"/><g class="xaxislayer-below"/><g class="yaxislayer-below"/><g class="overaxes-below"/><g class="plot" transform="translate(14,307)" clip-path="url(#clip840506x3y3plot)"><g class="scatterlayer mlayer"><g class="trace scatter trace3cc11c" style="stroke-miterlimit: 2; opacity: 1;"><g class="fills"/><g class="errorbars"/><g class="lines"><path class="js-line" d="M0,74.64L5.05,70.92L10.09,63.47L15.14,85.8L20.19,96.97L25.24,48.59L30.28,63.47L35.33,11.37L40.38,85.8L45.43,11.37L50.47,82.08L55.52,41.14L60.57,145.35L65.62,59.75L70.66,44.87L75.71,85.8L80.76,74.64L85.81,74.64L90.85,44.87L95.9,7.65L100.95,56.03L106,18.81L111.05,78.36L116.09,29.98L121.14,59.75L126.19,85.8L131.23,56.03L136.28,44.87L141.33,48.59L146.38,15.09L151.42,11.37L156.47,52.31L161.52,85.8L166.57,44.87L171.61,104.41L181.71,48.59L186.76,44.87L191.8,52.31L196.85,41.14L201.9,67.2L206.95,48.59L211.99,11.37L217.04,37.42L222.09,26.26L227.14,67.2L232.18,37.42L237.23,18.81L242.28,52.31L247.33,7.65L252.38,26.26L257.42,37.42L262.47,59.75L267.52,130.46L272.56,11.37L277.61,15.09L282.66,67.2L287.71,11.37L292.75,70.92L297.8,26.26L302.85,18.81" style="vector-effect: non-scaling-stroke; fill: none; stroke: rgb(243, 135, 47); stroke-opacity: 1; stroke-width: 2px; opacity: 1;"/></g><g class="points"/><g class="text"/></g><g class="trace scatter trace34a045" style="stroke-miterlimit: 2; opacity: 1;"><g class="fills"/><g class="errorbars"/><g class="lines"><path class="js-line" d="M0,68.2L166.57,50.45L171.61,49.93L302.85,35.93" style="vector-effect: non-scaling-stroke; fill: none; stroke: rgb(255, 0, 0); stroke-opacity: 1; stroke-width: 2px; opacity: 1;"/></g><g class="points"/><g class="text"/></g></g></g><g class="overplot"/><path class="xlines-above crisp" d="M0,0" style="fill: none;"/><path class="ylines-above crisp" d="M0,0" style="fill: none;"/><g class="overlines-above"/><g class="xaxislayer-above"><g class="x3tick"><text text-anchor="middle" x="0" y="473" transform="translate(14,0)" style="font-family: -apple-system, system-ui, BlinkMacSystemFont, 'Segoe UI', Roboto, 'Helvetica Neue', Arial, sans-serif; font-size: 12px; fill: rgb(42, 63, 95); fill-opacity: 1; white-space: pre; opacity: 1;">1940</text></g><g class="x3tick"><text text-anchor="middle" x="0" y="473" style="font-family: -apple-system, system-ui, BlinkMacSystemFont, 'Segoe UI', Roboto, 'Helvetica Neue', Arial, sans-serif; font-size: 12px; fill: rgb(42, 63, 95); fill-opacity: 1; white-space: pre; opacity: 1;" transform="translate(114.95,0)">1960</text></g><g class="x3tick"><text text-anchor="middle" x="0" y="473" style="font-family: -apple-system, system-ui, BlinkMacSystemFont, 'Segoe UI', Roboto, 'Helvetica Neue', Arial, sans-serif; font-size: 12px; fill: rgb(42, 63, 95); fill-opacity: 1; white-space: pre; opacity: 1;" transform="translate(215.9,0)">1980</text></g><g class="x3tick"><text text-anchor="middle" x="0" y="473" style="font-family: -apple-system, system-ui, BlinkMacSystemFont, 'Segoe UI', Roboto, 'Helvetica Neue', Arial, sans-serif; font-size: 12px; fill: rgb(42, 63, 95); fill-opacity: 1; white-space: pre; opacity: 1;" transform="translate(316.85,0)">2000</text></g></g><g class="yaxislayer-above"><g class="y3tick"><text text-anchor="end" x="13" y="4.199999999999999" transform="translate(0,441.19)" style="font-family: -apple-system, system-ui, BlinkMacSystemFont, 'Segoe UI', Roboto, 'Helvetica Neue', Arial, sans-serif; font-size: 12px; fill: rgb(42, 63, 95); fill-opacity: 1; white-space: pre; opacity: 1;">10</text></g><g class="y3tick"><text text-anchor="end" x="13" y="4.199999999999999" style="font-family: -apple-system, system-ui, BlinkMacSystemFont, 'Segoe UI', Roboto, 'Helvetica Neue', Arial, sans-serif; font-size: 12px; fill: rgb(42, 63, 95); fill-opacity: 1; white-space: pre; opacity: 1;" transform="translate(0,403.97)">11</text></g><g class="y3tick"><text text-anchor="end" x="13" y="4.199999999999999" style="font-family: -apple-system, system-ui, BlinkMacSystemFont, 'Segoe UI', Roboto, 'Helvetica Neue', Arial, sans-serif; font-size: 12px; fill: rgb(42, 63, 95); fill-opacity: 1; white-space: pre; opacity: 1;" transform="translate(0,366.75)">12</text></g><g class="y3tick"><text text-anchor="end" x="13" y="4.199999999999999" style="font-family: -apple-system, system-ui, BlinkMacSystemFont, 'Segoe UI', Roboto, 'Helvetica Neue', Arial, sans-serif; font-size: 12px; fill: rgb(42, 63, 95); fill-opacity: 1; white-space: pre; opacity: 1;" transform="translate(0,329.54)">13</text></g></g><g class="overaxes-above"/></g><g class="subplot x4y4"><g class="layer-subplot"><g class="shapelayer"/><g class="imagelayer"/></g><g class="gridlayer"><g class="x4"><path class="x4grid crisp" transform="translate(485.1,0)" d="M0,307v153" style="stroke: rgb(220, 220, 220); stroke-opacity: 1; stroke-width: 0.1px;"/><path class="x4grid crisp" transform="translate(586.0500000000001,0)" d="M0,307v153" style="stroke: rgb(220, 220, 220); stroke-opacity: 1; stroke-width: 0.1px;"/></g><g class="y4"><path class="y4grid crisp" transform="translate(0,455.78999999999996)" d="M384.15000000000003,0h302.84999999999997" style="stroke: rgb(220, 220, 220); stroke-opacity: 1; stroke-width: 0.1px;"/><path class="y4grid crisp" transform="translate(0,421.37)" d="M384.15000000000003,0h302.84999999999997" style="stroke: rgb(220, 220, 220); stroke-opacity: 1; stroke-width: 0.1px;"/><path class="y4grid crisp" transform="translate(0,386.94)" d="M384.15000000000003,0h302.84999999999997" style="stroke: rgb(220, 220, 220); stroke-opacity: 1; stroke-width: 0.1px;"/><path class="y4grid crisp" transform="translate(0,352.52)" d="M384.15000000000003,0h302.84999999999997" style="stroke: rgb(220, 220, 220); stroke-opacity: 1; stroke-width: 0.1px;"/><path class="y4grid crisp" transform="translate(0,318.09)" d="M384.15000000000003,0h302.84999999999997" style="stroke: rgb(220, 220, 220); stroke-opacity: 1; stroke-width: 0.1px;"/></g></g><g class="zerolinelayer"/><path class="xlines-below"/><path class="ylines-below"/><g class="overlines-below"/><g class="xaxislayer-below"/><g class="yaxislayer-below"/><g class="overaxes-below"/><g class="plot" transform="translate(384.15000000000003,307)" clip-path="url(#clip840506x4y4plot)"><g class="scatterlayer mlayer"><g class="trace scatter trace4ec731" style="stroke-miterlimit: 2; opacity: 1;"><g class="fills"/><g class="errorbars"/><g class="lines"><path class="js-line" d="M0,66.17L5.05,128.14L10.09,48.96L15.14,21.42L20.19,83.39L25.24,7.65L30.28,69.61L35.33,31.75L40.38,24.86L45.43,79.94L50.47,69.61L55.52,121.25L60.57,24.86L65.62,38.63L70.66,86.83L75.71,121.25L80.76,86.83L85.81,69.61L90.85,121.25L95.9,35.19L100.95,38.63L106,28.31L111.05,145.35L116.09,93.71L121.14,73.06L126.19,83.39L131.23,69.61L136.28,83.39L141.33,90.27L146.38,76.5L151.42,128.14L156.47,73.06L161.52,73.06L166.57,97.16L171.61,73.06L176.66,121.25L181.71,76.5L186.76,79.94L191.8,97.16L196.85,107.48L201.9,104.04L206.95,45.52L211.99,76.5L222.09,121.25L227.14,86.83L232.18,114.37L237.23,97.16L242.28,55.85L247.33,24.86L252.38,21.42L257.42,66.17L262.47,31.75L267.52,31.75L272.56,45.52L277.61,69.61L282.66,93.71L287.71,28.31L292.75,31.75L297.8,7.65L302.85,31.75" style="vector-effect: non-scaling-stroke; fill: none; stroke: rgb(97, 177, 90); stroke-opacity: 1; stroke-width: 2px; opacity: 1;"/></g><g class="points"/><g class="text"/></g><g class="trace scatter trace8427f5" style="stroke-miterlimit: 2; opacity: 1;"><g class="fills"/><g class="errorbars"/><g class="lines"><path class="js-line" d="M0,76.53L227.14,68.27L232.18,68.1L302.85,65.52" style="vector-effect: non-scaling-stroke; fill: none; stroke: rgb(255, 0, 0); stroke-opacity: 1; stroke-width: 2px; opacity: 1;"/></g><g class="points"/><g class="text"/></g></g></g><g class="overplot"/><path class="xlines-above crisp" d="M0,0" style="fill: none;"/><path class="ylines-above crisp" d="M0,0" style="fill: none;"/><g class="overlines-above"/><g class="xaxislayer-above"><g class="x4tick"><text text-anchor="middle" x="0" y="473" transform="translate(384.15000000000003,0)" style="font-family: -apple-system, system-ui, BlinkMacSystemFont, 'Segoe UI', Roboto, 'Helvetica Neue', Arial, sans-serif; font-size: 12px; fill: rgb(42, 63, 95); fill-opacity: 1; white-space: pre; opacity: 1;">1940</text></g><g class="x4tick"><text text-anchor="middle" x="0" y="473" style="font-family: -apple-system, system-ui, BlinkMacSystemFont, 'Segoe UI', Roboto, 'Helvetica Neue', Arial, sans-serif; font-size: 12px; fill: rgb(42, 63, 95); fill-opacity: 1; white-space: pre; opacity: 1;" transform="translate(485.1,0)">1960</text></g><g class="x4tick"><text text-anchor="middle" x="0" y="473" style="font-family: -apple-system, system-ui, BlinkMacSystemFont, 'Segoe UI', Roboto, 'Helvetica Neue', Arial, sans-serif; font-size: 12px; fill: rgb(42, 63, 95); fill-opacity: 1; white-space: pre; opacity: 1;" transform="translate(586.0500000000001,0)">1980</text></g><g class="x4tick"><text text-anchor="middle" x="0" y="473" style="font-family: -apple-system, system-ui, BlinkMacSystemFont, 'Segoe UI', Roboto, 'Helvetica Neue', Arial, sans-serif; font-size: 12px; fill: rgb(42, 63, 95); fill-opacity: 1; white-space: pre; opacity: 0;" transform="translate(687,0)">2000</text></g></g><g class="yaxislayer-above"><g class="y4tick"><text text-anchor="end" x="383.15000000000003" y="4.199999999999999" transform="translate(0,455.78999999999996)" style="font-family: -apple-system, system-ui, BlinkMacSystemFont, 'Segoe UI', Roboto, 'Helvetica Neue', Arial, sans-serif; font-size: 12px; fill: rgb(42, 63, 95); fill-opacity: 1; white-space: pre; opacity: 1;">9</text></g><g class="y4tick"><text text-anchor="end" x="383.15000000000003" y="4.199999999999999" style="font-family: -apple-system, system-ui, BlinkMacSystemFont, 'Segoe UI', Roboto, 'Helvetica Neue', Arial, sans-serif; font-size: 12px; fill: rgb(42, 63, 95); fill-opacity: 1; white-space: pre; opacity: 1;" transform="translate(0,421.37)">10</text></g><g class="y4tick"><text text-anchor="end" x="383.15000000000003" y="4.199999999999999" style="font-family: -apple-system, system-ui, BlinkMacSystemFont, 'Segoe UI', Roboto, 'Helvetica Neue', Arial, sans-serif; font-size: 12px; fill: rgb(42, 63, 95); fill-opacity: 1; white-space: pre; opacity: 1;" transform="translate(0,386.94)">11</text></g><g class="y4tick"><text text-anchor="end" x="383.15000000000003" y="4.199999999999999" style="font-family: -apple-system, system-ui, BlinkMacSystemFont, 'Segoe UI', Roboto, 'Helvetica Neue', Arial, sans-serif; font-size: 12px; fill: rgb(42, 63, 95); fill-opacity: 1; white-space: pre; opacity: 1;" transform="translate(0,352.52)">12</text></g><g class="y4tick"><text text-anchor="end" x="383.15000000000003" y="4.199999999999999" style="font-family: -apple-system, system-ui, BlinkMacSystemFont, 'Segoe UI', Roboto, 'Helvetica Neue', Arial, sans-serif; font-size: 12px; fill: rgb(42, 63, 95); fill-opacity: 1; white-space: pre; opacity: 1;" transform="translate(0,318.09)">13</text></g></g><g class="overaxes-above"/></g></g><g class="polarlayer"/><g class="smithlayer"/><g class="ternarylayer"/><g class="geolayer"/><g class="funnelarealayer"/><g class="pielayer"/><g class="iciclelayer"/><g class="treemaplayer"/><g class="sunburstlayer"/><g class="glimages"/><defs id="topdefs-840506"><g class="clips"/></defs><g class="layer-above"><g class="imagelayer"/><g class="shapelayer"/></g><g class="infolayer"><g class="g-gtitle"><text class="gtitle" x="350" y="25" text-anchor="middle" dy="0.7em" style="font-family: -apple-system, system-ui, BlinkMacSystemFont, 'Segoe UI', Roboto, 'Helvetica Neue', Arial, sans-serif; font-size: 17px; fill: rgb(42, 63, 95); opacity: 1; font-weight: normal; white-space: pre;"><tspan class="line" dy="0em" x="350" y="25">Températures moyennes par années et par saisons</tspan><tspan class="line" dy="1.3em" x="350" y="25">Station : Paris Le Bourget, Fr</tspan></text></g><g class="g-xtitle"/><g class="g-x2title"/><g class="g-x3title"/><g class="g-x4title"/><g class="g-ytitle"/><g class="g-y2title"/><g class="g-y3title"/><g class="g-y4title"/><g class="annotation" data-index="0" style="opacity: 1;"><g class="annotation-text-g" transform="rotate(0,165.425,87.5)"><g class="cursor-pointer" transform="translate(145,75)"><rect class="bg" x="0.5" y="0.5" width="40" height="24" style="stroke-width: 1px; stroke: rgb(0, 0, 0); stroke-opacity: 0; fill: rgb(0, 0, 0); fill-opacity: 0;"/><text class="annotation-text" text-anchor="middle" x="20.421875" y="19" style="font-family: -apple-system, system-ui, BlinkMacSystemFont, 'Segoe UI', Roboto, 'Helvetica Neue', Arial, sans-serif; font-size: 16px; fill: rgb(42, 63, 95); fill-opacity: 1; white-space: pre;">Hiver</text></g></g></g><g class="annotation" data-index="1" style="opacity: 1;"><g class="annotation-text-g" transform="rotate(0,535.575,87.5)"><g class="cursor-pointer" transform="translate(523,75)"><rect class="bg" x="0.5" y="0.5" width="25" height="24" style="stroke-width: 1px; stroke: rgb(0, 0, 0); stroke-opacity: 0; fill: rgb(0, 0, 0); fill-opacity: 0;"/><text class="annotation-text" text-anchor="middle" x="12.953125" y="19" style="font-family: -apple-system, system-ui, BlinkMacSystemFont, 'Segoe UI', Roboto, 'Helvetica Neue', Arial, sans-serif; font-size: 16px; fill: rgb(42, 63, 95); fill-opacity: 1; white-space: pre;">Eté</text></g></g></g><g class="annotation" data-index="2" style="opacity: 1;"><g class="annotation-text-g" transform="rotate(0,165.425,294.5)"><g class="cursor-pointer" transform="translate(130,282)"><rect class="bg" x="0.5" y="0.5" width="69" height="24" style="stroke-width: 1px; stroke: rgb(0, 0, 0); stroke-opacity: 0; fill: rgb(0, 0, 0); fill-opacity: 0;"/><text class="annotation-text" text-anchor="middle" x="35.6875" y="19" style="font-family: -apple-system, system-ui, BlinkMacSystemFont, 'Segoe UI', Roboto, 'Helvetica Neue', Arial, sans-serif; font-size: 16px; fill: rgb(42, 63, 95); fill-opacity: 1; white-space: pre;">Automne</text></g></g></g><g class="annotation" data-index="3" style="opacity: 1;"><g class="annotation-text-g" transform="rotate(0,535.575,294.5)"><g class="cursor-pointer" transform="translate(498,282)"><rect class="bg" x="0.5" y="0.5" width="74" height="24" style="stroke-width: 1px; stroke: rgb(0, 0, 0); stroke-opacity: 0; fill: rgb(0, 0, 0); fill-opacity: 0;"/><text class="annotation-text" text-anchor="middle" x="37.609375" y="19" style="font-family: -apple-system, system-ui, BlinkMacSystemFont, 'Segoe UI', Roboto, 'Helvetica Neue', Arial, sans-serif; font-size: 16px; fill: rgb(42, 63, 95); fill-opacity: 1; white-space: pre;">Printemps</text></g></g></g></g></svg>