<svg class="main-svg" xmlns="http://www.w3.org/2000/svg" xmlns:xlink="http://www.w3.org/1999/xlink" width="700" height="500" style="" viewBox="0 0 700 500"><rect x="0" y="0" width="700" height="500" style="fill: rgb(255, 255, 255); fill-opacity: 1;"/><defs id="defs-83a383"><g class="clips"/><g class="gradients"/></defs><g class="bglayer"/><g class="layer-below"><g class="imagelayer"/><g class="shapelayer"/></g><g class="cartesianlayer"/><g class="polarlayer"/><g class="ternarylayer"/><g class="geolayer"/><g class="funnelarealayer"/><g class="pielayer"><g class="trace" stroke-linejoin="round" style="opacity: 1;"><g class="slice"><path class="surface" d="M229.6939967101671,364.13114877502346a88,88 0 1 0 25.806003289832883,-172.1311487750235l0,-132a220,220 0 1 1 -64.5150082245822,430.3278719375587Z" style="pointer-events: all; stroke-width: 0; fill: rgb(255, 215, 0); fill-opacity: 1; stroke: rgb(68, 68, 68); stroke-opacity: 1;"/><g class="slicetext"><text data-notex="1" class="slicetext" transform="translate(407.7979720726262,308.33260174762364)" text-anchor="middle" x="0" y="0" style="font-family: Arial; font-size: 15px; fill: rgb(68, 68, 68); fill-opacity: 1; white-space: pre;">54.7%</text></g></g><g class="slice"><path class="surface" d="M255.5,192a88,88 0 0 0 -83.69297343397352,60.80650449500463l-125.53946015096025,-40.79024325749307a220,220 0 0 1 209.23243358493377,-152.01626123751157Z" style="pointer-events: all; stroke-width: 0; fill: rgb(0, 128, 0); fill-opacity: 1; stroke: rgb(68, 68, 68); stroke-opacity: 1;"/><g class="slicetext"><text data-notex="1" class="slicetext" transform="translate(164.98107114695915,160.91138286625812)" text-anchor="middle" x="0" y="0" style="font-family: Arial; font-size: 15px; fill: rgb(255, 255, 255); fill-opacity: 1; white-space: pre;">20%</text></g></g><g class="slice"><path class="surface" d="M171.80702656602648,252.80650449500462a88,88 0 0 0 7.00235999477311,70.3507638420801l-115.0359201588006,64.73590250562708a220,220 0 0 1 -17.505899986932775,-175.87690960520024Z" style="pointer-events: all; stroke-width: 0; fill: rgb(245, 222, 179); fill-opacity: 1; stroke: rgb(68, 68, 68); stroke-opacity: 1;"/><g class="slicetext"><text data-notex="1" class="slicetext" transform="translate(99.31896758056257,301.04547177072834)" text-anchor="middle" x="0" y="0" style="font-family: Arial; font-size: 15px; fill: rgb(68, 68, 68); fill-opacity: 1; white-space: pre;">13.2%</text></g></g><g class="slice"><path class="surface" d="M178.8093865607996,323.1572683370847a88,88 0 0 0 32.27124611853414,32.80930198718176l-66.6290509809994,113.94985548639971a220,220 0 0 1 -80.67811529633533,-82.0232549679544Z" style="pointer-events: all; stroke-width: 0; fill: rgb(255, 69, 0); fill-opacity: 1; stroke: rgb(68, 68, 68); stroke-opacity: 1;"/><g class="slicetext"><text data-notex="1" class="slicetext" transform="translate(131.16646640015887,407.79452687396724)" text-anchor="middle" x="0" y="0" style="font-family: Arial; font-size: 15px; fill: rgb(255, 255, 255); fill-opacity: 1; white-space: pre;">8.42%</text></g></g><g class="slice"><path class="surface" d="M211.08063267933375,355.9665703242665a88,88 0 0 0 18.61336403083332,8.164578450756983l-38.709004934749416,126.19672316253519a220,220 0 0 1 -46.5334100770833,-20.411446126892457Z" style="pointer-events: all; stroke-width: 0; fill: rgb(211, 211, 211); fill-opacity: 1; stroke: rgb(68, 68, 68); stroke-opacity: 1;"/><g class="slicetext"><text data-notex="1" class="slicetext" transform="translate(188.61598074291288,446.1721710492231)rotate(-66.31578947368416)" text-anchor="middle" x="0" y="0" style="font-family: Arial; font-size: 15px; fill: rgb(68, 68, 68); fill-opacity: 1; white-space: pre;">3.68%</text></g></g></g></g><g class="treemaplayer"/><g class="sunburstlayer"/><g class="glimages"/><defs id="topdefs-83a383"><g class="clips"/><clipPath id="legend83a383"><rect width="179" height="123" x="0" y="0"/></clipPath></defs><g class="layer-above"><g class="imagelayer"/><g class="shapelayer"/></g><g class="infolayer"><g class="legend" pointer-events="all" transform="translate(521, 60)"><rect class="bg" shape-rendering="crispEdges" style="stroke: rgb(68, 68, 68); stroke-opacity: 1; fill: rgb(255, 255, 255); fill-opacity: 1; stroke-width: 0px;" width="179" height="123" x="0" y="0"/><g class="scrollbox" transform="translate(0, 0)" clip-path="url('#legend83a383')"><g class="groups"><g class="traces" transform="translate(0, 16.25)" style="opacity: 1;"><text class="legendtext" text-anchor="start" x="40" y="5.85" style="font-family: Arial; font-size: 15px; fill: rgb(42, 63, 95); fill-opacity: 1; white-space: pre;">Terres agricoles</text><g class="layers" style="opacity: 1;"><g class="legendfill"/><g class="legendlines"/><g class="legendsymbols"><g class="legendpoints"><path class="legendpie" d="M6,6H-6V-6H6Z" transform="translate(20,0)" style="stroke-width: 0; fill: rgb(255, 215, 0); fill-opacity: 1; stroke: rgb(68, 68, 68); stroke-opacity: 1;"/></g></g></g><rect class="legendtoggle" x="0" y="-11.25" width="173.90625" height="22.5" style="fill: rgb(0, 0, 0); fill-opacity: 0;"/></g><g class="traces" transform="translate(0, 38.75)" style="opacity: 1;"><text class="legendtext" text-anchor="start" x="40" y="5.85" style="font-family: Arial; font-size: 15px; fill: rgb(42, 63, 95); fill-opacity: 1; white-space: pre;">Forêts</text><g class="layers" style="opacity: 1;"><g class="legendfill"/><g class="legendlines"/><g class="legendsymbols"><g class="legendpoints"><path class="legendpie" d="M6,6H-6V-6H6Z" transform="translate(20,0)" style="stroke-width: 0; fill: rgb(0, 128, 0); fill-opacity: 1; stroke: rgb(68, 68, 68); stroke-opacity: 1;"/></g></g></g><rect class="legendtoggle" x="0" y="-11.25" width="173.90625" height="22.5" style="fill: rgb(0, 0, 0); fill-opacity: 0;"/></g><g class="traces" transform="translate(0, 61.25)" style="opacity: 1;"><text class="legendtext" text-anchor="start" x="40" y="5.85" style="font-family: Arial; font-size: 15px; fill: rgb(42, 63, 95); fill-opacity: 1; white-space: pre;">Pré/prairie</text><g class="layers" style="opacity: 1;"><g class="legendfill"/><g class="legendlines"/><g class="legendsymbols"><g class="legendpoints"><path class="legendpie" d="M6,6H-6V-6H6Z" transform="translate(20,0)" style="stroke-width: 0; fill: rgb(245, 222, 179); fill-opacity: 1; stroke: rgb(68, 68, 68); stroke-opacity: 1;"/></g></g></g><rect class="legendtoggle" x="0" y="-11.25" width="173.90625" height="22.5" style="fill: rgb(0, 0, 0); fill-opacity: 0;"/></g><g class="traces" transform="translate(0, 83.75)" style="opacity: 1;"><text class="legendtext" text-anchor="start" x="40" y="5.85" style="font-family: Arial; font-size: 15px; fill: rgb(42, 63, 95); fill-opacity: 1; white-space: pre;">Zones résidentielles</text><g class="layers" style="opacity: 1;"><g class="legendfill"/><g class="legendlines"/><g class="legendsymbols"><g class="legendpoints"><path class="legendpie" d="M6,6H-6V-6H6Z" transform="translate(20,0)" style="stroke-width: 0; fill: rgb(255, 69, 0); fill-opacity: 1; stroke: rgb(68, 68, 68); stroke-opacity: 1;"/></g></g></g><rect class="legendtoggle" x="0" y="-11.25" width="173.90625" height="22.5" style="fill: rgb(0, 0, 0); fill-opacity: 0;"/></g><g class="traces" transform="translate(0, 106.25)" style="opacity: 1;"><text class="legendtext" text-anchor="start" x="40" y="5.85" style="font-family: Arial; font-size: 15px; fill: rgb(42, 63, 95); fill-opacity: 1; white-space: pre;">Autre</text><g class="layers" style="opacity: 1;"><g class="legendfill"/><g class="legendlines"/><g class="legendsymbols"><g class="legendpoints"><path class="legendpie" d="M6,6H-6V-6H6Z" transform="translate(20,0)" style="stroke-width: 0; fill: rgb(211, 211, 211); fill-opacity: 1; stroke: rgb(68, 68, 68); stroke-opacity: 1;"/></g></g></g><rect class="legendtoggle" x="0" y="-11.25" width="173.90625" height="22.5" style="fill: rgb(0, 0, 0); fill-opacity: 0;"/></g></g></g><rect class="scrollbar" rx="20" ry="3" width="0" height="0" style="fill: rgb(128, 139, 164); fill-opacity: 1;" x="0" y="0"/></g><g class="g-gtitle"><text class="gtitle" x="35" y="30" text-anchor="start" dy="0em" style="font-family: Arial; font-size: 21px; fill: rgb(42, 63, 95); opacity: 1; font-weight: normal; white-space: pre;">Répartition de l'occupation du sol dans la ville de Pontacq</text></g></g></svg>