<svg class="main-svg" xmlns="http://www.w3.org/2000/svg" xmlns:xlink="http://www.w3.org/1999/xlink" width="700" height="500" style="" viewBox="0 0 700 500"><rect x="0" y="0" width="700" height="500" style="fill: rgb(255, 255, 255); fill-opacity: 1;"/><defs id="defs-489b9f"><g class="clips"><clipPath id="clip489b9fxyplot" class="plotclip"><rect width="540" height="320"/></clipPath><clipPath class="axesclip" id="clip489b9fx"><rect x="80" y="0" width="540" height="500"/></clipPath><clipPath class="axesclip" id="clip489b9fy"><rect x="0" y="100" width="700" height="320"/></clipPath><clipPath class="axesclip" id="clip489b9fxy"><rect x="80" y="100" width="540" height="320"/></clipPath></g><g class="gradients"/><g class="patterns"/></defs><g class="bglayer"/><g class="layer-below"><g class="imagelayer"/><g class="shapelayer"/></g><g class="cartesianlayer"><g class="subplot xy"><g class="layer-subplot"><g class="shapelayer"/><g class="imagelayer"/></g><g class="gridlayer"><g class="x"><path class="xgrid crisp" transform="translate(189.79000000000002,0)" d="M0,100v320" style="stroke: rgb(240, 240, 240); stroke-opacity: 1; stroke-width: 0.1px;"/><path class="xgrid crisp" transform="translate(299.58000000000004,0)" d="M0,100v320" style="stroke: rgb(240, 240, 240); stroke-opacity: 1; stroke-width: 0.1px;"/><path class="xgrid crisp" transform="translate(409.38,0)" d="M0,100v320" style="stroke: rgb(240, 240, 240); stroke-opacity: 1; stroke-width: 0.1px;"/><path class="xgrid crisp" transform="translate(519.1700000000001,0)" d="M0,100v320" style="stroke: rgb(240, 240, 240); stroke-opacity: 1; stroke-width: 0.1px;"/></g><g class="y"><path class="ygrid crisp" transform="translate(0,414.12)" d="M80,0h540" style="stroke: rgb(240, 240, 240); stroke-opacity: 1; stroke-width: 0.1px;"/><path class="ygrid crisp" transform="translate(0,361.67)" d="M80,0h540" style="stroke: rgb(240, 240, 240); stroke-opacity: 1; stroke-width: 0.1px;"/><path class="ygrid crisp" transform="translate(0,309.21000000000004)" d="M80,0h540" style="stroke: rgb(240, 240, 240); stroke-opacity: 1; stroke-width: 0.1px;"/><path class="ygrid crisp" transform="translate(0,256.75)" d="M80,0h540" style="stroke: rgb(240, 240, 240); stroke-opacity: 1; stroke-width: 0.1px;"/><path class="ygrid crisp" transform="translate(0,204.29000000000002)" d="M80,0h540" style="stroke: rgb(240, 240, 240); stroke-opacity: 1; stroke-width: 0.1px;"/><path class="ygrid crisp" transform="translate(0,151.82999999999998)" d="M80,0h540" style="stroke: rgb(240, 240, 240); stroke-opacity: 1; stroke-width: 0.1px;"/></g></g><g class="zerolinelayer"><path class="xzl zl crisp" transform="translate(80,0)" d="M0,100v320" style="stroke: rgb(169, 169, 169); stroke-opacity: 1; stroke-width: 1px;"/></g><path class="xlines-below"/><path class="ylines-below"/><g class="overlines-below"/><g class="xaxislayer-below"/><g class="yaxislayer-below"/><g class="overaxes-below"/><g class="plot" transform="translate(80,100)" clip-path="url(#clip489b9fxyplot)"><g class="scatterlayer mlayer"><g class="trace scatter trace7c8f2f" style="stroke-miterlimit: 2;"><g class="fills"><g><path class="js-fill" d="M540,523.96L0,523.96L0,48.05L1.36,51.1L2.72,49.42L4.08,48.68L5.45,55.4L9.53,64.42L10.89,70.09L12.25,81L13.61,99.99L14.98,113.1L16.34,115.62L19.06,146.36L20.42,155.17L25.87,156.96L27.23,156.43L29.95,156.96L31.31,159.27L34.04,158.85L35.4,157.38L36.76,155.49L38.12,155.49L39.48,156.85L40.84,157.06L43.54,158.64L44.9,158.32L47.63,159.27L48.99,160L53.07,162.2L54.43,162.41L61.24,165.67L62.6,165.46L63.96,164.72L65.33,165.35L68.05,165.77L69.41,165.04L70.77,165.88L72.13,165.56L73.49,163.88L74.86,163.67L76.22,165.98L77.58,165.67L81.66,160.73L83.02,161.57L84.39,163.04L85.75,163.36L89.83,164.83L91.19,165.46L92.55,166.82L93.92,166.3L95.28,166.4L96.64,163.88L100.7,164.41L102.06,163.25L104.79,166.09L106.15,166.4L108.87,167.87L110.23,168.81L111.59,169.76L112.95,169.13L115.68,169.44L117.04,170.81L119.76,172.59L121.12,173.53L125.21,175.63L126.57,175.74L129.29,176.68L130.65,176.58L134.74,176.58L136.1,178.26L138.82,179.2L140.18,180.14L142.91,181.09L144.24,182.87L148.33,180.67L149.69,180.98L151.05,182.87L152.41,183.19L153.77,182.66L155.14,183.92L157.86,184.24L159.22,186.65L161.94,194.73L163.3,195.67L166.03,194.41L167.39,195.04L170.11,197.35L171.47,197.46L172.83,194.73L174.2,194.1L175.56,196.09L176.92,196.72L182.34,192.31L183.7,192.94L185.07,193.26L186.43,192L187.79,192.1L189.15,194.62L191.87,196.93L193.23,196.62L197.32,196.41L198.68,197.35L200.04,200.08L201.4,200.92L202.76,200.81L204.12,199.66L206.85,199.03L208.21,200.18L210.91,200.6L212.27,200.92L216.36,200.81L217.72,201.44L220.44,203.02L221.8,202.49L223.16,201.44L224.52,201.76L227.25,205.74L228.61,205.74L231.33,205.32L232.69,205.74L236.78,204.7L238.14,207.32L240.84,209.52L242.2,209.52L244.92,209.42L246.28,210.47L249.01,212.04L250.37,213.93L254.45,216.66L255.81,215.71L257.18,215.08L258.54,215.61L261.26,215.19L262.62,213.93L263.98,215.19L265.32,217.91L268.05,217.81L269.41,219.17L272.13,219.7L273.49,218.86L274.85,219.17L276.21,220.54L278.94,221.9L280.3,224.52L281.66,227.25L283.02,225.26L284.38,223.37L285.74,223.9L287.11,222.74L288.47,224.52L291.17,227.57L292.53,228.41L295.25,229.77L296.61,230.09L297.97,232.08L299.34,231.97L300.7,231.76L302.06,232.5L304.78,233.34L306.14,234.39L307.5,235.23L308.87,237.11L311.59,239.63L312.93,240.26L314.29,243.72L315.65,244.98L317.01,241.21L318.37,241.31L323.82,239.53L325.18,240.05L326.54,240.16L327.9,241.52L329.27,243.51L330.63,243.83L333.35,243.72L334.69,244.98L336.05,245.61L337.41,244.35L341.5,246.66L342.86,248.66L344.22,249.7L345.58,252.43L348.3,254.95L349.66,254.32L351.03,255.06L352.39,253.69L353.73,255.16L355.09,254.95L356.45,253.27L357.81,255.48L359.17,258.94L360.53,260.09L363.26,263.24L364.62,260.62L367.34,264.5L368.7,264.81L371.43,275.72L372.79,277.4L374.13,280.13L375.49,281.08L376.85,280.24L378.21,281.5L380.93,284.64L382.3,285.06L387.74,286.53L389.1,288.1L390.46,289.57L391.8,288.52L394.53,286.22L395.89,288.31L404.06,289.78L405.42,289.78L408.14,290.73L409.5,292.2L413.56,293.56L414.93,294.09L419.01,294.5L420.37,292.62L424.46,284.33L425.82,282.75L427.16,276.77L428.52,274.36L429.88,273.94L431.24,272.37L435.32,271.11L436.69,272.58L438.05,273.21L439.41,275.1L442.13,276.67L443.49,277.4L444.83,277.72L446.19,279.5L450.28,281.5L451.64,281.6L453,281.91L454.36,280.34L455.72,279.19L457.09,279.5L459.79,279.82L461.15,279.08L462.51,278.66L463.87,276.25L469.32,278.14L470.68,278.98L472.04,279.61L473.4,279.08L477.46,278.56L478.82,279.29L480.19,280.87L481.55,280.97L482.91,281.08L484.27,282.12L485.63,283.7L486.99,284.01L488.35,284.33L489.72,285.8L493.78,285.48L495.14,286.43L499.22,288.21L500.58,288.42L501.95,288.94L503.31,288.52L510.09,289.99L511.45,289.68L516.9,292.09L518.26,292.62L520.96,293.56L522.32,293.88L525.05,295.55L526.41,295.24L529.13,295.97L530.49,294.3L531.85,295.24L533.21,295.13L535.92,295.97L537.28,294.61L540,296.92" style="fill: rgb(0, 204, 150); fill-opacity: 0.18; stroke-width: 0;"/></g></g><g class="errorbars"/><g class="lines"><path class="js-line" d="M0,48.05L1.36,51.1L2.72,49.42L4.08,48.68L5.45,55.4L9.53,64.42L10.89,70.09L12.25,81L13.61,99.99L14.98,113.1L16.34,115.62L19.06,146.36L20.42,155.17L25.87,156.96L27.23,156.43L29.95,156.96L31.31,159.27L34.04,158.85L35.4,157.38L36.76,155.49L38.12,155.49L39.48,156.85L40.84,157.06L43.54,158.64L44.9,158.32L47.63,159.27L48.99,160L53.07,162.2L54.43,162.41L61.24,165.67L62.6,165.46L63.96,164.72L65.33,165.35L68.05,165.77L69.41,165.04L70.77,165.88L72.13,165.56L73.49,163.88L74.86,163.67L76.22,165.98L77.58,165.67L81.66,160.73L83.02,161.57L84.39,163.04L85.75,163.36L89.83,164.83L91.19,165.46L92.55,166.82L93.92,166.3L95.28,166.4L96.64,163.88L100.7,164.41L102.06,163.25L104.79,166.09L106.15,166.4L108.87,167.87L110.23,168.81L111.59,169.76L112.95,169.13L115.68,169.44L117.04,170.81L119.76,172.59L121.12,173.53L125.21,175.63L126.57,175.74L129.29,176.68L130.65,176.58L134.74,176.58L136.1,178.26L138.82,179.2L140.18,180.14L142.91,181.09L144.24,182.87L148.33,180.67L149.69,180.98L151.05,182.87L152.41,183.19L153.77,182.66L155.14,183.92L157.86,184.24L159.22,186.65L161.94,194.73L163.3,195.67L166.03,194.41L167.39,195.04L170.11,197.35L171.47,197.46L172.83,194.73L174.2,194.1L175.56,196.09L176.92,196.72L182.34,192.31L183.7,192.94L185.07,193.26L186.43,192L187.79,192.1L189.15,194.62L191.87,196.93L193.23,196.62L197.32,196.41L198.68,197.35L200.04,200.08L201.4,200.92L202.76,200.81L204.12,199.66L206.85,199.03L208.21,200.18L210.91,200.6L212.27,200.92L216.36,200.81L217.72,201.44L220.44,203.02L221.8,202.49L223.16,201.44L224.52,201.76L227.25,205.74L228.61,205.74L231.33,205.32L232.69,205.74L236.78,204.7L238.14,207.32L240.84,209.52L242.2,209.52L244.92,209.42L246.28,210.47L249.01,212.04L250.37,213.93L254.45,216.66L255.81,215.71L257.18,215.08L258.54,215.61L261.26,215.19L262.62,213.93L263.98,215.19L265.32,217.91L268.05,217.81L269.41,219.17L272.13,219.7L273.49,218.86L274.85,219.17L276.21,220.54L278.94,221.9L280.3,224.52L281.66,227.25L283.02,225.26L284.38,223.37L285.74,223.9L287.11,222.74L288.47,224.52L291.17,227.57L292.53,228.41L295.25,229.77L296.61,230.09L297.97,232.08L299.34,231.97L300.7,231.76L302.06,232.5L304.78,233.34L306.14,234.39L307.5,235.23L308.87,237.11L311.59,239.63L312.93,240.26L314.29,243.72L315.65,244.98L317.01,241.21L318.37,241.31L323.82,239.53L325.18,240.05L326.54,240.16L327.9,241.52L329.27,243.51L330.63,243.83L333.35,243.72L334.69,244.98L336.05,245.61L337.41,244.35L341.5,246.66L342.86,248.66L344.22,249.7L345.58,252.43L348.3,254.95L349.66,254.32L351.03,255.06L352.39,253.69L353.73,255.16L355.09,254.95L356.45,253.27L357.81,255.48L359.17,258.94L360.53,260.09L363.26,263.24L364.62,260.62L367.34,264.5L368.7,264.81L371.43,275.72L372.79,277.4L374.13,280.13L375.49,281.08L376.85,280.24L378.21,281.5L380.93,284.64L382.3,285.06L387.74,286.53L389.1,288.1L390.46,289.57L391.8,288.52L394.53,286.22L395.89,288.31L404.06,289.78L405.42,289.78L408.14,290.73L409.5,292.2L413.56,293.56L414.93,294.09L419.01,294.5L420.37,292.62L424.46,284.33L425.82,282.75L427.16,276.77L428.52,274.36L429.88,273.94L431.24,272.37L435.32,271.11L436.69,272.58L438.05,273.21L439.41,275.1L442.13,276.67L443.49,277.4L444.83,277.72L446.19,279.5L450.28,281.5L451.64,281.6L453,281.91L454.36,280.34L455.72,279.19L457.09,279.5L459.79,279.82L461.15,279.08L462.51,278.66L463.87,276.25L469.32,278.14L470.68,278.98L472.04,279.61L473.4,279.08L477.46,278.56L478.82,279.29L480.19,280.87L481.55,280.97L482.91,281.08L484.27,282.12L485.63,283.7L486.99,284.01L488.35,284.33L489.72,285.8L493.78,285.48L495.14,286.43L499.22,288.21L500.58,288.42L501.95,288.94L503.31,288.52L510.09,289.99L511.45,289.68L516.9,292.09L518.26,292.62L520.96,293.56L522.32,293.88L525.05,295.55L526.41,295.24L529.13,295.97L530.49,294.3L531.85,295.24L533.21,295.13L535.92,295.97L537.28,294.61L540,296.92" style="vector-effect: non-scaling-stroke; fill: none; stroke: rgb(0, 204, 150); stroke-opacity: 1; stroke-width: 2px; opacity: 1;"/></g><g class="points"/><g class="text"/></g></g></g><g class="overplot"/><path class="xlines-above crisp" d="M0,0" style="fill: none;"/><path class="ylines-above crisp" d="M0,0" style="fill: none;"/><g class="overlines-above"/><g class="xaxislayer-above"><g class="xtick"><text text-anchor="middle" x="0" y="433" transform="translate(80,0)" style="font-family: 'Open Sans', verdana, arial, sans-serif; font-size: 12px; fill: rgb(42, 63, 95); fill-opacity: 1; white-space: pre; opacity: 1;">0</text></g><g class="xtick"><text text-anchor="middle" x="0" y="433" style="font-family: 'Open Sans', verdana, arial, sans-serif; font-size: 12px; fill: rgb(42, 63, 95); fill-opacity: 1; white-space: pre; opacity: 1;" transform="translate(189.79000000000002,0)">5k</text></g><g class="xtick"><text text-anchor="middle" x="0" y="433" style="font-family: 'Open Sans', verdana, arial, sans-serif; font-size: 12px; fill: rgb(42, 63, 95); fill-opacity: 1; white-space: pre; opacity: 1;" transform="translate(299.58000000000004,0)">10k</text></g><g class="xtick"><text text-anchor="middle" x="0" y="433" style="font-family: 'Open Sans', verdana, arial, sans-serif; font-size: 12px; fill: rgb(42, 63, 95); fill-opacity: 1; white-space: pre; opacity: 1;" transform="translate(409.38,0)">15k</text></g><g class="xtick"><text text-anchor="middle" x="0" y="433" style="font-family: 'Open Sans', verdana, arial, sans-serif; font-size: 12px; fill: rgb(42, 63, 95); fill-opacity: 1; white-space: pre; opacity: 1;" transform="translate(519.1700000000001,0)">20k</text></g></g><g class="yaxislayer-above"><g class="ytick"><text text-anchor="end" x="79" y="4.199999999999999" transform="translate(0,414.12)" style="font-family: 'Open Sans', verdana, arial, sans-serif; font-size: 12px; fill: rgb(42, 63, 95); fill-opacity: 1; white-space: pre; opacity: 1;">200</text></g><g class="ytick"><text text-anchor="end" x="79" y="4.199999999999999" style="font-family: 'Open Sans', verdana, arial, sans-serif; font-size: 12px; fill: rgb(42, 63, 95); fill-opacity: 1; white-space: pre; opacity: 1;" transform="translate(0,361.67)">250</text></g><g class="ytick"><text text-anchor="end" x="79" y="4.199999999999999" style="font-family: 'Open Sans', verdana, arial, sans-serif; font-size: 12px; fill: rgb(42, 63, 95); fill-opacity: 1; white-space: pre; opacity: 1;" transform="translate(0,309.21000000000004)">300</text></g><g class="ytick"><text text-anchor="end" x="79" y="4.199999999999999" style="font-family: 'Open Sans', verdana, arial, sans-serif; font-size: 12px; fill: rgb(42, 63, 95); fill-opacity: 1; white-space: pre; opacity: 1;" transform="translate(0,256.75)">350</text></g><g class="ytick"><text text-anchor="end" x="79" y="4.199999999999999" style="font-family: 'Open Sans', verdana, arial, sans-serif; font-size: 12px; fill: rgb(42, 63, 95); fill-opacity: 1; white-space: pre; opacity: 1;" transform="translate(0,204.29000000000002)">400</text></g><g class="ytick"><text text-anchor="end" x="79" y="4.199999999999999" style="font-family: 'Open Sans', verdana, arial, sans-serif; font-size: 12px; fill: rgb(42, 63, 95); fill-opacity: 1; white-space: pre; opacity: 1;" transform="translate(0,151.82999999999998)">450</text></g></g><g class="overaxes-above"/></g></g><g class="polarlayer"/><g class="smithlayer"/><g class="ternarylayer"/><g class="geolayer"/><g class="funnelarealayer"/><g class="pielayer"/><g class="iciclelayer"/><g class="treemaplayer"/><g class="sunburstlayer"/><g class="glimages"/><defs id="topdefs-489b9f"><g class="clips"/></defs><g class="layer-above"><g class="imagelayer"/><g class="shapelayer"/></g><g class="infolayer"><g class="g-gtitle"><text class="gtitle" x="35" y="50" text-anchor="start" dy="0em" style="font-family: 'Open Sans', verdana, arial, sans-serif; font-size: 17px; fill: rgb(42, 63, 95); opacity: 1; font-weight: normal; white-space: pre;">Profil altimétrique, Pontacq - Pau</text></g><g class="g-xtitle"/><g class="g-ytitle"/></g></svg>