<?xml version="1.0" encoding="UTF-8" standalone="no"?>
<svg
   id="svg"
   version="1.1"
   width="525.28015"
   height="399.90131"
   viewBox="0 0 525.28015 399.90131"
   sodipodi:docname="SOL.svg"
   inkscape:version="1.1 (c68e22c387, 2021-05-23)"
   xmlns:inkscape="http://www.inkscape.org/namespaces/inkscape"
   xmlns:sodipodi="http://sodipodi.sourceforge.net/DTD/sodipodi-0.dtd"
   xmlns="http://www.w3.org/2000/svg"
   xmlns:svg="http://www.w3.org/2000/svg">
  <defs
     id="defs1184" />
  <sodipodi:namedview
     id="namedview1182"
     pagecolor="#ffffff"
     bordercolor="#666666"
     borderopacity="1.0"
     inkscape:pageshadow="2"
     inkscape:pageopacity="0.0"
     inkscape:pagecheckerboard="0"
     showgrid="false"
     inkscape:zoom="1.3825"
     inkscape:cx="273.41772"
     inkscape:cy="263.29114"
     inkscape:window-width="2160"
     inkscape:window-height="1334"
     inkscape:window-x="-11"
     inkscape:window-y="-11"
     inkscape:window-maximized="1"
     inkscape:current-layer="svg" />
  <g
     id="svgg"
     transform="translate(125.28012,-0.10868695)">
    <path
       id="path0"
       d="m 206.983,49.7 c -0.105,0.275 -0.143,8.24 -0.083,17.7 l 0.109,17.2 0.095,-17.5 0.096,-17.5 h 11.596 11.596 l 0.104,17.267 c 0.082,13.607 0.212,17.288 0.614,17.37 0.281,0.057 0.326,0.012 0.1,-0.1 -0.271,-0.135 -0.41,-6.109 -0.41,-17.57 V 49.2 h -11.813 c -9.081,0 -11.856,0.116 -12.004,0.5 m -45.287,22.404 c -4.453,4.457 -8.096,8.283 -8.096,8.502 0,0.22 5.235,5.618 11.633,11.997 6.398,6.378 11.786,11.957 11.974,12.397 0.229,0.534 0.351,0.6 0.368,0.197 C 177.589,104.866 172.29,99.287 165.8,92.8 159.31,86.313 154,80.822 154,80.599 c 0,-0.224 3.6,-4.003 8.001,-8.4 l 8,-7.993 12.514,12.509 12.514,12.509 1.31,-0.654 c 0.721,-0.359 1.226,-0.738 1.123,-0.841 -0.103,-0.103 -0.712,0.083 -1.354,0.415 l -1.166,0.603 -12.368,-12.373 C 175.771,69.568 170.112,64 169.999,64 c -0.114,0 -3.85,3.647 -8.303,8.104 m 93.901,3.721 c -12.923,12.953 -12.686,12.75 -14.171,12.185 -1.384,-0.526 -1.302,-0.206 0.129,0.508 l 1.156,0.576 12.342,-12.347 C 261.841,69.956 267.578,64.4 267.801,64.4 268.324,64.4 284,80.079 284,80.601 c 0,0.217 -5.419,5.815 -12.042,12.441 l -12.043,12.047 1.096,1.656 c 0.602,0.91 1.172,1.655 1.266,1.655 0.204,0 -0.136,-0.607 -1.199,-2.141 l -0.791,-1.141 12.057,-12.061 C 278.975,86.423 284.4,80.815 284.4,80.594 284.4,80.071 268.317,64 267.794,64 c -0.22,0 -5.708,5.321 -12.197,11.825 M 204.8,84.8 c -0.533,0.345 -0.533,0.388 0,0.388 0.33,0 0.87,-0.175 1.2,-0.388 0.533,-0.345 0.533,-0.388 0,-0.388 -0.33,0 -0.87,0.175 -1.2,0.388 m 27.6,0 c 0.33,0.213 0.87,0.388 1.2,0.388 0.533,0 0.533,-0.043 0,-0.388 -0.33,-0.213 -0.87,-0.388 -1.2,-0.388 -0.533,0 -0.533,0.043 0,0.388 m -33.2,2 c -0.77,0.422 -1.287,0.774 -1.149,0.783 0.414,0.028 3.149,-1.178 3.149,-1.388 0,-0.349 -0.575,-0.175 -2,0.605 m -23.59,21.3 c -1.403,2.442 -3.744,7.899 -3.496,8.148 0.094,0.093 0.488,-0.689 0.876,-1.739 0.387,-1.05 1.483,-3.394 2.433,-5.209 1.93,-3.685 2.048,-4.44 0.187,-1.2 m 86.79,0.853 c 0,0.429 1.19,2.647 1.421,2.647 0.11,0 -0.098,-0.585 -0.462,-1.3 -0.742,-1.46 -0.959,-1.764 -0.959,-1.347 m 4.006,10.123 c -0.003,0.482 0.186,0.995 0.421,1.14 0.655,0.405 0.69,0.082 0.112,-1.016 -0.506,-0.959 -0.527,-0.964 -0.533,-0.124 m -129.025,1.829 c -0.107,0.278 -0.146,5.633 -0.087,11.9 l 0.106,11.395 16.649,0.104 16.649,0.105 0.539,1.895 c 0.296,1.043 0.595,1.618 0.664,1.277 0.069,-0.34 -0.151,-1.283 -0.491,-2.095 l -0.617,-1.477 -16.497,-0.105 -16.496,-0.104 -0.106,-11.496 -0.106,-11.495 16.506,-0.109 16.506,-0.109 -16.513,-0.096 c -13,-0.075 -16.553,0.012 -16.706,0.41 M 300.2,132.1 v 11.7 l -16.4,0.2 c -16.492,0.201 -17.439,0.284 -17.354,1.524 0.042,0.609 0.065,0.607 0.23,-0.024 0.1,-0.385 0.214,-0.74 0.253,-0.789 0.039,-0.049 7.631,-0.184 16.871,-0.3 l 16.8,-0.211 0.106,-11.9 c 0.058,-6.545 -0.032,-11.9 -0.2,-11.9 -0.168,0 -0.306,5.265 -0.306,11.7 M 0,191 v 66.2 h 47.58 47.581 l 5.319,-4.658 c 2.926,-2.561 5.95,-5.222 6.72,-5.912 0.77,-0.689 5.72,-5.025 11,-9.635 11.5,-10.039 10.823,-9.403 10.346,-9.731 -0.324,-0.224 -4.033,-5.846 -9.144,-13.864 -8.074,-12.667 -17.772,-31.092 -22.227,-42.232 -6.308,-15.773 -9.233,-28.514 -9.22,-40.168 0.003,-2.64 -0.088,-5.115 -0.202,-5.5 -0.195,-0.661 -2.637,-0.7 -43.98,-0.7 H 0 V 191 m 265.477,-42.723 c -0.813,2.47 -0.569,2.714 0.338,0.338 0.385,-1.008 0.608,-1.925 0.495,-2.038 -0.113,-0.113 -0.488,0.652 -0.833,1.7 m -92.667,2.293 c -0.016,0.584 2.848,6.219 3.304,6.5 0.263,0.163 0.283,0.052 0.057,-0.308 -0.195,-0.309 -1.028,-1.912 -1.852,-3.562 -0.824,-1.65 -1.503,-2.833 -1.509,-2.63 m 90.22,3.56 c -0.86,1.799 -1.919,3.783 -2.353,4.411 l -0.79,1.141 12.146,12.151 12.146,12.15 -1.49,1.526 c -0.819,0.838 -1.489,1.666 -1.489,1.84 0,0.173 0.72,-0.413 1.6,-1.302 2.147,-2.169 3.033,-0.942 -10.418,-14.426 l -12.018,-12.046 0.759,-1.088 c 1.024,-1.466 3.844,-7.253 3.637,-7.461 -0.092,-0.091 -0.87,1.306 -1.73,3.104 m -86.63,3.599 c 0,0.155 0.224,0.64 0.497,1.077 0.454,0.728 -0.511,1.803 -11.4,12.697 -6.543,6.546 -11.897,12.172 -11.897,12.503 0,0.331 3.687,4.286 8.194,8.788 l 8.195,8.187 12.608,-12.585 c 11.798,-11.775 12.663,-12.551 13.445,-12.063 0.46,0.287 0.908,0.45 0.996,0.362 0.089,-0.088 -0.298,-0.406 -0.858,-0.706 -1.005,-0.537 -1.194,-0.371 -13.302,11.733 C 176.123,194.475 170.325,200 169.994,200 169.21,200 154,184.778 154,183.994 c 0,-0.33 5.31,-5.907 11.8,-12.394 6.49,-6.487 11.794,-11.976 11.787,-12.197 -0.014,-0.456 -1.187,-2.11 -1.187,-1.674 m 63.4,19.16 c -2.864,1.447 -3.506,1.714 -5.6,2.326 -0.88,0.257 -2.05,0.681 -2.6,0.942 l -1,0.473 -0.104,17.285 -0.104,17.285 h -10.964 c -6.029,0 -11.247,-0.109 -11.595,-0.243 -0.564,-0.216 -0.633,-2.122 -0.633,-17.386 0,-18.758 0.09,-18.052 -2.274,-17.935 -0.399,0.02 -0.141,0.205 0.574,0.412 l 1.3,0.375 0.006,17.088 c 0.003,9.399 0.151,17.317 0.328,17.595 0.249,0.394 2.902,0.483 11.893,0.4 l 11.573,-0.106 0.104,-17.235 0.104,-17.234 0.896,-0.41 c 0.493,-0.226 1.616,-0.627 2.496,-0.892 2.104,-0.634 2.719,-0.888 5.784,-2.39 l 2.583,-1.267 12.508,12.503 c 10.146,10.142 12.603,12.406 13.016,11.99 0.412,-0.415 0.395,-0.469 -0.091,-0.285 -0.407,0.154 -4.578,-3.753 -12.998,-12.176 -6.818,-6.822 -12.488,-12.387 -12.6,-12.366 -0.111,0.022 -1.282,0.585 -2.602,1.251 m -42,0.223 c 0.551,0.508 5.857,2.564 6.069,2.352 0.095,-0.094 -0.332,-0.352 -0.949,-0.573 -0.616,-0.221 -2.11,-0.794 -3.32,-1.275 -1.21,-0.48 -2.02,-0.707 -1.8,-0.504 m 76.786,16.502 c -3.287,3.292 -5.842,5.986 -5.678,5.986 0.397,0 12.006,-11.619 11.808,-11.817 -0.085,-0.085 -2.843,2.539 -6.13,5.831 M 139.574,249.91 c -5.398,4.709 -8.107,7.085 -8.543,7.491 -0.237,0.221 -2.501,2.193 -5.031,4.383 -2.53,2.19 -4.69,4.08 -4.8,4.199 -0.11,0.12 -1.505,1.361 -3.1,2.759 -3.369,2.951 -3.329,2.793 -1.467,5.882 0.787,1.307 1.934,3.276 2.547,4.376 0.925,1.658 4.509,7.868 7.619,13.2 0.385,0.66 1.685,2.91 2.89,5 1.204,2.09 3.499,6.05 5.1,8.8 3.131,5.379 3.966,6.822 5.211,9 0.44,0.77 1.14,1.985 1.556,2.7 0.416,0.715 3.409,5.89 6.652,11.5 3.243,5.61 6.21,10.74 6.594,11.4 4.4,7.559 6.773,11.663 8.098,14 0.873,1.54 2.087,3.61 2.697,4.6 0.611,0.99 1.559,2.61 2.107,3.6 0.549,0.99 2.614,4.59 4.59,8 1.975,3.41 6.251,10.79 9.502,16.4 3.25,5.61 6.216,10.74 6.591,11.4 l 0.682,1.2 14.865,0.105 14.866,0.105 v -32.001 -32 l -5.1,-5.303 c -6.936,-7.211 -10.387,-10.885 -15.317,-16.306 -2.3,-2.529 -5.01,-5.499 -6.02,-6.6 -1.011,-1.1 -3.216,-3.575 -4.9,-5.5 -1.685,-1.925 -4.368,-4.992 -5.963,-6.816 -1.595,-1.823 -4.648,-5.388 -6.785,-7.922 -2.137,-2.533 -4.207,-4.982 -4.6,-5.442 -1.7,-1.988 -10.787,-13.1 -11.515,-14.08 -0.44,-0.593 -3.051,-3.949 -5.802,-7.459 -2.751,-3.509 -5.805,-7.461 -6.788,-8.781 -0.983,-1.32 -2.164,-2.869 -2.624,-3.442 l -0.837,-1.043 -2.975,2.595 M 0,340.4 V 400 h 80.8 c 44.44,0 80.8,-0.144 80.8,-0.32 0,-0.176 -0.165,-0.491 -0.367,-0.7 -0.294,-0.305 -7.751,-13.064 -11.326,-19.38 -0.436,-0.77 -0.927,-1.58 -1.092,-1.8 -0.165,-0.22 -0.838,-1.39 -1.496,-2.6 -0.658,-1.21 -2.727,-4.81 -4.598,-8 -1.871,-3.19 -4.122,-7.06 -5.003,-8.6 -0.881,-1.54 -2.551,-4.42 -3.711,-6.4 -2.11,-3.6 -2.906,-4.974 -4.407,-7.6 -0.44,-0.77 -1.16,-2.03 -1.6,-2.8 -1.698,-2.972 -2.401,-4.187 -5.746,-9.935 -1.9,-3.264 -3.454,-5.995 -3.454,-6.07 0,-0.075 -0.88,-1.57 -1.955,-3.321 -1.075,-1.752 -2.492,-4.15 -3.148,-5.33 -0.657,-1.179 -3.851,-6.734 -7.098,-12.344 -3.247,-5.61 -6.215,-10.74 -6.596,-11.4 -0.38,-0.66 -1.283,-2.19 -2.006,-3.4 -0.723,-1.21 -1.852,-3.19 -2.51,-4.4 -0.658,-1.21 -1.631,-2.785 -2.162,-3.5 l -0.966,-1.3 H 46.18 0 v 59.6"
       stroke="none"
       fill="#a4e383"
       fill-rule="evenodd" />
    <path
       id="path1"
       d="m 350.235,126.1 c -0.111,0.715 -0.284,4.36 -0.384,8.1 -0.201,7.431 -1.142,13.184 -3.484,21.3 -0.238,0.825 -0.529,1.997 -0.646,2.605 -0.117,0.608 -0.372,1.203 -0.567,1.324 -0.195,0.12 -0.354,0.622 -0.354,1.115 0,0.493 -0.143,1.067 -0.318,1.276 -0.175,0.209 -0.547,1.1 -0.827,1.98 -0.279,0.88 -0.652,1.96 -0.828,2.4 -0.176,0.44 -0.5,1.25 -0.72,1.8 -0.22,0.55 -0.604,1.495 -0.853,2.1 -0.25,0.605 -0.655,1.595 -0.901,2.2 -0.245,0.605 -0.605,1.413 -0.8,1.795 -0.194,0.382 -0.353,0.967 -0.353,1.3 0,0.333 -0.18,0.605 -0.4,0.605 -0.22,0 -0.4,0.272 -0.4,0.605 0,0.333 -0.17,0.918 -0.378,1.3 -0.208,0.382 -1.738,3.485 -3.4,6.895 -2.808,5.763 -5.701,11.318 -7.76,14.9 -0.474,0.825 -1.196,2.085 -1.603,2.8 -1.641,2.877 -5.871,9.865 -7.566,12.5 -3.973,6.174 -5.693,8.819 -5.986,9.2 -0.169,0.22 -0.562,0.895 -0.875,1.5 -0.312,0.605 -0.717,1.1 -0.9,1.1 -0.182,0 -0.332,0.27 -0.332,0.6 0,0.33 -0.15,0.6 -0.332,0.6 -0.183,0 -0.588,0.492 -0.9,1.094 -0.313,0.602 -0.784,1.367 -1.049,1.7 -0.264,0.333 -2.047,2.856 -3.961,5.606 -3.347,4.806 -10.08,13.985 -10.563,14.4 -0.129,0.11 -0.666,0.83 -1.195,1.6 -0.529,0.77 -1.06,1.49 -1.181,1.6 -0.12,0.11 -1.387,1.73 -2.815,3.6 -1.429,1.87 -2.814,3.67 -3.079,4 -0.264,0.33 -2.254,2.85 -4.421,5.6 -2.167,2.75 -4.292,5.42 -4.722,5.934 -1.653,1.973 -2.018,2.422 -3.182,3.905 -1.972,2.513 -11.914,14.314 -12.605,14.961 -0.352,0.33 -0.9,0.975 -1.217,1.433 -0.318,0.459 -1.686,2.079 -3.041,3.6 -1.354,1.522 -4.126,4.657 -6.16,6.967 -2.033,2.31 -4.706,5.28 -5.939,6.6 -1.233,1.32 -2.949,3.21 -3.813,4.2 -2.259,2.588 -11.725,12.684 -16.523,17.622 l -4.102,4.222 V 368.322 400 H 309.4 400 V 262.4 124.8 h -24.782 -24.782 l -0.201,1.3 M 123.6,232.46 c -2.53,2.221 -5.77,5.068 -7.2,6.327 -3.832,3.373 -9.915,8.704 -12.795,11.213 -1.389,1.21 -3.804,3.321 -5.365,4.691 l -2.84,2.49 -47.7,0.01 L 0,257.2 V 269 280.8 H 46.395 92.79 l 0.941,1.5 c 0.518,0.825 1.398,2.31 1.955,3.3 0.558,0.99 2.319,4.05 3.914,6.8 2.969,5.12 3.84,6.626 5.148,8.9 0.411,0.715 3.043,5.26 5.85,10.1 2.806,4.84 5.44,9.385 5.852,10.1 1.391,2.411 2.24,3.879 5.961,10.3 2.04,3.52 4.695,8.11 5.899,10.2 1.205,2.09 2.506,4.34 2.891,5 0.889,1.524 6.273,10.809 7.19,12.4 0.381,0.66 3.353,5.79 6.605,11.4 3.252,5.61 6.223,10.74 6.602,11.4 0.379,0.66 1.119,1.944 1.645,2.853 0.527,0.91 2.667,4.641 4.757,8.292 l 3.8,6.638 13.5,0.009 c 7.425,0.004 13.5,-0.13 13.5,-0.299 0,-0.169 -0.45,-0.97 -1,-1.779 -0.55,-0.809 -1,-1.574 -1,-1.7 0,-0.125 -0.783,-1.53 -1.739,-3.121 -0.957,-1.591 -3.091,-5.233 -4.743,-8.093 -6.344,-10.983 -7.506,-12.99 -11.117,-19.2 -2.047,-3.52 -7.047,-12.16 -11.112,-19.2 -4.065,-7.04 -7.706,-13.34 -8.091,-14 -0.793,-1.358 -12.102,-20.902 -13.25,-22.9 -0.412,-0.715 -1.083,-1.885 -1.492,-2.6 -0.409,-0.715 -1.335,-2.29 -2.056,-3.5 -0.721,-1.21 -1.647,-2.785 -2.056,-3.5 -0.409,-0.715 -1.082,-1.885 -1.495,-2.6 -1.503,-2.602 -3.625,-6.279 -8.715,-15.1 -2.856,-4.95 -5.449,-9.409 -5.763,-9.91 -0.652,-1.04 -1.645,-0.039 10.829,-10.917 16.374,-14.278 16.292,-14.2 15.8,-14.914 -1.534,-2.227 -10.643,-14.954 -10.98,-15.342 -0.231,-0.266 -0.42,-0.639 -0.42,-0.83 0,-0.351 -1.704,-2.096 -2.026,-2.076 -0.096,0.006 -2.244,1.828 -4.774,4.049"
       stroke="none"
       fill="#04c872"
       fill-rule="evenodd" />
    <path
       id="path2"
       d="m 207.2,66.951 v 17.352 l -1.1,0.393 c -0.605,0.216 -1.82,0.612 -2.7,0.881 -1.781,0.545 -3.432,1.234 -6.391,2.67 l -1.992,0.966 -12.508,-12.504 -12.508,-12.503 -8,7.993 C 157.6,76.596 154,80.373 154,80.594 c 0,0.22 5.34,5.743 11.866,12.272 l 11.865,11.87 -2.446,4.932 c -1.345,2.713 -2.857,6.192 -3.359,7.732 -1.203,3.69 0.405,3.387 -18.032,3.394 l -16.306,0.006 0.106,11.5 0.106,11.5 16.563,0.2 16.563,0.2 0.587,1.8 c 0.324,0.99 0.745,2.113 0.937,2.495 0.193,0.382 0.353,0.922 0.356,1.2 0.006,0.511 2.809,6.252 4.213,8.629 l 0.762,1.29 -11.891,11.896 c -6.539,6.542 -11.89,12.162 -11.89,12.489 0,0.78 15.214,16.001 15.994,16.001 0.331,0 6.13,-5.527 12.888,-12.282 l 12.287,-12.283 1.516,0.823 c 1.476,0.802 6.706,2.865 9.115,3.597 l 1.2,0.364 0.104,17.17 c 0.08,13.125 0.221,17.243 0.6,17.484 0.273,0.173 5.489,0.318 11.592,0.321 l 11.096,0.006 0.104,-17.285 0.104,-17.285 1,-0.473 c 0.55,-0.261 1.72,-0.685 2.6,-0.942 2.077,-0.607 2.685,-0.857 5.784,-2.376 l 2.583,-1.267 12.419,12.414 c 6.83,6.828 12.516,12.414 12.634,12.414 0.156,0 14.89,-14.616 16.362,-16.231 0.1,-0.11 -5.28,-5.664 -11.956,-12.343 l -12.139,-12.144 0.787,-1.141 c 1.244,-1.805 3.958,-7.677 4.963,-10.741 0.505,-1.54 1.073,-2.98 1.261,-3.2 0.212,-0.248 6.584,-0.476 16.822,-0.6 l 16.48,-0.2 v -11.6 -11.6 l -16.714,-0.104 c -12.885,-0.081 -16.744,-0.218 -16.844,-0.6 -0.342,-1.311 -1.134,-3.79 -1.468,-4.596 -0.206,-0.495 -0.533,-1.305 -0.727,-1.8 -0.795,-2.03 -2.316,-5.005 -3.398,-6.646 l -1.151,-1.747 12.051,-12.056 C 278.577,86.42 284,80.815 284,80.594 284,80.071 268.317,64.4 267.794,64.4 c -0.219,0 -5.953,5.556 -12.742,12.348 l -12.343,12.347 -2.254,-1.112 c -2.482,-1.224 -2.554,-1.253 -6.855,-2.765 l -3,-1.055 L 230.496,66.882 230.392,49.6 H 218.796 207.2 v 17.351"
       stroke="none"
       fill="#fcb414"
       fill-rule="evenodd" />
    <path
       id="path3"
       d="m 201.3,0.273 c -1.815,0.088 -3.3,0.315 -3.3,0.505 0,0.189 -0.855,0.447 -1.9,0.573 -5.136,0.616 -5.928,0.753 -6.28,1.088 -0.209,0.198 -1.064,0.361 -1.9,0.361 -0.836,0 -1.52,0.18 -1.52,0.4 0,0.22 -0.619,0.4 -1.376,0.4 -0.757,0 -1.488,0.18 -1.624,0.4 -0.136,0.22 -0.777,0.4 -1.424,0.4 -0.647,0 -1.176,0.18 -1.176,0.4 0,0.22 -0.54,0.4 -1.2,0.4 -0.66,0 -1.2,0.18 -1.2,0.4 0,0.22 -0.54,0.4 -1.2,0.4 -0.66,0 -1.2,0.18 -1.2,0.4 0,0.22 -0.45,0.4 -1,0.4 -0.55,0 -1,0.18 -1,0.4 0,0.22 -0.54,0.4 -1.2,0.4 -0.66,0 -1.2,0.16 -1.2,0.355 0,0.196 -0.672,0.482 -1.493,0.636 -0.821,0.154 -2.205,0.624 -3.075,1.045 -0.87,0.42 -1.818,0.764 -2.107,0.764 -0.289,0 -0.525,0.151 -0.525,0.336 0,0.185 -0.765,0.582 -1.7,0.883 -0.935,0.301 -1.79,0.649 -1.9,0.772 -0.11,0.124 -1.415,0.833 -2.9,1.577 -1.485,0.743 -2.7,1.505 -2.7,1.692 0,0.187 -0.36,0.34 -0.8,0.34 -0.44,0 -0.8,0.18 -0.8,0.4 0,0.22 -0.36,0.4 -0.8,0.4 -0.44,0 -0.8,0.18 -0.8,0.4 0,0.22 -0.236,0.4 -0.525,0.4 -0.288,0 -0.911,0.36 -1.383,0.8 -0.472,0.44 -1.096,0.8 -1.387,0.8 -0.291,0 -0.788,0.36 -1.105,0.8 -0.317,0.44 -0.831,0.8 -1.141,0.8 -0.311,0 -0.856,0.316 -1.212,0.703 -0.356,0.386 -1.142,0.957 -1.747,1.267 -0.605,0.311 -1.1,0.715 -1.1,0.898 0,0.182 -0.188,0.332 -0.417,0.332 -0.23,0 -0.885,0.433 -1.455,0.962 -0.57,0.528 -1.507,1.202 -2.082,1.497 -0.575,0.294 -1.316,0.815 -1.646,1.157 -0.33,0.342 -1.195,1.038 -1.923,1.546 -0.727,0.509 -2.648,2.21 -4.268,3.781 -1.62,1.571 -3.77,3.622 -4.777,4.556 -1.008,0.935 -1.832,1.835 -1.832,2 -0.001,0.166 -0.496,0.784 -1.1,1.374 -3.866,3.771 -6.1,6.131 -6.1,6.445 0,0.198 -0.54,0.865 -1.2,1.482 -0.66,0.617 -1.2,1.292 -1.2,1.501 0,0.209 -0.495,0.905 -1.1,1.547 -0.605,0.641 -1.355,1.658 -1.668,2.259 -0.312,0.601 -0.717,1.093 -0.9,1.093 -0.182,0 -0.332,0.208 -0.332,0.462 0,0.254 -0.45,1.052 -1,1.774 -0.55,0.721 -1,1.503 -1,1.737 0,0.235 -0.18,0.427 -0.4,0.427 -0.22,0 -0.4,0.27 -0.4,0.6 0,0.33 -0.136,0.6 -0.302,0.6 -0.167,0 -0.562,0.585 -0.878,1.3 -0.317,0.715 -0.9,1.649 -1.298,2.075 -0.397,0.427 -0.722,1.012 -0.722,1.3 0,0.289 -0.18,0.525 -0.4,0.525 -0.22,0 -0.4,0.36 -0.4,0.8 0,0.44 -0.18,0.8 -0.4,0.8 -0.22,0 -0.4,0.36 -0.4,0.8 0,0.44 -0.18,0.8 -0.4,0.8 -0.22,0 -0.4,0.36 -0.4,0.8 0,0.44 -0.18,0.8 -0.4,0.8 -0.22,0 -0.4,0.36 -0.4,0.8 0,0.44 -0.18,0.8 -0.4,0.8 -0.22,0 -0.4,0.36 -0.4,0.8 0,0.44 -0.18,0.8 -0.4,0.8 -0.22,0 -0.4,0.36 -0.4,0.8 0,0.44 -0.135,0.801 -0.3,0.803 -0.359,0.004 -1.3,1.941 -1.3,2.677 0,0.286 -0.18,0.52 -0.4,0.52 -0.22,0 -0.4,0.45 -0.4,1 0,0.55 -0.18,1 -0.4,1 -0.22,0 -0.4,0.45 -0.4,1 0,0.55 -0.18,1 -0.4,1 -0.22,0 -0.4,0.45 -0.4,1 0,0.55 -0.18,1 -0.4,1 -0.22,0 -0.4,0.452 -0.4,1.005 0,0.553 -0.159,1.318 -0.353,1.7 -1.193,2.346 -1.757,4.168 -2.288,7.399 -0.136,0.827 -0.408,1.602 -0.603,1.723 -0.196,0.121 -0.356,1.02 -0.356,1.997 0,0.977 -0.18,1.776 -0.4,1.776 -0.22,0 -0.4,0.72 -0.4,1.6 0,0.88 -0.18,1.6 -0.4,1.6 -0.22,0 -0.4,0.9 -0.4,2 0,1.1 -0.18,2 -0.4,2 -0.226,0 -0.4,1.133 -0.4,2.6 0,1.467 -0.174,2.6 -0.4,2.6 -0.236,0 -0.4,1.44 -0.4,3.52 0,2.024 -0.187,3.707 -0.439,3.959 -0.283,0.283 -0.347,1.276 -0.18,2.78 0.143,1.288 0.322,4.231 0.396,6.541 0.466,14.398 2.981,25.523 9.398,41.568 4.455,11.14 14.153,29.565 22.227,42.232 4.322,6.78 8.798,13.629 9.02,13.8 0.298,0.231 4.054,5.424 6.978,9.647 2.205,3.185 5.547,7.807 6.342,8.771 0.28,0.339 0.62,0.907 0.756,1.26 0.277,0.721 6.173,8.557 11.681,15.522 2.001,2.53 3.994,5.074 4.429,5.653 0.751,0.998 9.986,12.288 11.507,14.067 0.393,0.46 2.463,2.909 4.6,5.442 5.726,6.789 14.128,16.382 19.475,22.238 13.344,14.611 23.712,25.542 24.389,25.713 0.561,0.141 12.524,-12.208 20.251,-20.906 0.973,-1.096 2.402,-2.626 3.174,-3.4 0.772,-0.774 2.032,-2.153 2.8,-3.064 2.132,-2.531 9.688,-11.065 10.397,-11.743 0.345,-0.33 1.041,-1.14 1.546,-1.8 0.505,-0.66 1.586,-1.92 2.402,-2.8 0.816,-0.88 1.766,-2.009 2.111,-2.509 0.345,-0.499 1.239,-1.579 1.987,-2.4 1.274,-1.397 6.718,-7.92 10.76,-12.891 0.984,-1.21 1.97,-2.403 2.191,-2.651 0.221,-0.247 1.842,-2.302 3.602,-4.566 1.76,-2.264 4.28,-5.485 5.6,-7.157 1.32,-1.673 3.21,-4.118 4.199,-5.434 0.989,-1.316 1.898,-2.482 2.019,-2.592 0.121,-0.11 0.653,-0.83 1.182,-1.6 0.529,-0.77 1.069,-1.49 1.2,-1.6 0.131,-0.11 0.671,-0.83 1.2,-1.6 0.529,-0.77 1.067,-1.49 1.197,-1.6 0.216,-0.184 6.599,-9.161 8.816,-12.4 0.527,-0.77 1.1,-1.46 1.273,-1.533 0.172,-0.074 0.314,-0.355 0.314,-0.625 0,-0.27 0.315,-0.85 0.7,-1.288 0.734,-0.836 1.268,-1.608 2.411,-3.484 0.379,-0.621 1.094,-1.611 1.589,-2.2 0.494,-0.588 0.899,-1.295 0.9,-1.57 0,-0.275 0.159,-0.5 0.353,-0.5 0.195,0 0.46,-0.315 0.589,-0.7 0.129,-0.385 1.416,-2.5 2.86,-4.7 2.94,-4.48 8.09,-12.966 8.981,-14.8 0.321,-0.66 0.694,-1.29 0.829,-1.4 0.136,-0.11 0.368,-0.47 0.516,-0.8 0.148,-0.33 0.981,-1.86 1.85,-3.4 2.518,-4.459 10.422,-20.533 10.422,-21.193 0,-0.119 0.378,-1.069 0.84,-2.111 0.893,-2.017 1.425,-3.28 2.06,-4.896 0.216,-0.55 0.552,-1.313 0.747,-1.695 0.194,-0.382 0.353,-1.021 0.353,-1.42 0,-0.399 0.148,-0.896 0.328,-1.105 0.18,-0.209 0.742,-1.73 1.248,-3.38 0.505,-1.65 1.064,-3.36 1.242,-3.8 0.177,-0.44 0.413,-1.25 0.524,-1.8 0.111,-0.55 0.408,-1.72 0.659,-2.6 1.369,-4.8 2.467,-12.304 2.839,-19.4 0.201,-3.85 0.47,-8.416 0.596,-10.147 0.149,-2.025 0.076,-3.301 -0.203,-3.58 -0.24,-0.24 -0.433,-1.894 -0.433,-3.72 0,-1.807 -0.17,-3.346 -0.378,-3.42 -0.207,-0.073 -0.418,-1.168 -0.468,-2.433 -0.05,-1.265 -0.24,-2.3 -0.422,-2.3 -0.183,0 -0.332,-0.9 -0.332,-2 0,-1.1 -0.18,-2 -0.4,-2 -0.22,0 -0.4,-0.72 -0.4,-1.6 0,-0.88 -0.18,-1.6 -0.4,-1.6 -0.22,0 -0.4,-0.72 -0.4,-1.6 0,-0.88 -0.18,-1.6 -0.4,-1.6 -0.22,0 -0.4,-0.63 -0.4,-1.4 0,-0.77 -0.18,-1.4 -0.4,-1.4 -0.22,0 -0.4,-0.54 -0.4,-1.2 0,-0.66 -0.18,-1.2 -0.4,-1.2 -0.22,0 -0.4,-0.54 -0.4,-1.2 0,-0.66 -0.18,-1.2 -0.4,-1.2 -0.22,0 -0.4,-0.54 -0.4,-1.2 0,-0.66 -0.18,-1.2 -0.4,-1.2 -0.22,0 -0.4,-0.54 -0.4,-1.2 0,-0.66 -0.143,-1.2 -0.317,-1.2 -0.174,0 -0.524,-0.775 -0.778,-1.723 -0.253,-0.947 -1.101,-3.11 -1.885,-4.806 -0.783,-1.696 -1.468,-3.301 -1.522,-3.568 -0.054,-0.266 -0.325,-0.728 -0.602,-1.026 -0.277,-0.298 -0.411,-0.692 -0.297,-0.875 0.113,-0.184 0.07,-0.394 -0.097,-0.468 -0.166,-0.074 -0.735,-0.989 -1.265,-2.034 -0.529,-1.045 -1.114,-1.9 -1.3,-1.9 -0.185,0 -0.337,-0.36 -0.337,-0.8 0,-0.44 -0.18,-0.8 -0.4,-0.8 -0.22,0 -0.4,-0.36 -0.4,-0.8 0,-0.44 -0.18,-0.8 -0.4,-0.8 -0.22,0 -0.4,-0.27 -0.4,-0.6 0,-0.33 -0.18,-0.6 -0.4,-0.6 -0.22,0 -0.4,-0.27 -0.4,-0.6 0,-0.33 -0.18,-0.6 -0.4,-0.6 -0.22,0 -0.4,-0.32 -0.4,-0.712 0,-0.391 -0.36,-0.971 -0.8,-1.288 -0.44,-0.317 -0.8,-0.807 -0.8,-1.088 0,-0.282 -0.18,-0.512 -0.4,-0.512 -0.22,0 -0.4,-0.288 -0.4,-0.64 0,-0.351 -0.54,-1.143 -1.2,-1.76 -0.66,-0.617 -1.2,-1.409 -1.2,-1.76 0,-0.352 -0.139,-0.64 -0.309,-0.64 -0.17,0 -0.657,-0.647 -1.083,-1.437 -0.426,-0.791 -1.412,-2.11 -2.191,-2.933 -0.779,-0.822 -1.468,-1.722 -1.53,-2 -0.062,-0.279 -1.007,-1.378 -2.1,-2.442 -1.093,-1.065 -1.987,-2.047 -1.987,-2.183 0,-0.57 -13.929,-13.827 -14.873,-14.156 -0.238,-0.083 -1.065,-0.747 -1.837,-1.475 -0.772,-0.728 -1.918,-1.537 -2.547,-1.798 -0.629,-0.26 -1.143,-0.631 -1.143,-0.825 0,-0.193 -0.288,-0.351 -0.64,-0.351 -0.351,0 -1.143,-0.54 -1.76,-1.2 -0.617,-0.66 -1.326,-1.2 -1.577,-1.2 -0.251,0 -0.812,-0.331 -1.246,-0.736 -0.435,-0.405 -1.282,-0.989 -1.884,-1.297 -0.601,-0.309 -1.384,-0.878 -1.74,-1.264 -0.356,-0.387 -0.941,-0.703 -1.3,-0.703 -0.359,0 -0.653,-0.18 -0.653,-0.4 0,-0.22 -0.36,-0.4 -0.8,-0.4 -0.44,0 -0.8,-0.18 -0.8,-0.4 0,-0.22 -0.27,-0.4 -0.6,-0.4 -0.33,0 -0.6,-0.146 -0.6,-0.325 0,-0.179 -0.63,-0.573 -1.4,-0.875 -0.77,-0.302 -1.4,-0.696 -1.4,-0.875 0,-0.179 -0.36,-0.325 -0.8,-0.325 -0.44,0 -0.8,-0.18 -0.8,-0.4 0,-0.22 -0.36,-0.4 -0.8,-0.4 -0.44,0 -0.8,-0.18 -0.8,-0.4 0,-0.22 -0.253,-0.4 -0.562,-0.4 -0.309,0 -1.254,-0.343 -2.1,-0.763 -2.271,-1.126 -4.701,-2.205 -5.005,-2.222 C 268.987,9.007 268.732,8.865 268.567,8.7 268.402,8.535 267.757,8.4 267.133,8.4 266.51,8.4 266,8.22 266,8 266,7.78 265.651,7.6 265.224,7.6 264.797,7.6 264.336,7.42 264.2,7.2 264.064,6.98 263.513,6.8 262.976,6.8 262.439,6.8 262,6.62 262,6.4 262,6.18 261.46,6 260.8,6 c -0.66,0 -1.2,-0.18 -1.2,-0.4 0,-0.22 -0.619,-0.4 -1.376,-0.4 -0.757,0 -1.488,-0.18 -1.624,-0.4 -0.136,-0.22 -0.787,-0.4 -1.447,-0.4 -0.698,0 -1.097,-0.167 -0.953,-0.4 0.149,-0.242 -0.396,-0.4 -1.376,-0.4 -0.893,0 -1.624,-0.18 -1.624,-0.4 0,-0.22 -0.72,-0.4 -1.6,-0.4 C 248.72,2.8 248,2.62 248,2.4 248,2.18 247.111,2 246.024,2 244.937,2 243.936,1.82 243.8,1.6 243.664,1.38 242.699,1.2 241.656,1.2 240.613,1.2 239.542,0.982 239.276,0.716 238.794,0.234 209.265,-0.11 201.3,0.273 m 29.5,66.273 v 17.346 l 2.7,0.895 c 1.485,0.492 4.091,1.515 5.792,2.273 3.88,1.729 2.254,2.85 16.305,-11.235 C 262.086,69.321 267.574,64 267.794,64 c 0.523,0 16.606,16.071 16.606,16.594 0,0.221 -5.425,5.829 -12.056,12.463 l -12.057,12.061 0.806,1.141 c 1.328,1.879 3.54,6.533 4.726,9.941 0.612,1.76 1.285,3.425 1.496,3.7 0.295,0.386 4.165,0.5 16.94,0.5 h 16.557 l -0.106,11.9 -0.106,11.9 -16.8,0.211 c -9.24,0.116 -16.831,0.251 -16.868,0.3 -0.038,0.049 -0.196,0.674 -0.352,1.389 -0.614,2.815 -4.397,11.209 -5.847,12.976 -0.28,0.341 3.023,3.899 11.638,12.534 6.616,6.632 12.029,12.228 12.029,12.435 0,0.329 -13.557,14.046 -15.946,16.134 l -0.891,0.779 -12.498,-12.493 -12.498,-12.493 -2.583,1.267 c -3.065,1.502 -3.68,1.756 -5.784,2.39 -0.88,0.265 -2.003,0.666 -2.496,0.892 l -0.896,0.41 -0.104,17.234 -0.104,17.235 -11.573,0.106 c -8.991,0.083 -11.644,-0.006 -11.893,-0.4 -0.177,-0.278 -0.325,-8.172 -0.328,-17.543 l -0.006,-17.036 -3.22,-1.061 c -1.771,-0.583 -4.396,-1.628 -5.833,-2.321 l -2.614,-1.261 -12.572,12.549 -12.572,12.548 -8.195,-8.187 c -4.507,-4.502 -8.194,-8.457 -8.194,-8.788 0,-0.331 5.347,-5.95 11.882,-12.488 l 11.883,-11.888 -0.944,-1.715 c -2.376,-4.318 -3.559,-6.885 -4.641,-10.07 l -1.166,-3.436 -16.607,-0.105 L 137.4,144.2 v -11.8 -11.8 l 16.623,-0.104 16.622,-0.105 0.92,-2.895 c 1.054,-3.32 3.6,-8.961 4.812,-10.663 1.291,-1.814 1.45,-1.611 -10.977,-14.033 -6.49,-6.487 -11.8,-11.978 -11.8,-12.201 0,-0.224 3.69,-4.093 8.201,-8.6 l 8.2,-8.193 12.5,12.46 12.499,12.46 2.944,-1.359 c 1.619,-0.748 4.274,-1.764 5.9,-2.259 L 206.8,84.209 V 66.971 c 0,-9.481 0.12,-17.358 0.267,-17.504 0.146,-0.147 5.546,-0.267 12,-0.267 H 230.8 v 17.346"
       stroke="none"
       fill="#d8f7fb"
       fill-rule="evenodd" />
    <path
       id="path4"
       d="m 349.843,125.653 c -0.108,0.521 -0.29,3.917 -0.404,7.547 -0.115,3.63 -0.496,8.13 -0.848,10 -1.164,6.191 -1.33,6.987 -1.79,8.6 -0.251,0.88 -0.548,2.05 -0.659,2.6 -0.111,0.55 -0.347,1.36 -0.524,1.8 -0.178,0.44 -0.737,2.15 -1.242,3.8 -0.506,1.65 -1.068,3.171 -1.248,3.38 -0.18,0.209 -0.328,0.706 -0.328,1.105 0,0.399 -0.159,1.038 -0.353,1.42 -0.368,0.722 -1.131,2.513 -1.661,3.895 -0.168,0.44 -0.684,1.653 -1.146,2.696 -0.462,1.042 -0.84,1.992 -0.84,2.111 0,0.66 -7.904,16.734 -10.422,21.193 -0.869,1.54 -1.702,3.07 -1.85,3.4 -0.148,0.33 -0.38,0.69 -0.516,0.8 -0.135,0.11 -0.508,0.74 -0.829,1.4 -0.891,1.834 -6.041,10.32 -8.981,14.8 -1.444,2.2 -2.731,4.315 -2.86,4.7 -0.129,0.385 -0.394,0.7 -0.589,0.7 -0.194,0 -0.353,0.225 -0.353,0.5 -10e-4,0.275 -0.406,0.982 -0.9,1.57 -0.495,0.589 -1.21,1.579 -1.589,2.2 -1.143,1.876 -1.677,2.648 -2.411,3.484 -0.385,0.438 -0.7,1.018 -0.7,1.288 0,0.27 -0.142,0.551 -0.314,0.625 -0.173,0.073 -0.746,0.763 -1.273,1.533 -2.217,3.239 -8.6,12.216 -8.816,12.4 -0.13,0.11 -0.668,0.83 -1.197,1.6 -0.529,0.77 -1.069,1.49 -1.2,1.6 -0.131,0.11 -0.671,0.83 -1.2,1.6 -0.529,0.77 -1.061,1.49 -1.182,1.6 -0.121,0.11 -1.03,1.276 -2.019,2.592 -0.989,1.316 -2.879,3.761 -4.199,5.434 -1.32,1.672 -3.84,4.893 -5.6,7.157 -1.76,2.264 -3.381,4.319 -3.602,4.566 -0.221,0.248 -1.207,1.441 -2.191,2.651 -4.042,4.971 -9.486,11.494 -10.76,12.891 -0.748,0.821 -1.642,1.901 -1.987,2.4 -0.345,0.5 -1.295,1.629 -2.111,2.509 -0.816,0.88 -1.897,2.14 -2.402,2.8 -0.505,0.66 -1.201,1.47 -1.546,1.8 -0.709,0.678 -8.265,9.212 -10.397,11.743 -0.768,0.911 -2.028,2.29 -2.8,3.064 -0.772,0.774 -2.201,2.304 -3.174,3.4 -2.903,3.268 -11.923,12.899 -16.191,17.288 -2.19,2.253 -3.892,4.186 -3.782,4.296 0.28,0.279 15.182,-15.22 20.568,-21.391 0.864,-0.99 2.58,-2.88 3.813,-4.2 1.233,-1.32 3.906,-4.29 5.939,-6.6 2.034,-2.31 4.806,-5.445 6.16,-6.967 1.355,-1.521 2.723,-3.141 3.041,-3.6 0.317,-0.458 0.865,-1.103 1.217,-1.433 0.691,-0.647 10.633,-12.448 12.605,-14.961 1.164,-1.483 1.529,-1.932 3.182,-3.905 0.43,-0.514 2.555,-3.184 4.722,-5.934 2.167,-2.75 4.157,-5.27 4.421,-5.6 0.265,-0.33 1.65,-2.13 3.079,-4 1.428,-1.87 2.695,-3.49 2.815,-3.6 0.121,-0.11 0.652,-0.83 1.181,-1.6 0.529,-0.77 1.066,-1.49 1.195,-1.6 0.483,-0.415 7.216,-9.594 10.563,-14.4 1.914,-2.75 3.697,-5.273 3.961,-5.606 0.265,-0.333 0.736,-1.098 1.049,-1.7 0.312,-0.602 0.717,-1.094 0.9,-1.094 0.182,0 0.332,-0.27 0.332,-0.6 0,-0.33 0.15,-0.6 0.332,-0.6 0.183,0 0.588,-0.495 0.9,-1.1 0.313,-0.605 0.706,-1.28 0.875,-1.5 0.293,-0.381 2.013,-3.026 5.986,-9.2 1.695,-2.635 5.925,-9.623 7.566,-12.5 0.407,-0.715 1.129,-1.975 1.603,-2.8 2.059,-3.582 4.952,-9.137 7.76,-14.9 1.662,-3.41 3.192,-6.513 3.4,-6.895 0.208,-0.382 0.378,-0.967 0.378,-1.3 0,-0.333 0.18,-0.605 0.4,-0.605 0.22,0 0.4,-0.272 0.4,-0.605 0,-0.333 0.159,-0.918 0.353,-1.3 0.349,-0.686 0.975,-2.147 1.754,-4.095 0.22,-0.55 0.58,-1.45 0.8,-2 0.22,-0.55 0.544,-1.36 0.72,-1.8 0.176,-0.44 0.549,-1.52 0.828,-2.4 0.28,-0.88 0.652,-1.771 0.827,-1.98 0.175,-0.209 0.318,-0.783 0.318,-1.276 0,-0.493 0.159,-0.995 0.354,-1.115 0.195,-0.121 0.45,-0.716 0.567,-1.324 0.117,-0.608 0.408,-1.78 0.646,-2.605 2.39,-8.281 3.27,-13.802 3.587,-22.5 0.289,-7.919 0.269,-9.185 -0.111,-7.347 M 129.169,229.036 c 0.677,0.569 1.231,1.207 1.231,1.416 0,0.21 0.189,0.599 0.42,0.865 0.231,0.266 2.706,3.696 5.5,7.622 2.794,3.927 5.254,7.384 5.467,7.682 0.274,0.386 0.1,0.867 -0.6,1.661 l -0.987,1.118 1.1,-0.97 c 1.243,-1.095 1.359,-1.708 0.516,-2.725 -0.832,-1.005 -4.074,-5.476 -6.416,-8.85 -4.892,-7.048 -6.291,-8.855 -6.857,-8.855 -0.378,0 -0.143,0.388 0.626,1.036 M 115.28,270.88 c -0.582,0.582 -0.622,1.385 -0.085,1.717 0.228,0.141 0.294,-0.021 0.156,-0.381 -0.132,-0.345 -0.018,-0.894 0.253,-1.221 0.591,-0.712 0.356,-0.795 -0.324,-0.115"
       stroke="none"
       fill="#6fdfbb"
       fill-rule="evenodd" />
  </g>
  <g
     id="g4457"
     transform="translate(-420.88608,-29.721086)">
    <path
       style="fill:none;stroke:#3c3c3c;stroke-width:3;stroke-linecap:butt;stroke-linejoin:miter;stroke-miterlimit:4;stroke-dasharray:none;stroke-opacity:1"
       d="m 437.72151,180.1085 h 88.24594"
       id="path973-5" />
    <rect
       style="fill:#ff0000;fill-opacity:1;stroke:none;stroke-width:3;stroke-linecap:square;stroke-miterlimit:4;stroke-dasharray:none;stroke-opacity:1"
       id="rect1340"
       width="11.754068"
       height="10.216998"
       x="420.88608"
       y="175" />
  </g>
  <g
     id="g4461"
     transform="translate(-420.88608,-24.721086)">
    <path
       style="fill:none;stroke:#3c3c3c;stroke-width:3;stroke-linecap:butt;stroke-linejoin:miter;stroke-miterlimit:4;stroke-dasharray:none;stroke-opacity:1"
       d="m 437.72151,200.1085 h 88.24594"
       id="path1596" />
    <rect
       style="fill:#126cff;fill-opacity:1;stroke:none;stroke-width:3;stroke-linecap:square;stroke-miterlimit:4;stroke-dasharray:none;stroke-opacity:1"
       id="rect1602"
       width="11.754068"
       height="10.216998"
       x="420.88608"
       y="195" />
  </g>
  <g
     id="g4465"
     transform="translate(-420.88608,-19.721101)">
    <path
       style="fill:none;stroke:#3c3c3c;stroke-width:3;stroke-linecap:butt;stroke-linejoin:miter;stroke-miterlimit:4;stroke-dasharray:none;stroke-opacity:1"
       d="m 437.72151,220.1085 h 88.24594"
       id="path1604" />
    <rect
       style="fill:#35cd78;fill-opacity:1;stroke:none;stroke-width:3;stroke-linecap:square;stroke-miterlimit:4;stroke-dasharray:none;stroke-opacity:1"
       id="rect1610"
       width="11.754068"
       height="10.216998"
       x="420.88608"
       y="215" />
  </g>
  <g
     id="g4469"
     transform="translate(-420.88608,-14.721101)">
    <path
       style="fill:none;stroke:#3c3c3c;stroke-width:3;stroke-linecap:butt;stroke-linejoin:miter;stroke-miterlimit:4;stroke-dasharray:none;stroke-opacity:1"
       d="m 437.72151,240.1085 h 88.24594"
       id="path1612" />
    <rect
       style="fill:#ffe600;fill-opacity:1;stroke:none;stroke-width:3;stroke-linecap:square;stroke-miterlimit:4;stroke-dasharray:none;stroke-opacity:1"
       id="rect1618"
       width="11.754068"
       height="10.216998"
       x="420.88608"
       y="235" />
  </g>
  <g
     id="g4473"
     transform="translate(-420.88608,-109.72109)">
    <path
       style="fill:none;stroke:#3c3c3c;stroke-width:3;stroke-linecap:butt;stroke-linejoin:miter;stroke-miterlimit:4;stroke-dasharray:none;stroke-opacity:1"
       d="m 437.72151,360.1085 h 88.24594"
       id="path1620" />
    <rect
       style="fill:#656565;fill-opacity:1;stroke:none;stroke-width:3;stroke-linecap:square;stroke-miterlimit:4;stroke-dasharray:none;stroke-opacity:1"
       id="rect1626"
       width="11.754068"
       height="10.216998"
       x="420.88608"
       y="355" />
  </g>
</svg>
